<?xml version="1.0" encoding="utf-8" ?>
<svg baseProfile="full" height="20.0cm" version="1.1" viewBox="0,0,200,200" width="20.0cm" xmlns="http://www.w3.org/2000/svg" xmlns:ev="http://www.w3.org/2001/xml-events" xmlns:inkscape="http://www.inkscape.org/namespaces/inkscape" xmlns:sodipodi="http://sodipodi.sourceforge.net/DTD/sodipodi-0.dtd" xmlns:xlink="http://www.w3.org/1999/xlink"><defs><pattern height="5" id="id1" patternUnits="userSpaceOnUse" width="5"><path d="M 5 0 L 0 0 0 5" fill="none" stroke="rgb(0%,0%,100%)" stroke-width="0.1" /></pattern><pattern height="20" id="id2" patternUnits="userSpaceOnUse" width="20"><rect fill="url(#id1) none" height="20" width="20" x="0" y="0" /><path d="M 20 0 L 0 0 0 20" fill="none" stroke="rgb(0%,0%,100%)" stroke-width="0.2" /></pattern></defs><g inkscape:groupmode="layer" inkscape:label="GridLayer" sodipodi:insensitive="1"><rect fill="white" height="200" width="200" x="0" y="0" /><rect fill="url(#id2) none" height="200" width="200" x="0" y="0" /></g><g inkscape:groupmode="layer" inkscape:label="Track" sodipodi:insensitive="1"><line stroke="gray" stroke-width="5" x1="37.5" x2="37.5" y1="55.0" y2="52.5" /><line stroke="gray" stroke-width="5" x1="37.5" x2="52.5" y1="52.5" y2="37.5" /><line stroke="gray" stroke-width="5" x1="52.5" x2="55.0" y1="37.5" y2="37.5" /><circle cx="37.5" cy="52.5" fill="gray" r="2.5" stroke="none" /><circle cx="52.5" cy="37.5" fill="gray" r="2.5" stroke="none" /><line stroke="gray" stroke-width="5" x1="77.5" x2="77.5" y1="55.0" y2="52.5" /><line stroke="gray" stroke-width="5" x1="77.5" x2="62.5" y1="52.5" y2="37.5" /><line stroke="gray" stroke-width="5" x1="62.5" x2="60.0" y1="37.5" y2="37.5" /><circle cx="77.5" cy="52.5" fill="gray" r="2.5" stroke="none" /><circle cx="62.5" cy="37.5" fill="gray" r="2.5" stroke="none" /><line stroke="gray" stroke-width="5" x1="37.5" x2="37.5" y1="60.0" y2="62.5" /><line stroke="gray" stroke-width="5" x1="37.5" x2="52.5" y1="62.5" y2="77.5" /><line stroke="gray" stroke-width="5" x1="52.5" x2="55.0" y1="77.5" y2="77.5" /><circle cx="37.5" cy="62.5" fill="gray" r="2.5" stroke="none" /><circle cx="52.5" cy="77.5" fill="gray" r="2.5" stroke="none" /><line stroke="gray" stroke-width="5" x1="77.5" x2="77.5" y1="60.0" y2="62.5" /><line stroke="gray" stroke-width="5" x1="77.5" x2="62.5" y1="62.5" y2="77.5" /><line stroke="gray" stroke-width="5" x1="62.5" x2="60.0" y1="77.5" y2="77.5" /><circle cx="77.5" cy="62.5" fill="gray" r="2.5" stroke="none" /><circle cx="62.5" cy="77.5" fill="gray" r="2.5" stroke="none" /><line stroke="gray" stroke-width="5" x1="27.5" x2="27.5" y1="55.0" y2="42.5" /><line stroke="gray" stroke-width="5" x1="27.5" x2="42.5" y1="42.5" y2="27.5" /><line stroke="gray" stroke-width="5" x1="42.5" x2="55.0" y1="27.5" y2="27.5" /><circle cx="27.5" cy="42.5" fill="gray" r="2.5" stroke="none" /><circle cx="42.5" cy="27.5" fill="gray" r="2.5" stroke="none" /><line stroke="gray" stroke-width="5" x1="87.5" x2="87.5" y1="55.0" y2="42.5" /><line stroke="gray" stroke-width="5" x1="87.5" x2="72.5" y1="42.5" y2="27.5" /><line stroke="gray" stroke-width="5" x1="72.5" x2="60.0" y1="27.5" y2="27.5" /><circle cx="87.5" cy="42.5" fill="gray" r="2.5" stroke="none" /><circle cx="72.5" cy="27.5" fill="gray" r="2.5" stroke="none" /><line stroke="gray" stroke-width="5" x1="27.5" x2="27.5" y1="60.0" y2="72.5" /><line stroke="gray" stroke-width="5" x1="27.5" x2="42.5" y1="72.5" y2="87.5" /><line stroke="gray" stroke-width="5" x1="42.5" x2="55.0" y1="87.5" y2="87.5" /><circle cx="27.5" cy="72.5" fill="gray" r="2.5" stroke="none" /><circle cx="42.5" cy="87.5" fill="gray" r="2.5" stroke="none" /><line stroke="gray" stroke-width="5" x1="87.5" x2="87.5" y1="60.0" y2="72.5" /><line stroke="gray" stroke-width="5" x1="87.5" x2="72.5" y1="72.5" y2="87.5" /><line stroke="gray" stroke-width="5" x1="72.5" x2="60.0" y1="87.5" y2="87.5" /><circle cx="87.5" cy="72.5" fill="gray" r="2.5" stroke="none" /><circle cx="72.5" cy="87.5" fill="gray" r="2.5" stroke="none" /><line stroke="gray" stroke-width="5" x1="17.5" x2="17.5" y1="55.0" y2="32.5" /><line stroke="gray" stroke-width="5" x1="17.5" x2="32.5" y1="32.5" y2="17.5" /><line stroke="gray" stroke-width="5" x1="32.5" x2="55.0" y1="17.5" y2="17.5" /><circle cx="17.5" cy="32.5" fill="gray" r="2.5" stroke="none" /><circle cx="32.5" cy="17.5" fill="gray" r="2.5" stroke="none" /><line stroke="gray" stroke-width="5" x1="97.5" x2="97.5" y1="55.0" y2="32.5" /><line stroke="gray" stroke-width="5" x1="97.5" x2="82.5" y1="32.5" y2="17.5" /><line stroke="gray" stroke-width="5" x1="82.5" x2="60.0" y1="17.5" y2="17.5" /><circle cx="97.5" cy="32.5" fill="gray" r="2.5" stroke="none" /><circle cx="82.5" cy="17.5" fill="gray" r="2.5" stroke="none" /><line stroke="gray" stroke-width="5" x1="17.5" x2="17.5" y1="60.0" y2="82.5" /><line stroke="gray" stroke-width="5" x1="17.5" x2="32.5" y1="82.5" y2="97.5" /><line stroke="gray" stroke-width="5" x1="32.5" x2="55.0" y1="97.5" y2="97.5" /><circle cx="17.5" cy="82.5" fill="gray" r="2.5" stroke="none" /><circle cx="32.5" cy="97.5" fill="gray" r="2.5" stroke="none" /><line stroke="gray" stroke-width="5" x1="97.5" x2="97.5" y1="60.0" y2="82.5" /><line stroke="gray" stroke-width="5" x1="97.5" x2="82.5" y1="82.5" y2="97.5" /><line stroke="gray" stroke-width="5" x1="82.5" x2="60.0" y1="97.5" y2="97.5" /><circle cx="97.5" cy="82.5" fill="gray" r="2.5" stroke="none" /><circle cx="82.5" cy="97.5" fill="gray" r="2.5" stroke="none" /><line stroke="gray" stroke-width="5" x1="7.5" x2="7.5" y1="55.0" y2="22.5" /><line stroke="gray" stroke-width="5" x1="7.5" x2="22.5" y1="22.5" y2="7.5" /><line stroke="gray" stroke-width="5" x1="22.5" x2="55.0" y1="7.5" y2="7.5" /><circle cx="7.5" cy="22.5" fill="gray" r="2.5" stroke="none" /><circle cx="22.5" cy="7.5" fill="gray" r="2.5" stroke="none" /><line stroke="gray" stroke-width="5" x1="107.5" x2="107.5" y1="55.0" y2="22.5" /><line stroke="gray" stroke-width="5" x1="107.5" x2="92.5" y1="22.5" y2="7.5" /><line stroke="gray" stroke-width="5" x1="92.5" x2="60.0" y1="7.5" y2="7.5" /><circle cx="107.5" cy="22.5" fill="gray" r="2.5" stroke="none" /><circle cx="92.5" cy="7.5" fill="gray" r="2.5" stroke="none" /><line stroke="gray" stroke-width="5" x1="7.5" x2="7.5" y1="60.0" y2="92.5" /><line stroke="gray" stroke-width="5" x1="7.5" x2="22.5" y1="92.5" y2="107.5" /><line stroke="gray" stroke-width="5" x1="22.5" x2="55.0" y1="107.5" y2="107.5" /><circle cx="7.5" cy="92.5" fill="gray" r="2.5" stroke="none" /><circle cx="22.5" cy="107.5" fill="gray" r="2.5" stroke="none" /><line stroke="gray" stroke-width="5" x1="107.5" x2="107.5" y1="60.0" y2="92.5" /><line stroke="gray" stroke-width="5" x1="107.5" x2="92.5" y1="92.5" y2="107.5" /><line stroke="gray" stroke-width="5" x1="92.5" x2="60.0" y1="107.5" y2="107.5" /><circle cx="107.5" cy="92.5" fill="gray" r="2.5" stroke="none" /><circle cx="92.5" cy="107.5" fill="gray" r="2.5" stroke="none" /><line stroke="gray" stroke-width="5" x1="122.5" x2="122.5" y1="60.0" y2="80.0" /><line stroke="gray" stroke-width="5" x1="122.5" x2="127.5" y1="70.0" y2="80.0" /><circle cx="122.5" cy="70.0" fill="white" r="2.5" /><line stroke="gray" stroke-width="5" x1="127.5" x2="132.5" y1="80.0" y2="90.0" /><line stroke="gray" stroke-width="5" x1="122.5" x2="122.5" y1="80.0" y2="97.5" /><line stroke="gray" stroke-width="5" x1="122.5" x2="132.5" y1="97.5" y2="107.5" /><line stroke="gray" stroke-width="5" x1="132.5" x2="140.0" y1="90.0" y2="97.5" /><line stroke="gray" stroke-width="5" x1="140.0" x2="150.0" y1="97.5" y2="97.5" /><line stroke="gray" stroke-width="5" x1="132.5" x2="150.0" y1="107.5" y2="107.5" /><circle cx="132.5" cy="107.5" fill="gray" r="2.5" stroke="none" /><circle cx="140.0" cy="97.5" fill="gray" r="2.5" stroke="none" /><circle cx="122.5" cy="97.5" fill="gray" r="2.5" stroke="none" /><circle cx="132.5" cy="90.0" fill="gray" r="2.5" stroke="none" /><line stroke="gray" stroke-width="5" x1="187.5" x2="187.5" y1="60.0" y2="80.0" /><line stroke="gray" stroke-width="5" x1="187.5" x2="182.5" y1="70.0" y2="80.0" /><circle cx="187.5" cy="70.0" fill="white" r="2.5" /><line stroke="gray" stroke-width="5" x1="182.5" x2="177.5" y1="80.0" y2="90.0" /><line stroke="gray" stroke-width="5" x1="187.5" x2="187.5" y1="80.0" y2="97.5" /><line stroke="gray" stroke-width="5" x1="187.5" x2="177.5" y1="97.5" y2="107.5" /><line stroke="gray" stroke-width="5" x1="177.5" x2="170.0" y1="90.0" y2="97.5" /><line stroke="gray" stroke-width="5" x1="170.0" x2="160.0" y1="97.5" y2="97.5" /><line stroke="gray" stroke-width="5" x1="177.5" x2="160.0" y1="107.5" y2="107.5" /><circle cx="177.5" cy="107.5" fill="gray" r="2.5" stroke="none" /><circle cx="170.0" cy="97.5" fill="gray" r="2.5" stroke="none" /><circle cx="187.5" cy="97.5" fill="gray" r="2.5" stroke="none" /><circle cx="177.5" cy="90.0" fill="gray" r="2.5" stroke="none" /><line stroke="gray" stroke-width="5" x1="122.5" x2="122.5" y1="55.0" y2="35.0" /><line stroke="gray" stroke-width="5" x1="122.5" x2="127.5" y1="45.0" y2="35.0" /><circle cx="122.5" cy="45.0" fill="white" r="2.5" /><line stroke="gray" stroke-width="5" x1="127.5" x2="132.5" y1="35.0" y2="25.0" /><line stroke="gray" stroke-width="5" x1="122.5" x2="122.5" y1="35.0" y2="22.5" /><line stroke="gray" stroke-width="5" x1="122.5" x2="132.5" y1="22.5" y2="12.5" /><line stroke="gray" stroke-width="5" x1="132.5" x2="140.0" y1="25.0" y2="22.5" /><line stroke="gray" stroke-width="5" x1="140.0" x2="150.0" y1="22.5" y2="22.5" /><line stroke="gray" stroke-width="5" x1="132.5" x2="150.0" y1="12.5" y2="12.5" /><circle cx="132.5" cy="12.5" fill="gray" r="2.5" stroke="none" /><circle cx="140.0" cy="22.5" fill="gray" r="2.5" stroke="none" /><circle cx="122.5" cy="22.5" fill="gray" r="2.5" stroke="none" /><circle cx="132.5" cy="25.0" fill="gray" r="2.5" stroke="none" /><line stroke="gray" stroke-width="5" x1="187.5" x2="187.5" y1="55.0" y2="35.0" /><line stroke="gray" stroke-width="5" x1="187.5" x2="182.5" y1="45.0" y2="35.0" /><circle cx="187.5" cy="45.0" fill="white" r="2.5" /><line stroke="gray" stroke-width="5" x1="182.5" x2="177.5" y1="35.0" y2="25.0" /><line stroke="gray" stroke-width="5" x1="187.5" x2="187.5" y1="35.0" y2="22.5" /><line stroke="gray" stroke-width="5" x1="187.5" x2="177.5" y1="22.5" y2="12.5" /><line stroke="gray" stroke-width="5" x1="177.5" x2="170.0" y1="25.0" y2="22.5" /><line stroke="gray" stroke-width="5" x1="170.0" x2="160.0" y1="22.5" y2="22.5" /><line stroke="gray" stroke-width="5" x1="177.5" x2="160.0" y1="12.5" y2="12.5" /><circle cx="177.5" cy="12.5" fill="gray" r="2.5" stroke="none" /><circle cx="170.0" cy="22.5" fill="gray" r="2.5" stroke="none" /><circle cx="187.5" cy="22.5" fill="gray" r="2.5" stroke="none" /><circle cx="177.5" cy="25.0" fill="gray" r="2.5" stroke="none" /><line stroke="gray" stroke-width="5" x1="100.0" x2="120.0" y1="122.5" y2="122.5" /><line stroke="gray" stroke-width="5" x1="110.0" x2="120.0" y1="122.5" y2="127.5" /><circle cx="110.0" cy="122.5" fill="white" r="2.5" /><line stroke="gray" stroke-width="5" x1="120.0" x2="130.0" y1="127.5" y2="132.5" /><line stroke="gray" stroke-width="5" x1="120.0" x2="137.5" y1="122.5" y2="122.5" /><line stroke="gray" stroke-width="5" x1="137.5" x2="147.5" y1="122.5" y2="132.5" /><line stroke="gray" stroke-width="5" x1="130.0" x2="137.5" y1="132.5" y2="140.0" /><line stroke="gray" stroke-width="5" x1="137.5" x2="137.5" y1="140.0" y2="150.0" /><line stroke="gray" stroke-width="5" x1="147.5" x2="147.5" y1="132.5" y2="150.0" /><circle cx="147.5" cy="132.5" fill="gray" r="2.5" stroke="none" /><circle cx="137.5" cy="140.0" fill="gray" r="2.5" stroke="none" /><circle cx="137.5" cy="122.5" fill="gray" r="2.5" stroke="none" /><circle cx="130.0" cy="132.5" fill="gray" r="2.5" stroke="none" /><line stroke="gray" stroke-width="5" x1="100.0" x2="120.0" y1="187.5" y2="187.5" /><line stroke="gray" stroke-width="5" x1="110.0" x2="120.0" y1="187.5" y2="182.5" /><circle cx="110.0" cy="187.5" fill="white" r="2.5" /><line stroke="gray" stroke-width="5" x1="120.0" x2="130.0" y1="182.5" y2="177.5" /><line stroke="gray" stroke-width="5" x1="120.0" x2="137.5" y1="187.5" y2="187.5" /><line stroke="gray" stroke-width="5" x1="137.5" x2="147.5" y1="187.5" y2="177.5" /><line stroke="gray" stroke-width="5" x1="130.0" x2="137.5" y1="177.5" y2="165.0" /><line stroke="gray" stroke-width="5" x1="137.5" x2="137.5" y1="165.0" y2="155.0" /><line stroke="gray" stroke-width="5" x1="147.5" x2="147.5" y1="177.5" y2="155.0" /><circle cx="147.5" cy="177.5" fill="gray" r="2.5" stroke="none" /><circle cx="137.5" cy="165.0" fill="gray" r="2.5" stroke="none" /><circle cx="137.5" cy="187.5" fill="gray" r="2.5" stroke="none" /><circle cx="130.0" cy="177.5" fill="gray" r="2.5" stroke="none" /><line stroke="gray" stroke-width="5" x1="95.0" x2="75.0" y1="122.5" y2="122.5" /><line stroke="gray" stroke-width="5" x1="85.0" x2="75.0" y1="122.5" y2="127.5" /><circle cx="85.0" cy="122.5" fill="white" r="2.5" /><line stroke="gray" stroke-width="5" x1="75.0" x2="65.0" y1="127.5" y2="132.5" /><line stroke="gray" stroke-width="5" x1="75.0" x2="57.5" y1="122.5" y2="122.5" /><line stroke="gray" stroke-width="5" x1="57.5" x2="47.5" y1="122.5" y2="132.5" /><line stroke="gray" stroke-width="5" x1="65.0" x2="57.5" y1="132.5" y2="140.0" /><line stroke="gray" stroke-width="5" x1="57.5" x2="57.5" y1="140.0" y2="150.0" /><line stroke="gray" stroke-width="5" x1="47.5" x2="47.5" y1="132.5" y2="150.0" /><circle cx="47.5" cy="132.5" fill="gray" r="2.5" stroke="none" /><circle cx="57.5" cy="140.0" fill="gray" r="2.5" stroke="none" /><circle cx="57.5" cy="122.5" fill="gray" r="2.5" stroke="none" /><circle cx="65.0" cy="132.5" fill="gray" r="2.5" stroke="none" /><line stroke="gray" stroke-width="5" x1="95.0" x2="75.0" y1="187.5" y2="187.5" /><line stroke="gray" stroke-width="5" x1="85.0" x2="75.0" y1="187.5" y2="182.5" /><circle cx="85.0" cy="187.5" fill="white" r="2.5" /><line stroke="gray" stroke-width="5" x1="75.0" x2="65.0" y1="182.5" y2="177.5" /><line stroke="gray" stroke-width="5" x1="75.0" x2="57.5" y1="187.5" y2="187.5" /><line stroke="gray" stroke-width="5" x1="57.5" x2="47.5" y1="187.5" y2="177.5" /><line stroke="gray" stroke-width="5" x1="65.0" x2="57.5" y1="177.5" y2="165.0" /><line stroke="gray" stroke-width="5" x1="57.5" x2="57.5" y1="165.0" y2="155.0" /><line stroke="gray" stroke-width="5" x1="47.5" x2="47.5" y1="177.5" y2="155.0" /><circle cx="47.5" cy="177.5" fill="gray" r="2.5" stroke="none" /><circle cx="57.5" cy="165.0" fill="gray" r="2.5" stroke="none" /><circle cx="57.5" cy="187.5" fill="gray" r="2.5" stroke="none" /><circle cx="65.0" cy="177.5" fill="gray" r="2.5" stroke="none" /></g><g inkscape:groupmode="layer" inkscape:label="Cut" sodipodi:insensitive="1"><circle cx="122.5" cy="70.0" fill="none" r="2.5" stroke="red" stroke-width="0.2" /><rect fill="none" height="10" stroke="red" stroke-width="0.2" width="15" x="115.0" y="65.0" /><circle cx="127.5" cy="80.0" fill="none" r="1.5" stroke="red" stroke-width="0.2" /><circle cx="122.5" cy="80.0" fill="none" r="1.5" stroke="red" stroke-width="0.2" /><circle cx="187.5" cy="70.0" fill="none" r="2.5" stroke="red" stroke-width="0.2" /><rect fill="none" height="10" stroke="red" stroke-width="0.2" width="15" x="180.0" y="65.0" /><circle cx="182.5" cy="80.0" fill="none" r="1.5" stroke="red" stroke-width="0.2" /><circle cx="187.5" cy="80.0" fill="none" r="1.5" stroke="red" stroke-width="0.2" /><circle cx="122.5" cy="45.0" fill="none" r="2.5" stroke="red" stroke-width="0.2" /><rect fill="none" height="10" stroke="red" stroke-width="0.2" width="15" x="115.0" y="40.0" /><circle cx="127.5" cy="35.0" fill="none" r="1.5" stroke="red" stroke-width="0.2" /><circle cx="122.5" cy="35.0" fill="none" r="1.5" stroke="red" stroke-width="0.2" /><circle cx="187.5" cy="45.0" fill="none" r="2.5" stroke="red" stroke-width="0.2" /><rect fill="none" height="10" stroke="red" stroke-width="0.2" width="15" x="180.0" y="40.0" /><circle cx="182.5" cy="35.0" fill="none" r="1.5" stroke="red" stroke-width="0.2" /><circle cx="187.5" cy="35.0" fill="none" r="1.5" stroke="red" stroke-width="0.2" /><circle cx="110.0" cy="122.5" fill="none" r="2.5" stroke="red" stroke-width="0.2" /><rect fill="none" height="15" stroke="red" stroke-width="0.2" width="10" x="105.0" y="115.0" /><circle cx="120.0" cy="127.5" fill="none" r="1.5" stroke="red" stroke-width="0.2" /><circle cx="120.0" cy="122.5" fill="none" r="1.5" stroke="red" stroke-width="0.2" /><circle cx="110.0" cy="187.5" fill="none" r="2.5" stroke="red" stroke-width="0.2" /><rect fill="none" height="15" stroke="red" stroke-width="0.2" width="10" x="105.0" y="180.0" /><circle cx="120.0" cy="182.5" fill="none" r="1.5" stroke="red" stroke-width="0.2" /><circle cx="120.0" cy="187.5" fill="none" r="1.5" stroke="red" stroke-width="0.2" /><circle cx="85.0" cy="122.5" fill="none" r="2.5" stroke="red" stroke-width="0.2" /><rect fill="none" height="15" stroke="red" stroke-width="0.2" width="10" x="80.0" y="115.0" /><circle cx="75.0" cy="127.5" fill="none" r="1.5" stroke="red" stroke-width="0.2" /><circle cx="75.0" cy="122.5" fill="none" r="1.5" stroke="red" stroke-width="0.2" /><circle cx="85.0" cy="187.5" fill="none" r="2.5" stroke="red" stroke-width="0.2" /><rect fill="none" height="15" stroke="red" stroke-width="0.2" width="10" x="80.0" y="180.0" /><circle cx="75.0" cy="182.5" fill="none" r="1.5" stroke="red" stroke-width="0.2" /><circle cx="75.0" cy="187.5" fill="none" r="1.5" stroke="red" stroke-width="0.2" /></g><g inkscape:groupmode="layer" inkscape:label="Led" sodipodi:insensitive="1"><circle cx="52.5" cy="52.5" fill="yellow" r="0.5" stroke="red" stroke-width="0.2" /><circle cx="62.5" cy="52.5" fill="yellow" r="0.5" stroke="red" stroke-width="0.2" /><circle cx="52.5" cy="62.5" fill="yellow" r="0.5" stroke="red" stroke-width="0.2" /><circle cx="62.5" cy="62.5" fill="yellow" r="0.5" stroke="red" stroke-width="0.2" /><circle cx="52.5" cy="52.5" fill="yellow" r="0.5" stroke="red" stroke-width="0.2" /><circle cx="62.5" cy="52.5" fill="yellow" r="0.5" stroke="red" stroke-width="0.2" /><circle cx="52.5" cy="62.5" fill="yellow" r="0.5" stroke="red" stroke-width="0.2" /><circle cx="62.5" cy="62.5" fill="yellow" r="0.5" stroke="red" stroke-width="0.2" /><circle cx="52.5" cy="52.5" fill="yellow" r="0.5" stroke="red" stroke-width="0.2" /><circle cx="62.5" cy="52.5" fill="yellow" r="0.5" stroke="red" stroke-width="0.2" /><circle cx="52.5" cy="62.5" fill="yellow" r="0.5" stroke="red" stroke-width="0.2" /><circle cx="62.5" cy="62.5" fill="yellow" r="0.5" stroke="red" stroke-width="0.2" /><circle cx="52.5" cy="52.5" fill="yellow" r="0.5" stroke="red" stroke-width="0.2" /><circle cx="62.5" cy="52.5" fill="yellow" r="0.5" stroke="red" stroke-width="0.2" /><circle cx="52.5" cy="62.5" fill="yellow" r="0.5" stroke="red" stroke-width="0.2" /><circle cx="62.5" cy="62.5" fill="yellow" r="0.5" stroke="red" stroke-width="0.2" /><circle cx="122.5" cy="62.5" fill="yellow" r="0.5" stroke="red" stroke-width="0.2" /><circle cx="187.5" cy="62.5" fill="yellow" r="0.5" stroke="red" stroke-width="0.2" /><circle cx="122.5" cy="52.5" fill="yellow" r="0.5" stroke="red" stroke-width="0.2" /><circle cx="187.5" cy="52.5" fill="yellow" r="0.5" stroke="red" stroke-width="0.2" /><circle cx="102.5" cy="122.5" fill="yellow" r="0.5" stroke="red" stroke-width="0.2" /><circle cx="102.5" cy="187.5" fill="yellow" r="0.5" stroke="red" stroke-width="0.2" /><circle cx="92.5" cy="122.5" fill="yellow" r="0.5" stroke="red" stroke-width="0.2" /><circle cx="92.5" cy="187.5" fill="yellow" r="0.5" stroke="red" stroke-width="0.2" /><circle cx="127.5" cy="80.0" fill="green" r="1.5" /><circle cx="122.5" cy="80.0" fill="green" r="1.5" /><circle cx="182.5" cy="80.0" fill="green" r="1.5" /><circle cx="187.5" cy="80.0" fill="green" r="1.5" /><circle cx="127.5" cy="35.0" fill="green" r="1.5" /><circle cx="122.5" cy="35.0" fill="green" r="1.5" /><circle cx="182.5" cy="35.0" fill="green" r="1.5" /><circle cx="187.5" cy="35.0" fill="green" r="1.5" /><circle cx="120.0" cy="127.5" fill="green" r="1.5" /><circle cx="120.0" cy="122.5" fill="green" r="1.5" /><circle cx="120.0" cy="182.5" fill="green" r="1.5" /><circle cx="120.0" cy="187.5" fill="green" r="1.5" /><circle cx="75.0" cy="127.5" fill="green" r="1.5" /><circle cx="75.0" cy="122.5" fill="green" r="1.5" /><circle cx="75.0" cy="182.5" fill="green" r="1.5" /><circle cx="75.0" cy="187.5" fill="green" r="1.5" /></g></svg>