<?xml version="1.0" encoding="utf-8" ?>
<svg baseProfile="full" height="20.0cm" version="1.1" viewBox="0,0,200,200" width="20.0cm" xmlns="http://www.w3.org/2000/svg" xmlns:ev="http://www.w3.org/2001/xml-events" xmlns:inkscape="http://www.inkscape.org/namespaces/inkscape" xmlns:sodipodi="http://sodipodi.sourceforge.net/DTD/sodipodi-0.dtd" xmlns:xlink="http://www.w3.org/1999/xlink"><defs><pattern height="5" id="id5" patternUnits="userSpaceOnUse" width="5"><path d="M 5 0 L 0 0 0 5" fill="none" stroke="rgb(0%,0%,100%)" stroke-width="0.1" /></pattern><pattern height="20" id="id6" patternUnits="userSpaceOnUse" width="20"><rect fill="url(#id5) none" height="20" width="20" x="0" y="0" /><path d="M 20 0 L 0 0 0 20" fill="none" stroke="rgb(0%,0%,100%)" stroke-width="0.2" /></pattern></defs><g inkscape:groupmode="layer" inkscape:label="Grid" sodipodi:insensitive="1"><rect fill="white" height="200" width="200" x="0" y="0" /><rect fill="url(#id6) none" height="200" width="200" x="0" y="0" /></g><g inkscape:groupmode="layer" inkscape:label="Track" sodipodi:insensitive="1"><polyline fill="gray" points="35.5,52.5 35.5,55 39.5,55 39.5,52.5 35.5,52.5" stroke="none" /><polyline fill="gray" points="51.08578643762691,36.08578643762691 36.08578643762691,51.08578643762691 38.91421356237309,53.91421356237309 53.91421356237309,38.91421356237309 51.08578643762691,36.08578643762691" stroke="none" /><polyline fill="gray" points="55,35.5 52.5,35.5 52.5,39.5 55,39.5 55,35.5" stroke="none" /><circle cx="37.5" cy="52.5" fill="gray" r="2.0" stroke="none" /><circle cx="52.5" cy="37.5" fill="gray" r="2.0" stroke="none" /><polyline fill="gray" points="75.5,52.5 75.5,55 79.5,55 79.5,52.5 75.5,52.5" stroke="none" /><polyline fill="gray" points="61.08578643762691,38.91421356237309 76.08578643762691,53.91421356237309 78.91421356237309,51.08578643762691 63.91421356237309,36.08578643762691 61.08578643762691,38.91421356237309" stroke="none" /><polyline fill="gray" points="60,35.5 62.5,35.5 62.5,39.5 60,39.5 60,35.5" stroke="none" /><circle cx="77.5" cy="52.5" fill="gray" r="2.0" stroke="none" /><circle cx="62.5" cy="37.5" fill="gray" r="2.0" stroke="none" /><polyline fill="gray" points="35.5,62.5 35.5,60 39.5,60 39.5,62.5 35.5,62.5" stroke="none" /><polyline fill="gray" points="53.91421356237309,76.08578643762691 38.91421356237309,61.08578643762691 36.08578643762691,63.91421356237309 51.08578643762691,78.91421356237309 53.91421356237309,76.08578643762691" stroke="none" /><polyline fill="gray" points="55,75.5 52.5,75.5 52.5,79.5 55,79.5 55,75.5" stroke="none" /><circle cx="37.5" cy="62.5" fill="gray" r="2.0" stroke="none" /><circle cx="52.5" cy="77.5" fill="gray" r="2.0" stroke="none" /><polyline fill="gray" points="75.5,62.5 75.5,60 79.5,60 79.5,62.5 75.5,62.5" stroke="none" /><polyline fill="gray" points="63.91421356237309,78.91421356237309 78.91421356237309,63.91421356237309 76.08578643762691,61.08578643762691 61.08578643762691,76.08578643762691 63.91421356237309,78.91421356237309" stroke="none" /><polyline fill="gray" points="60,75.5 62.5,75.5 62.5,79.5 60,79.5 60,75.5" stroke="none" /><circle cx="77.5" cy="62.5" fill="gray" r="2.0" stroke="none" /><circle cx="62.5" cy="77.5" fill="gray" r="2.0" stroke="none" /><polyline fill="gray" points="25.5,42.5 25.5,55 29.5,55 29.5,42.5 25.5,42.5" stroke="none" /><polyline fill="gray" points="41.08578643762691,26.085786437626904 26.085786437626904,41.08578643762691 28.914213562373096,43.91421356237309 43.91421356237309,28.914213562373096 41.08578643762691,26.085786437626904" stroke="none" /><polyline fill="gray" points="55,25.5 42.5,25.5 42.5,29.5 55,29.5 55,25.5" stroke="none" /><circle cx="27.5" cy="42.5" fill="gray" r="2.0" stroke="none" /><circle cx="42.5" cy="27.5" fill="gray" r="2.0" stroke="none" /><polyline fill="gray" points="85.5,42.5 85.5,55 89.5,55 89.5,42.5 85.5,42.5" stroke="none" /><polyline fill="gray" points="71.08578643762691,28.914213562373096 86.08578643762691,43.91421356237309 88.91421356237309,41.08578643762691 73.91421356237309,26.085786437626904 71.08578643762691,28.914213562373096" stroke="none" /><polyline fill="gray" points="60,25.5 72.5,25.5 72.5,29.5 60,29.5 60,25.5" stroke="none" /><circle cx="87.5" cy="42.5" fill="gray" r="2.0" stroke="none" /><circle cx="72.5" cy="27.5" fill="gray" r="2.0" stroke="none" /><polyline fill="gray" points="25.5,72.5 25.5,60 29.5,60 29.5,72.5 25.5,72.5" stroke="none" /><polyline fill="gray" points="43.91421356237309,86.08578643762691 28.914213562373096,71.08578643762691 26.085786437626904,73.91421356237309 41.08578643762691,88.91421356237309 43.91421356237309,86.08578643762691" stroke="none" /><polyline fill="gray" points="55,85.5 42.5,85.5 42.5,89.5 55,89.5 55,85.5" stroke="none" /><circle cx="27.5" cy="72.5" fill="gray" r="2.0" stroke="none" /><circle cx="42.5" cy="87.5" fill="gray" r="2.0" stroke="none" /><polyline fill="gray" points="85.5,72.5 85.5,60 89.5,60 89.5,72.5 85.5,72.5" stroke="none" /><polyline fill="gray" points="73.91421356237309,88.91421356237309 88.91421356237309,73.91421356237309 86.08578643762691,71.08578643762691 71.08578643762691,86.08578643762691 73.91421356237309,88.91421356237309" stroke="none" /><polyline fill="gray" points="60,85.5 72.5,85.5 72.5,89.5 60,89.5 60,85.5" stroke="none" /><circle cx="87.5" cy="72.5" fill="gray" r="2.0" stroke="none" /><circle cx="72.5" cy="87.5" fill="gray" r="2.0" stroke="none" /><polyline fill="gray" points="15.5,32.5 15.5,55 19.5,55 19.5,32.5 15.5,32.5" stroke="none" /><polyline fill="gray" points="31.085786437626904,16.085786437626904 16.085786437626904,31.085786437626904 18.914213562373096,33.91421356237309 33.91421356237309,18.914213562373096 31.085786437626904,16.085786437626904" stroke="none" /><polyline fill="gray" points="55,15.5 32.5,15.5 32.5,19.5 55,19.5 55,15.5" stroke="none" /><circle cx="17.5" cy="32.5" fill="gray" r="2.0" stroke="none" /><circle cx="32.5" cy="17.5" fill="gray" r="2.0" stroke="none" /><polyline fill="gray" points="95.5,32.5 95.5,55 99.5,55 99.5,32.5 95.5,32.5" stroke="none" /><polyline fill="gray" points="81.08578643762691,18.914213562373096 96.08578643762691,33.91421356237309 98.91421356237309,31.085786437626904 83.91421356237309,16.085786437626904 81.08578643762691,18.914213562373096" stroke="none" /><polyline fill="gray" points="60,15.5 82.5,15.5 82.5,19.5 60,19.5 60,15.5" stroke="none" /><circle cx="97.5" cy="32.5" fill="gray" r="2.0" stroke="none" /><circle cx="82.5" cy="17.5" fill="gray" r="2.0" stroke="none" /><polyline fill="gray" points="15.5,82.5 15.5,60 19.5,60 19.5,82.5 15.5,82.5" stroke="none" /><polyline fill="gray" points="33.91421356237309,96.08578643762691 18.914213562373096,81.08578643762691 16.085786437626904,83.91421356237309 31.085786437626904,98.91421356237309 33.91421356237309,96.08578643762691" stroke="none" /><polyline fill="gray" points="55,95.5 32.5,95.5 32.5,99.5 55,99.5 55,95.5" stroke="none" /><circle cx="17.5" cy="82.5" fill="gray" r="2.0" stroke="none" /><circle cx="32.5" cy="97.5" fill="gray" r="2.0" stroke="none" /><polyline fill="gray" points="95.5,82.5 95.5,60 99.5,60 99.5,82.5 95.5,82.5" stroke="none" /><polyline fill="gray" points="83.91421356237309,98.91421356237309 98.91421356237309,83.91421356237309 96.08578643762691,81.08578643762691 81.08578643762691,96.08578643762691 83.91421356237309,98.91421356237309" stroke="none" /><polyline fill="gray" points="60,95.5 82.5,95.5 82.5,99.5 60,99.5 60,95.5" stroke="none" /><circle cx="97.5" cy="82.5" fill="gray" r="2.0" stroke="none" /><circle cx="82.5" cy="97.5" fill="gray" r="2.0" stroke="none" /><polyline fill="gray" points="5.5,22.5 5.5,55 9.5,55 9.5,22.5 5.5,22.5" stroke="none" /><polyline fill="gray" points="21.085786437626904,6.085786437626905 6.085786437626905,21.085786437626904 8.914213562373096,23.914213562373096 23.914213562373096,8.914213562373096 21.085786437626904,6.085786437626905" stroke="none" /><polyline fill="gray" points="55,5.5 22.5,5.5 22.5,9.5 55,9.5 55,5.5" stroke="none" /><circle cx="7.5" cy="22.5" fill="gray" r="2.0" stroke="none" /><circle cx="22.5" cy="7.5" fill="gray" r="2.0" stroke="none" /><polyline fill="gray" points="105.5,22.5 105.5,55 109.5,55 109.5,22.5 105.5,22.5" stroke="none" /><polyline fill="gray" points="91.08578643762691,8.914213562373096 106.08578643762691,23.914213562373096 108.91421356237309,21.085786437626904 93.91421356237309,6.085786437626905 91.08578643762691,8.914213562373096" stroke="none" /><polyline fill="gray" points="60,5.5 92.5,5.5 92.5,9.5 60,9.5 60,5.5" stroke="none" /><circle cx="107.5" cy="22.5" fill="gray" r="2.0" stroke="none" /><circle cx="92.5" cy="7.5" fill="gray" r="2.0" stroke="none" /><polyline fill="gray" points="5.5,92.5 5.5,60 9.5,60 9.5,92.5 5.5,92.5" stroke="none" /><polyline fill="gray" points="23.914213562373096,106.08578643762691 8.914213562373096,91.08578643762691 6.085786437626905,93.91421356237309 21.085786437626904,108.91421356237309 23.914213562373096,106.08578643762691" stroke="none" /><polyline fill="gray" points="55,105.5 22.5,105.5 22.5,109.5 55,109.5 55,105.5" stroke="none" /><circle cx="7.5" cy="92.5" fill="gray" r="2.0" stroke="none" /><circle cx="22.5" cy="107.5" fill="gray" r="2.0" stroke="none" /><polyline fill="gray" points="105.5,92.5 105.5,60 109.5,60 109.5,92.5 105.5,92.5" stroke="none" /><polyline fill="gray" points="93.91421356237309,108.91421356237309 108.91421356237309,93.91421356237309 106.08578643762691,91.08578643762691 91.08578643762691,106.08578643762691 93.91421356237309,108.91421356237309" stroke="none" /><polyline fill="gray" points="60,105.5 92.5,105.5 92.5,109.5 60,109.5 60,105.5" stroke="none" /><circle cx="107.5" cy="92.5" fill="gray" r="2.0" stroke="none" /><circle cx="92.5" cy="107.5" fill="gray" r="2.0" stroke="none" /><polyline fill="gray" points="129.28885438199984,79.10557280900008 124.28885438199983,69.10557280900008 120.71114561800017,70.89442719099992 125.71114561800017,80.89442719099992 129.28885438199984,79.10557280900008" stroke="none" /><polyline fill="gray" points="120.5,80 120.5,60 124.5,60 124.5,80 120.5,80" stroke="none" /><circle cx="122.5" cy="70" fill="white" r="3.0" /><circle cx="122.5" cy="80" fill="white" r="1.5" stroke="none" stroke-width="0.2" /><circle cx="127.5" cy="80" fill="white" r="1.5" stroke="none" stroke-width="0.2" /><circle cx="132.5" cy="107.5" fill="gray" r="2.0" stroke="none" /><circle cx="140" cy="97.5" fill="gray" r="2.0" stroke="none" /><circle cx="122.5" cy="97.5" fill="gray" r="2.0" stroke="none" /><circle cx="132.5" cy="90" fill="gray" r="2.0" stroke="none" /><polyline fill="gray" points="134.28885438199984,89.10557280900008 129.28885438199984,79.10557280900008 125.71114561800017,80.89442719099992 130.71114561800016,90.89442719099992 134.28885438199984,89.10557280900008" stroke="none" /><polyline fill="gray" points="141.4142135623731,96.08578643762691 133.9142135623731,88.58578643762691 131.0857864376269,91.41421356237309 138.5857864376269,98.91421356237309 141.4142135623731,96.08578643762691" stroke="none" /><polyline fill="gray" points="150,95.5 140,95.5 140,99.5 150,99.5 150,95.5" stroke="none" /><polyline fill="gray" points="120.5,97.5 120.5,80 124.5,80 124.5,97.5 120.5,97.5" stroke="none" /><polyline fill="gray" points="133.9142135623731,106.08578643762691 123.91421356237309,96.08578643762691 121.08578643762691,98.91421356237309 131.0857864376269,108.91421356237309 133.9142135623731,106.08578643762691" stroke="none" /><polyline fill="gray" points="150,105.5 132.5,105.5 132.5,109.5 150,109.5 150,105.5" stroke="none" /><polyline fill="gray" points="184.28885438199984,80.89442719099992 189.28885438199984,70.89442719099992 185.71114561800016,69.10557280900008 180.71114561800016,79.10557280900008 184.28885438199984,80.89442719099992" stroke="none" /><polyline fill="gray" points="185.5,80 185.5,60 189.5,60 189.5,80 185.5,80" stroke="none" /><circle cx="187.5" cy="70" fill="white" r="3.0" /><circle cx="187.5" cy="80" fill="white" r="1.5" stroke="none" stroke-width="0.2" /><circle cx="182.5" cy="80" fill="white" r="1.5" stroke="none" stroke-width="0.2" /><circle cx="177.5" cy="107.5" fill="gray" r="2.0" stroke="none" /><circle cx="170" cy="97.5" fill="gray" r="2.0" stroke="none" /><circle cx="187.5" cy="97.5" fill="gray" r="2.0" stroke="none" /><circle cx="177.5" cy="90" fill="gray" r="2.0" stroke="none" /><polyline fill="gray" points="179.28885438199984,90.89442719099992 184.28885438199984,80.89442719099992 180.71114561800016,79.10557280900008 175.71114561800016,89.10557280900008 179.28885438199984,90.89442719099992" stroke="none" /><polyline fill="gray" points="171.4142135623731,98.91421356237309 178.9142135623731,91.41421356237309 176.0857864376269,88.58578643762691 168.5857864376269,96.08578643762691 171.4142135623731,98.91421356237309" stroke="none" /><polyline fill="gray" points="160,95.5 170,95.5 170,99.5 160,99.5 160,95.5" stroke="none" /><polyline fill="gray" points="185.5,97.5 185.5,80 189.5,80 189.5,97.5 185.5,97.5" stroke="none" /><polyline fill="gray" points="178.9142135623731,108.91421356237309 188.9142135623731,98.91421356237309 186.0857864376269,96.08578643762691 176.0857864376269,106.08578643762691 178.9142135623731,108.91421356237309" stroke="none" /><polyline fill="gray" points="160,105.5 177.5,105.5 177.5,109.5 160,109.5 160,105.5" stroke="none" /><polyline fill="gray" points="125.71114561800017,34.10557280900009 120.71114561800017,44.10557280900009 124.28885438199983,45.89442719099991 129.28885438199984,35.89442719099991 125.71114561800017,34.10557280900009" stroke="none" /><polyline fill="gray" points="120.5,35 120.5,55 124.5,55 124.5,35 120.5,35" stroke="none" /><circle cx="122.5" cy="45" fill="white" r="3.0" /><circle cx="122.5" cy="35" fill="white" r="1.5" stroke="none" stroke-width="0.2" /><circle cx="127.5" cy="35" fill="white" r="1.5" stroke="none" stroke-width="0.2" /><circle cx="132.5" cy="12.5" fill="gray" r="2.0" stroke="none" /><circle cx="140" cy="22.5" fill="gray" r="2.0" stroke="none" /><circle cx="122.5" cy="22.5" fill="gray" r="2.0" stroke="none" /><circle cx="132.5" cy="25" fill="gray" r="2.0" stroke="none" /><polyline fill="gray" points="130.71114561800016,24.105572809000083 125.71114561800017,34.10557280900009 129.28885438199984,35.89442719099991 134.28885438199984,25.894427190999917 130.71114561800016,24.105572809000083" stroke="none" /><polyline fill="gray" points="139.36754446796633,20.602633403898974 131.86754446796633,23.102633403898974 133.13245553203367,26.897366596101026 140.63245553203367,24.397366596101026 139.36754446796633,20.602633403898974" stroke="none" /><polyline fill="gray" points="150,20.5 140,20.5 140,24.5 150,24.5 150,20.5" stroke="none" /><polyline fill="gray" points="120.5,22.5 120.5,35 124.5,35 124.5,22.5 120.5,22.5" stroke="none" /><polyline fill="gray" points="131.0857864376269,11.085786437626904 121.08578643762691,21.085786437626904 123.91421356237309,23.914213562373096 133.9142135623731,13.914213562373096 131.0857864376269,11.085786437626904" stroke="none" /><polyline fill="gray" points="150,10.5 132.5,10.5 132.5,14.5 150,14.5 150,10.5" stroke="none" /><polyline fill="gray" points="180.71114561800016,35.89442719099991 185.71114561800016,45.89442719099991 189.28885438199984,44.10557280900009 184.28885438199984,34.10557280900009 180.71114561800016,35.89442719099991" stroke="none" /><polyline fill="gray" points="185.5,35 185.5,55 189.5,55 189.5,35 185.5,35" stroke="none" /><circle cx="187.5" cy="45" fill="white" r="3.0" /><circle cx="187.5" cy="35" fill="white" r="1.5" stroke="none" stroke-width="0.2" /><circle cx="182.5" cy="35" fill="white" r="1.5" stroke="none" stroke-width="0.2" /><circle cx="177.5" cy="12.5" fill="gray" r="2.0" stroke="none" /><circle cx="170" cy="22.5" fill="gray" r="2.0" stroke="none" /><circle cx="187.5" cy="22.5" fill="gray" r="2.0" stroke="none" /><circle cx="177.5" cy="25" fill="gray" r="2.0" stroke="none" /><polyline fill="gray" points="175.71114561800016,25.894427190999917 180.71114561800016,35.89442719099991 184.28885438199984,34.10557280900009 179.28885438199984,24.105572809000083 175.71114561800016,25.894427190999917" stroke="none" /><polyline fill="gray" points="169.36754446796633,24.397366596101026 176.86754446796633,26.897366596101026 178.13245553203367,23.102633403898974 170.63245553203367,20.602633403898974 169.36754446796633,24.397366596101026" stroke="none" /><polyline fill="gray" points="160,20.5 170,20.5 170,24.5 160,24.5 160,20.5" stroke="none" /><polyline fill="gray" points="185.5,22.5 185.5,35 189.5,35 189.5,22.5 185.5,22.5" stroke="none" /><polyline fill="gray" points="176.0857864376269,13.914213562373096 186.0857864376269,23.914213562373096 188.9142135623731,21.085786437626904 178.9142135623731,11.085786437626904 176.0857864376269,13.914213562373096" stroke="none" /><polyline fill="gray" points="160,10.5 177.5,10.5 177.5,14.5 160,14.5 160,10.5" stroke="none" /><polyline fill="gray" points="120.89442719099992,125.71114561800017 110.89442719099992,120.71114561800017 109.10557280900008,124.28885438199983 119.10557280900008,129.28885438199984 120.89442719099992,125.71114561800017" stroke="none" /><polyline fill="gray" points="120,120.5 100,120.5 100,124.5 120,124.5 120,120.5" stroke="none" /><circle cx="110" cy="122.5" fill="white" r="3.0" /><circle cx="120" cy="122.5" fill="white" r="1.5" stroke="none" stroke-width="0.2" /><circle cx="120" cy="127.5" fill="white" r="1.5" stroke="none" stroke-width="0.2" /><circle cx="147.5" cy="132.5" fill="gray" r="2.0" stroke="none" /><circle cx="137.5" cy="140" fill="gray" r="2.0" stroke="none" /><circle cx="137.5" cy="122.5" fill="gray" r="2.0" stroke="none" /><circle cx="130" cy="132.5" fill="gray" r="2.0" stroke="none" /><polyline fill="gray" points="130.89442719099992,130.71114561800016 120.89442719099992,125.71114561800017 119.10557280900008,129.28885438199984 129.10557280900008,134.28885438199984 130.89442719099992,130.71114561800016" stroke="none" /><polyline fill="gray" points="138.9142135623731,138.5857864376269 131.4142135623731,131.0857864376269 128.5857864376269,133.9142135623731 136.0857864376269,141.4142135623731 138.9142135623731,138.5857864376269" stroke="none" /><polyline fill="gray" points="135.5,150 135.5,140 139.5,140 139.5,150 135.5,150" stroke="none" /><polyline fill="gray" points="137.5,120.5 120,120.5 120,124.5 137.5,124.5 137.5,120.5" stroke="none" /><polyline fill="gray" points="148.9142135623731,131.0857864376269 138.9142135623731,121.08578643762691 136.0857864376269,123.91421356237309 146.0857864376269,133.9142135623731 148.9142135623731,131.0857864376269" stroke="none" /><polyline fill="gray" points="145.5,150 145.5,132.5 149.5,132.5 149.5,150 145.5,150" stroke="none" /><polyline fill="gray" points="119.10557280900008,180.71114561800016 109.10557280900008,185.71114561800016 110.89442719099992,189.28885438199984 120.89442719099992,184.28885438199984 119.10557280900008,180.71114561800016" stroke="none" /><polyline fill="gray" points="120,185.5 100,185.5 100,189.5 120,189.5 120,185.5" stroke="none" /><circle cx="110" cy="187.5" fill="white" r="3.0" /><circle cx="120" cy="187.5" fill="white" r="1.5" stroke="none" stroke-width="0.2" /><circle cx="120" cy="182.5" fill="white" r="1.5" stroke="none" stroke-width="0.2" /><circle cx="147.5" cy="177.5" fill="gray" r="2.0" stroke="none" /><circle cx="137.5" cy="165" fill="gray" r="2.0" stroke="none" /><circle cx="137.5" cy="187.5" fill="gray" r="2.0" stroke="none" /><circle cx="130" cy="177.5" fill="gray" r="2.0" stroke="none" /><polyline fill="gray" points="129.10557280900008,175.71114561800016 119.10557280900008,180.71114561800016 120.89442719099992,184.28885438199984 130.89442719099992,179.28885438199984 129.10557280900008,175.71114561800016" stroke="none" /><polyline fill="gray" points="135.7850141485749,163.97100848914494 128.2850141485749,176.47100848914494 131.7149858514251,178.52899151085506 139.2149858514251,166.02899151085506 135.7850141485749,163.97100848914494" stroke="none" /><polyline fill="gray" points="135.5,155 135.5,165 139.5,165 139.5,155 135.5,155" stroke="none" /><polyline fill="gray" points="137.5,185.5 120,185.5 120,189.5 137.5,189.5 137.5,185.5" stroke="none" /><polyline fill="gray" points="146.0857864376269,176.0857864376269 136.0857864376269,186.0857864376269 138.9142135623731,188.9142135623731 148.9142135623731,178.9142135623731 146.0857864376269,176.0857864376269" stroke="none" /><polyline fill="gray" points="145.5,155 145.5,177.5 149.5,177.5 149.5,155 145.5,155" stroke="none" /><polyline fill="gray" points="75.89442719099992,129.28885438199984 85.89442719099992,124.28885438199983 84.10557280900008,120.71114561800017 74.10557280900008,125.71114561800017 75.89442719099992,129.28885438199984" stroke="none" /><polyline fill="gray" points="75,120.5 95,120.5 95,124.5 75,124.5 75,120.5" stroke="none" /><circle cx="85" cy="122.5" fill="white" r="3.0" /><circle cx="75" cy="122.5" fill="white" r="1.5" stroke="none" stroke-width="0.2" /><circle cx="75" cy="127.5" fill="white" r="1.5" stroke="none" stroke-width="0.2" /><circle cx="47.5" cy="132.5" fill="gray" r="2.0" stroke="none" /><circle cx="57.5" cy="140" fill="gray" r="2.0" stroke="none" /><circle cx="57.5" cy="122.5" fill="gray" r="2.0" stroke="none" /><circle cx="65" cy="132.5" fill="gray" r="2.0" stroke="none" /><polyline fill="gray" points="65.89442719099992,134.28885438199984 75.89442719099992,129.28885438199984 74.10557280900008,125.71114561800017 64.10557280900008,130.71114561800016 65.89442719099992,134.28885438199984" stroke="none" /><polyline fill="gray" points="58.91421356237309,141.4142135623731 66.41421356237309,133.9142135623731 63.58578643762691,131.0857864376269 56.08578643762691,138.5857864376269 58.91421356237309,141.4142135623731" stroke="none" /><polyline fill="gray" points="55.5,150 55.5,140 59.5,140 59.5,150 55.5,150" stroke="none" /><polyline fill="gray" points="57.5,120.5 75,120.5 75,124.5 57.5,124.5 57.5,120.5" stroke="none" /><polyline fill="gray" points="48.91421356237309,133.9142135623731 58.91421356237309,123.91421356237309 56.08578643762691,121.08578643762691 46.08578643762691,131.0857864376269 48.91421356237309,133.9142135623731" stroke="none" /><polyline fill="gray" points="45.5,150 45.5,132.5 49.5,132.5 49.5,150 45.5,150" stroke="none" /><polyline fill="gray" points="74.10557280900008,184.28885438199984 84.10557280900008,189.28885438199984 85.89442719099992,185.71114561800016 75.89442719099992,180.71114561800016 74.10557280900008,184.28885438199984" stroke="none" /><polyline fill="gray" points="75,185.5 95,185.5 95,189.5 75,189.5 75,185.5" stroke="none" /><circle cx="85" cy="187.5" fill="white" r="3.0" /><circle cx="75" cy="187.5" fill="white" r="1.5" stroke="none" stroke-width="0.2" /><circle cx="75" cy="182.5" fill="white" r="1.5" stroke="none" stroke-width="0.2" /><circle cx="47.5" cy="177.5" fill="gray" r="2.0" stroke="none" /><circle cx="57.5" cy="165" fill="gray" r="2.0" stroke="none" /><circle cx="57.5" cy="187.5" fill="gray" r="2.0" stroke="none" /><circle cx="65" cy="177.5" fill="gray" r="2.0" stroke="none" /><polyline fill="gray" points="64.10557280900008,179.28885438199984 74.10557280900008,184.28885438199984 75.89442719099992,180.71114561800016 65.89442719099992,175.71114561800016 64.10557280900008,179.28885438199984" stroke="none" /><polyline fill="gray" points="55.78501414857491,166.02899151085506 63.28501414857491,178.52899151085506 66.71498585142508,176.47100848914494 59.21498585142509,163.97100848914494 55.78501414857491,166.02899151085506" stroke="none" /><polyline fill="gray" points="55.5,155 55.5,165 59.5,165 59.5,155 55.5,155" stroke="none" /><polyline fill="gray" points="57.5,185.5 75,185.5 75,189.5 57.5,189.5 57.5,185.5" stroke="none" /><polyline fill="gray" points="46.08578643762691,178.9142135623731 56.08578643762691,188.9142135623731 58.91421356237309,186.0857864376269 48.91421356237309,176.0857864376269 46.08578643762691,178.9142135623731" stroke="none" /><polyline fill="gray" points="45.5,155 45.5,177.5 49.5,177.5 49.5,155 45.5,155" stroke="none" /></g><g inkscape:groupmode="layer" inkscape:label="Cut" sodipodi:insensitive="1"><circle cx="122.5" cy="70" fill="none" r="3.0" stroke="red" stroke-width="0.2" /><circle cx="122.5" cy="70" fill="none" r="6.0" stroke="blue" stroke-width="0.2" /><rect fill="none" height="10" stroke="blue" stroke-width="0.2" width="15" x="115.0" y="65" /><circle cx="122.5" cy="80" fill="none" r="1.5" stroke="red" stroke-width="0.2" /><circle cx="122.5" cy="80" fill="none" r="2.0" stroke="blue" stroke-width="0.2" /><circle cx="127.5" cy="80" fill="none" r="1.5" stroke="red" stroke-width="0.2" /><circle cx="127.5" cy="80" fill="none" r="2.0" stroke="blue" stroke-width="0.2" /><circle cx="187.5" cy="70" fill="none" r="3.0" stroke="red" stroke-width="0.2" /><circle cx="187.5" cy="70" fill="none" r="6.0" stroke="blue" stroke-width="0.2" /><rect fill="none" height="10" stroke="blue" stroke-width="0.2" width="15" x="180.0" y="65" /><circle cx="187.5" cy="80" fill="none" r="1.5" stroke="red" stroke-width="0.2" /><circle cx="187.5" cy="80" fill="none" r="2.0" stroke="blue" stroke-width="0.2" /><circle cx="182.5" cy="80" fill="none" r="1.5" stroke="red" stroke-width="0.2" /><circle cx="182.5" cy="80" fill="none" r="2.0" stroke="blue" stroke-width="0.2" /><circle cx="122.5" cy="45" fill="none" r="3.0" stroke="red" stroke-width="0.2" /><circle cx="122.5" cy="45" fill="none" r="6.0" stroke="blue" stroke-width="0.2" /><rect fill="none" height="10" stroke="blue" stroke-width="0.2" width="15" x="115.0" y="40" /><circle cx="122.5" cy="35" fill="none" r="1.5" stroke="red" stroke-width="0.2" /><circle cx="122.5" cy="35" fill="none" r="2.0" stroke="blue" stroke-width="0.2" /><circle cx="127.5" cy="35" fill="none" r="1.5" stroke="red" stroke-width="0.2" /><circle cx="127.5" cy="35" fill="none" r="2.0" stroke="blue" stroke-width="0.2" /><circle cx="187.5" cy="45" fill="none" r="3.0" stroke="red" stroke-width="0.2" /><circle cx="187.5" cy="45" fill="none" r="6.0" stroke="blue" stroke-width="0.2" /><rect fill="none" height="10" stroke="blue" stroke-width="0.2" width="15" x="180.0" y="40" /><circle cx="187.5" cy="35" fill="none" r="1.5" stroke="red" stroke-width="0.2" /><circle cx="187.5" cy="35" fill="none" r="2.0" stroke="blue" stroke-width="0.2" /><circle cx="182.5" cy="35" fill="none" r="1.5" stroke="red" stroke-width="0.2" /><circle cx="182.5" cy="35" fill="none" r="2.0" stroke="blue" stroke-width="0.2" /><circle cx="110" cy="122.5" fill="none" r="3.0" stroke="red" stroke-width="0.2" /><circle cx="110" cy="122.5" fill="none" r="6.0" stroke="blue" stroke-width="0.2" /><rect fill="none" height="15" stroke="blue" stroke-width="0.2" width="10" x="105" y="115.0" /><circle cx="120" cy="122.5" fill="none" r="1.5" stroke="red" stroke-width="0.2" /><circle cx="120" cy="122.5" fill="none" r="2.0" stroke="blue" stroke-width="0.2" /><circle cx="120" cy="127.5" fill="none" r="1.5" stroke="red" stroke-width="0.2" /><circle cx="120" cy="127.5" fill="none" r="2.0" stroke="blue" stroke-width="0.2" /><circle cx="110" cy="187.5" fill="none" r="3.0" stroke="red" stroke-width="0.2" /><circle cx="110" cy="187.5" fill="none" r="6.0" stroke="blue" stroke-width="0.2" /><rect fill="none" height="15" stroke="blue" stroke-width="0.2" width="10" x="105" y="180.0" /><circle cx="120" cy="187.5" fill="none" r="1.5" stroke="red" stroke-width="0.2" /><circle cx="120" cy="187.5" fill="none" r="2.0" stroke="blue" stroke-width="0.2" /><circle cx="120" cy="182.5" fill="none" r="1.5" stroke="red" stroke-width="0.2" /><circle cx="120" cy="182.5" fill="none" r="2.0" stroke="blue" stroke-width="0.2" /><circle cx="85" cy="122.5" fill="none" r="3.0" stroke="red" stroke-width="0.2" /><circle cx="85" cy="122.5" fill="none" r="6.0" stroke="blue" stroke-width="0.2" /><rect fill="none" height="15" stroke="blue" stroke-width="0.2" width="10" x="80" y="115.0" /><circle cx="75" cy="122.5" fill="none" r="1.5" stroke="red" stroke-width="0.2" /><circle cx="75" cy="122.5" fill="none" r="2.0" stroke="blue" stroke-width="0.2" /><circle cx="75" cy="127.5" fill="none" r="1.5" stroke="red" stroke-width="0.2" /><circle cx="75" cy="127.5" fill="none" r="2.0" stroke="blue" stroke-width="0.2" /><circle cx="85" cy="187.5" fill="none" r="3.0" stroke="red" stroke-width="0.2" /><circle cx="85" cy="187.5" fill="none" r="6.0" stroke="blue" stroke-width="0.2" /><rect fill="none" height="15" stroke="blue" stroke-width="0.2" width="10" x="80" y="180.0" /><circle cx="75" cy="187.5" fill="none" r="1.5" stroke="red" stroke-width="0.2" /><circle cx="75" cy="187.5" fill="none" r="2.0" stroke="blue" stroke-width="0.2" /><circle cx="75" cy="182.5" fill="none" r="1.5" stroke="red" stroke-width="0.2" /><circle cx="75" cy="182.5" fill="none" r="2.0" stroke="blue" stroke-width="0.2" /></g><g inkscape:groupmode="layer" inkscape:label="Led" sodipodi:insensitive="1"><circle cx="52.5" cy="52.5" fill="yellow" r="0.5" stroke="red" stroke-width="0.2" /><circle cx="62.5" cy="52.5" fill="yellow" r="0.5" stroke="red" stroke-width="0.2" /><circle cx="52.5" cy="62.5" fill="yellow" r="0.5" stroke="red" stroke-width="0.2" /><circle cx="62.5" cy="62.5" fill="yellow" r="0.5" stroke="red" stroke-width="0.2" /><circle cx="52.5" cy="52.5" fill="yellow" r="0.5" stroke="red" stroke-width="0.2" /><circle cx="62.5" cy="52.5" fill="yellow" r="0.5" stroke="red" stroke-width="0.2" /><circle cx="52.5" cy="62.5" fill="yellow" r="0.5" stroke="red" stroke-width="0.2" /><circle cx="62.5" cy="62.5" fill="yellow" r="0.5" stroke="red" stroke-width="0.2" /><circle cx="52.5" cy="52.5" fill="yellow" r="0.5" stroke="red" stroke-width="0.2" /><circle cx="62.5" cy="52.5" fill="yellow" r="0.5" stroke="red" stroke-width="0.2" /><circle cx="52.5" cy="62.5" fill="yellow" r="0.5" stroke="red" stroke-width="0.2" /><circle cx="62.5" cy="62.5" fill="yellow" r="0.5" stroke="red" stroke-width="0.2" /><circle cx="52.5" cy="52.5" fill="yellow" r="0.5" stroke="red" stroke-width="0.2" /><circle cx="62.5" cy="52.5" fill="yellow" r="0.5" stroke="red" stroke-width="0.2" /><circle cx="52.5" cy="62.5" fill="yellow" r="0.5" stroke="red" stroke-width="0.2" /><circle cx="62.5" cy="62.5" fill="yellow" r="0.5" stroke="red" stroke-width="0.2" /><circle cx="122.5" cy="62.5" fill="yellow" r="0.5" stroke="red" stroke-width="0.2" /><circle cx="187.5" cy="62.5" fill="yellow" r="0.5" stroke="red" stroke-width="0.2" /><circle cx="122.5" cy="52.5" fill="yellow" r="0.5" stroke="red" stroke-width="0.2" /><circle cx="187.5" cy="52.5" fill="yellow" r="0.5" stroke="red" stroke-width="0.2" /><circle cx="102.5" cy="122.5" fill="yellow" r="0.5" stroke="red" stroke-width="0.2" /><circle cx="102.5" cy="187.5" fill="yellow" r="0.5" stroke="red" stroke-width="0.2" /><circle cx="92.5" cy="122.5" fill="yellow" r="0.5" stroke="red" stroke-width="0.2" /><circle cx="92.5" cy="187.5" fill="yellow" r="0.5" stroke="red" stroke-width="0.2" /><circle cx="122.5" cy="80" fill="lime" r="1.5" /><circle cx="127.5" cy="80" fill="yellow" r="1.5" /><circle cx="187.5" cy="80" fill="lime" r="1.5" /><circle cx="182.5" cy="80" fill="yellow" r="1.5" /><circle cx="122.5" cy="35" fill="lime" r="1.5" /><circle cx="127.5" cy="35" fill="yellow" r="1.5" /><circle cx="187.5" cy="35" fill="lime" r="1.5" /><circle cx="182.5" cy="35" fill="yellow" r="1.5" /><circle cx="120" cy="122.5" fill="lime" r="1.5" /><circle cx="120" cy="127.5" fill="yellow" r="1.5" /><circle cx="120" cy="187.5" fill="lime" r="1.5" /><circle cx="120" cy="182.5" fill="yellow" r="1.5" /><circle cx="75" cy="122.5" fill="lime" r="1.5" /><circle cx="75" cy="127.5" fill="yellow" r="1.5" /><circle cx="75" cy="187.5" fill="lime" r="1.5" /><circle cx="75" cy="182.5" fill="yellow" r="1.5" /></g><g inkscape:groupmode="layer" inkscape:label="Outs" sodipodi:insensitive="1"><rect fill="none" height="200" stroke="red" stroke-width="0.2" width="200" x="0" y="0" /></g></svg>