<svg height="20cm" version="1.1" width="20cm" xmlns="http://www.w3.org/2000/svg" viewBox="0,0,200,200"><desc>Created with Snap</desc><defs><pattern x="0" y="0" width="5" height="5" patternUnits="userSpaceOnUse" id="patternSlpv5f8wt9" viewBox="0 0 5 5"><path d="M 5 0 L 0 0 0 5" style="stroke-width: 0.1;" fill="none" stroke="#0000c8"/></pattern><pattern x="0" y="0" width="20" height="20" patternUnits="userSpaceOnUse" id="patternSlpv5f8wtb" viewBox="0 0 20 20"><rect x="0" y="0" width="20" height="20" style="" fill="url(&apos;#patternSlpv5f8wt9&apos;)"/><path d="M 20 0 L 0 0 0 20" style="stroke-width: 0.2;" fill="none" stroke="#0000c8"/></pattern></defs><g id="grid"><rect x="0" y="0" width="200" height="200" style="" fill="#ffffff"/><rect x="0" y="0" width="200" height="200" style="" fill="url(&apos;#patternSlpv5f8wtb&apos;)"/></g><g id="track"><circle cx="37.5" cy="52.5" r="1.5" style="" stroke="none" fill="#808080"/><circle cx="52.5" cy="37.5" r="1.5" style="" stroke="none" fill="#808080"/><polyline points="36,52.5,36,55,39,55,39,52.5,36,52.5" style="" fill="#808080" stroke="none"/><polyline points="51.43933982822018,36.43933982822018,36.43933982822018,51.43933982822018,38.56066017177982,53.56066017177982,53.56066017177982,38.56066017177982,51.43933982822018,36.43933982822018" style="" fill="#808080" stroke="none"/><polyline points="55,36,52.5,36,52.5,39,55,39,55,36" style="" fill="#808080" stroke="none"/><circle cx="77.5" cy="52.5" r="1.5" style="" stroke="none" fill="#808080"/><circle cx="62.5" cy="37.5" r="1.5" style="" stroke="none" fill="#808080"/><polyline points="76,52.5,76,55,79,55,79,52.5,76,52.5" style="" fill="#808080" stroke="none"/><polyline points="61.43933982822018,38.56066017177982,76.43933982822018,53.56066017177982,78.56066017177982,51.43933982822018,63.56066017177982,36.43933982822018,61.43933982822018,38.56066017177982" style="" fill="#808080" stroke="none"/><polyline points="60,36,62.5,36,62.5,39,60,39,60,36" style="" fill="#808080" stroke="none"/><circle cx="37.5" cy="62.5" r="1.5" style="" stroke="none" fill="#808080"/><circle cx="52.5" cy="77.5" r="1.5" style="" stroke="none" fill="#808080"/><polyline points="36,62.5,36,60,39,60,39,62.5,36,62.5" style="" fill="#808080" stroke="none"/><polyline points="53.56066017177982,76.43933982822018,38.56066017177982,61.43933982822018,36.43933982822018,63.56066017177982,51.43933982822018,78.56066017177982,53.56066017177982,76.43933982822018" style="" fill="#808080" stroke="none"/><polyline points="55,76,52.5,76,52.5,79,55,79,55,76" style="" fill="#808080" stroke="none"/><circle cx="77.5" cy="62.5" r="1.5" style="" stroke="none" fill="#808080"/><circle cx="62.5" cy="77.5" r="1.5" style="" stroke="none" fill="#808080"/><polyline points="76,62.5,76,60,79,60,79,62.5,76,62.5" style="" fill="#808080" stroke="none"/><polyline points="63.56066017177982,78.56066017177982,78.56066017177982,63.56066017177982,76.43933982822018,61.43933982822018,61.43933982822018,76.43933982822018,63.56066017177982,78.56066017177982" style="" fill="#808080" stroke="none"/><polyline points="60,76,62.5,76,62.5,79,60,79,60,76" style="" fill="#808080" stroke="none"/><circle cx="27.5" cy="42.5" r="1.5" style="" stroke="none" fill="#808080"/><circle cx="42.5" cy="27.5" r="1.5" style="" stroke="none" fill="#808080"/><polyline points="26,42.5,26,55,29,55,29,42.5,26,42.5" style="" fill="#808080" stroke="none"/><polyline points="41.43933982822018,26.439339828220177,26.439339828220177,41.43933982822018,28.560660171779823,43.56066017177982,43.56066017177982,28.560660171779823,41.43933982822018,26.439339828220177" style="" fill="#808080" stroke="none"/><polyline points="55,26,42.5,26,42.5,29,55,29,55,26" style="" fill="#808080" stroke="none"/><circle cx="87.5" cy="42.5" r="1.5" style="" stroke="none" fill="#808080"/><circle cx="72.5" cy="27.5" r="1.5" style="" stroke="none" fill="#808080"/><polyline points="86,42.5,86,55,89,55,89,42.5,86,42.5" style="" fill="#808080" stroke="none"/><polyline points="71.43933982822018,28.560660171779823,86.43933982822018,43.56066017177982,88.56066017177982,41.43933982822018,73.56066017177982,26.439339828220177,71.43933982822018,28.560660171779823" style="" fill="#808080" stroke="none"/><polyline points="60,26,72.5,26,72.5,29,60,29,60,26" style="" fill="#808080" stroke="none"/><circle cx="27.5" cy="72.5" r="1.5" style="" stroke="none" fill="#808080"/><circle cx="42.5" cy="87.5" r="1.5" style="" stroke="none" fill="#808080"/><polyline points="26,72.5,26,60,29,60,29,72.5,26,72.5" style="" fill="#808080" stroke="none"/><polyline points="43.56066017177982,86.43933982822018,28.560660171779823,71.43933982822018,26.439339828220177,73.56066017177982,41.43933982822018,88.56066017177982,43.56066017177982,86.43933982822018" style="" fill="#808080" stroke="none"/><polyline points="55,86,42.5,86,42.5,89,55,89,55,86" style="" fill="#808080" stroke="none"/><circle cx="87.5" cy="72.5" r="1.5" style="" stroke="none" fill="#808080"/><circle cx="72.5" cy="87.5" r="1.5" style="" stroke="none" fill="#808080"/><polyline points="86,72.5,86,60,89,60,89,72.5,86,72.5" style="" fill="#808080" stroke="none"/><polyline points="73.56066017177982,88.56066017177982,88.56066017177982,73.56066017177982,86.43933982822018,71.43933982822018,71.43933982822018,86.43933982822018,73.56066017177982,88.56066017177982" style="" fill="#808080" stroke="none"/><polyline points="60,86,72.5,86,72.5,89,60,89,60,86" style="" fill="#808080" stroke="none"/><circle cx="17.5" cy="32.5" r="1.5" style="" stroke="none" fill="#808080"/><circle cx="32.5" cy="17.5" r="1.5" style="" stroke="none" fill="#808080"/><polyline points="16,32.5,16,55,19,55,19,32.5,16,32.5" style="" fill="#808080" stroke="none"/><polyline points="31.439339828220177,16.439339828220177,16.439339828220177,31.439339828220177,18.560660171779823,33.56066017177982,33.56066017177982,18.560660171779823,31.439339828220177,16.439339828220177" style="" fill="#808080" stroke="none"/><polyline points="55,16,32.5,16,32.5,19,55,19,55,16" style="" fill="#808080" stroke="none"/><circle cx="97.5" cy="32.5" r="1.5" style="" stroke="none" fill="#808080"/><circle cx="82.5" cy="17.5" r="1.5" style="" stroke="none" fill="#808080"/><polyline points="96,32.5,96,55,99,55,99,32.5,96,32.5" style="" fill="#808080" stroke="none"/><polyline points="81.43933982822018,18.560660171779823,96.43933982822018,33.56066017177982,98.56066017177982,31.439339828220177,83.56066017177982,16.439339828220177,81.43933982822018,18.560660171779823" style="" fill="#808080" stroke="none"/><polyline points="60,16,82.5,16,82.5,19,60,19,60,16" style="" fill="#808080" stroke="none"/><circle cx="17.5" cy="82.5" r="1.5" style="" stroke="none" fill="#808080"/><circle cx="32.5" cy="97.5" r="1.5" style="" stroke="none" fill="#808080"/><polyline points="16,82.5,16,60,19,60,19,82.5,16,82.5" style="" fill="#808080" stroke="none"/><polyline points="33.56066017177982,96.43933982822018,18.560660171779823,81.43933982822018,16.439339828220177,83.56066017177982,31.439339828220177,98.56066017177982,33.56066017177982,96.43933982822018" style="" fill="#808080" stroke="none"/><polyline points="55,96,32.5,96,32.5,99,55,99,55,96" style="" fill="#808080" stroke="none"/><circle cx="97.5" cy="82.5" r="1.5" style="" stroke="none" fill="#808080"/><circle cx="82.5" cy="97.5" r="1.5" style="" stroke="none" fill="#808080"/><polyline points="96,82.5,96,60,99,60,99,82.5,96,82.5" style="" fill="#808080" stroke="none"/><polyline points="83.56066017177982,98.56066017177982,98.56066017177982,83.56066017177982,96.43933982822018,81.43933982822018,81.43933982822018,96.43933982822018,83.56066017177982,98.56066017177982" style="" fill="#808080" stroke="none"/><polyline points="60,96,82.5,96,82.5,99,60,99,60,96" style="" fill="#808080" stroke="none"/><circle cx="7.5" cy="22.5" r="1.5" style="" stroke="none" fill="#808080"/><circle cx="22.5" cy="7.5" r="1.5" style="" stroke="none" fill="#808080"/><polyline points="6,22.5,6,55,9,55,9,22.5,6,22.5" style="" fill="#808080" stroke="none"/><polyline points="21.439339828220177,6.439339828220179,6.439339828220179,21.439339828220177,8.560660171779821,23.560660171779823,23.560660171779823,8.560660171779821,21.439339828220177,6.439339828220179" style="" fill="#808080" stroke="none"/><polyline points="55,6,22.5,6,22.5,9,55,9,55,6" style="" fill="#808080" stroke="none"/><circle cx="107.5" cy="22.5" r="1.5" style="" stroke="none" fill="#808080"/><circle cx="92.5" cy="7.5" r="1.5" style="" stroke="none" fill="#808080"/><polyline points="106,22.5,106,55,109,55,109,22.5,106,22.5" style="" fill="#808080" stroke="none"/><polyline points="91.43933982822018,8.560660171779821,106.43933982822018,23.560660171779823,108.56066017177982,21.439339828220177,93.56066017177982,6.439339828220179,91.43933982822018,8.560660171779821" style="" fill="#808080" stroke="none"/><polyline points="60,6,92.5,6,92.5,9,60,9,60,6" style="" fill="#808080" stroke="none"/><circle cx="7.5" cy="92.5" r="1.5" style="" stroke="none" fill="#808080"/><circle cx="22.5" cy="107.5" r="1.5" style="" stroke="none" fill="#808080"/><polyline points="6,92.5,6,60,9,60,9,92.5,6,92.5" style="" fill="#808080" stroke="none"/><polyline points="23.560660171779823,106.43933982822018,8.560660171779821,91.43933982822018,6.439339828220179,93.56066017177982,21.439339828220177,108.56066017177982,23.560660171779823,106.43933982822018" style="" fill="#808080" stroke="none"/><polyline points="55,106,22.5,106,22.5,109,55,109,55,106" style="" fill="#808080" stroke="none"/><circle cx="107.5" cy="92.5" r="1.5" style="" stroke="none" fill="#808080"/><circle cx="92.5" cy="107.5" r="1.5" style="" stroke="none" fill="#808080"/><polyline points="106,92.5,106,60,109,60,109,92.5,106,92.5" style="" fill="#808080" stroke="none"/><polyline points="93.56066017177982,108.56066017177982,108.56066017177982,93.56066017177982,106.43933982822018,91.43933982822018,91.43933982822018,106.43933982822018,93.56066017177982,108.56066017177982" style="" fill="#808080" stroke="none"/><polyline points="60,106,92.5,106,92.5,109,60,109,60,106" style="" fill="#808080" stroke="none"/></g><g id="cut"/><g id="led"><circle cx="52.5" cy="52.5" r="0.5" style="stroke-width: 0.2;" stroke="#ff0000" fill="#ffff00"/><circle cx="62.5" cy="52.5" r="0.5" style="stroke-width: 0.2;" stroke="#ff0000" fill="#ffff00"/><circle cx="52.5" cy="62.5" r="0.5" style="stroke-width: 0.2;" stroke="#ff0000" fill="#ffff00"/><circle cx="62.5" cy="62.5" r="0.5" style="stroke-width: 0.2;" stroke="#ff0000" fill="#ffff00"/><circle cx="52.5" cy="52.5" r="0.5" style="stroke-width: 0.2;" stroke="#ff0000" fill="#ffff00"/><circle cx="62.5" cy="52.5" r="0.5" style="stroke-width: 0.2;" stroke="#ff0000" fill="#ffff00"/><circle cx="52.5" cy="62.5" r="0.5" style="stroke-width: 0.2;" stroke="#ff0000" fill="#ffff00"/><circle cx="62.5" cy="62.5" r="0.5" style="stroke-width: 0.2;" stroke="#ff0000" fill="#ffff00"/><circle cx="52.5" cy="52.5" r="0.5" style="stroke-width: 0.2;" stroke="#ff0000" fill="#ffff00"/><circle cx="62.5" cy="52.5" r="0.5" style="stroke-width: 0.2;" stroke="#ff0000" fill="#ffff00"/><circle cx="52.5" cy="62.5" r="0.5" style="stroke-width: 0.2;" stroke="#ff0000" fill="#ffff00"/><circle cx="62.5" cy="62.5" r="0.5" style="stroke-width: 0.2;" stroke="#ff0000" fill="#ffff00"/><circle cx="52.5" cy="52.5" r="0.5" style="stroke-width: 0.2;" stroke="#ff0000" fill="#ffff00"/><circle cx="62.5" cy="52.5" r="0.5" style="stroke-width: 0.2;" stroke="#ff0000" fill="#ffff00"/><circle cx="52.5" cy="62.5" r="0.5" style="stroke-width: 0.2;" stroke="#ff0000" fill="#ffff00"/><circle cx="62.5" cy="62.5" r="0.5" style="stroke-width: 0.2;" stroke="#ff0000" fill="#ffff00"/></g><g id="outs"/></svg>