<?xml version="1.0" encoding="utf-8" ?>
<svg baseProfile="full" height="12.0cm" version="1.1" viewBox="0,0,215,120" width="21.5cm" xmlns="http://www.w3.org/2000/svg" xmlns:ev="http://www.w3.org/2001/xml-events" xmlns:inkscape="http://www.inkscape.org/namespaces/inkscape" xmlns:sodipodi="http://sodipodi.sourceforge.net/DTD/sodipodi-0.dtd" xmlns:xlink="http://www.w3.org/1999/xlink"><defs><pattern height="5" id="id1" patternUnits="userSpaceOnUse" width="5"><path d="M 5 0 L 0 0 0 5" fill="none" stroke="rgb(0%,0%,100%)" stroke-width="0.1" /></pattern><pattern height="20" id="id2" patternUnits="userSpaceOnUse" width="20"><rect fill="url(#id1) none" height="20" width="20" x="0" y="0" /><path d="M 20 0 L 0 0 0 20" fill="none" stroke="rgb(0%,0%,100%)" stroke-width="0.2" /></pattern></defs><g inkscape:groupmode="layer" inkscape:label="GridLayer" sodipodi:insensitive="1"><rect fill="white" height="120" width="215" x="0" y="0" /><rect fill="url(#id2) none" height="120" width="215" x="0" y="0" /></g><g inkscape:groupmode="layer" inkscape:label="Track" sodipodi:insensitive="1"><line stroke="gray" stroke-width="5" x1="5.0" x2="25.0" y1="52.5" y2="52.5" /><line stroke="gray" stroke-width="5" x1="15.0" x2="25.0" y1="52.5" y2="47.5" /><circle cx="15.0" cy="52.5" fill="white" r="2.5" /><line stroke="gray" stroke-width="5" x1="25.0" x2="45.0" y1="47.5" y2="37.5" /><line stroke="gray" stroke-width="5" x1="35.0" x2="45.0" y1="42.5" y2="42.5" /><circle cx="35.0" cy="42.5" fill="white" r="2.5" /><line stroke="gray" stroke-width="5" x1="45.0" x2="65.0" y1="37.5" y2="27.5" /><line stroke="gray" stroke-width="5" x1="55.0" x2="65.0" y1="32.5" y2="32.5" /><circle cx="55.0" cy="32.5" fill="white" r="2.5" /><line stroke="gray" stroke-width="5" x1="65.0" x2="85.0" y1="27.5" y2="17.5" /><line stroke="gray" stroke-width="5" x1="75.0" x2="85.0" y1="22.5" y2="22.5" /><circle cx="75.0" cy="22.5" fill="white" r="2.5" /><line stroke="gray" stroke-width="5" x1="105.0" x2="85.0" y1="12.5" y2="12.5" /><line stroke="gray" stroke-width="5" x1="95.0" x2="85.0" y1="12.5" y2="17.5" /><circle cx="95.0" cy="12.5" fill="white" r="2.5" /><line stroke="gray" stroke-width="5" x1="5.0" x2="25.0" y1="67.5" y2="67.5" /><line stroke="gray" stroke-width="5" x1="15.0" x2="25.0" y1="67.5" y2="72.5" /><circle cx="15.0" cy="67.5" fill="white" r="2.5" /><line stroke="gray" stroke-width="5" x1="25.0" x2="45.0" y1="72.5" y2="82.5" /><line stroke="gray" stroke-width="5" x1="35.0" x2="45.0" y1="77.5" y2="77.5" /><circle cx="35.0" cy="77.5" fill="white" r="2.5" /><line stroke="gray" stroke-width="5" x1="45.0" x2="65.0" y1="82.5" y2="92.5" /><line stroke="gray" stroke-width="5" x1="55.0" x2="65.0" y1="87.5" y2="87.5" /><circle cx="55.0" cy="87.5" fill="white" r="2.5" /><line stroke="gray" stroke-width="5" x1="65.0" x2="85.0" y1="92.5" y2="102.5" /><line stroke="gray" stroke-width="5" x1="75.0" x2="85.0" y1="97.5" y2="97.5" /><circle cx="75.0" cy="97.5" fill="white" r="2.5" /><line stroke="gray" stroke-width="5" x1="105.0" x2="85.0" y1="107.5" y2="107.5" /><line stroke="gray" stroke-width="5" x1="95.0" x2="85.0" y1="107.5" y2="102.5" /><circle cx="95.0" cy="107.5" fill="white" r="2.5" /><line stroke="gray" stroke-width="5" x1="210.0" x2="190.0" y1="52.5" y2="52.5" /><line stroke="gray" stroke-width="5" x1="200.0" x2="190.0" y1="52.5" y2="47.5" /><circle cx="200.0" cy="52.5" fill="white" r="2.5" /><line stroke="gray" stroke-width="5" x1="190.0" x2="170.0" y1="47.5" y2="37.5" /><line stroke="gray" stroke-width="5" x1="180.0" x2="170.0" y1="42.5" y2="42.5" /><circle cx="180.0" cy="42.5" fill="white" r="2.5" /><line stroke="gray" stroke-width="5" x1="170.0" x2="150.0" y1="37.5" y2="27.5" /><line stroke="gray" stroke-width="5" x1="160.0" x2="150.0" y1="32.5" y2="32.5" /><circle cx="160.0" cy="32.5" fill="white" r="2.5" /><line stroke="gray" stroke-width="5" x1="150.0" x2="130.0" y1="27.5" y2="17.5" /><line stroke="gray" stroke-width="5" x1="140.0" x2="130.0" y1="22.5" y2="22.5" /><circle cx="140.0" cy="22.5" fill="white" r="2.5" /><line stroke="gray" stroke-width="5" x1="110.0" x2="130.0" y1="12.5" y2="12.5" /><line stroke="gray" stroke-width="5" x1="120.0" x2="130.0" y1="12.5" y2="17.5" /><circle cx="120.0" cy="12.5" fill="white" r="2.5" /><line stroke="gray" stroke-width="5" x1="210.0" x2="190.0" y1="67.5" y2="67.5" /><line stroke="gray" stroke-width="5" x1="200.0" x2="190.0" y1="67.5" y2="72.5" /><circle cx="200.0" cy="67.5" fill="white" r="2.5" /><line stroke="gray" stroke-width="5" x1="190.0" x2="170.0" y1="72.5" y2="82.5" /><line stroke="gray" stroke-width="5" x1="180.0" x2="170.0" y1="77.5" y2="77.5" /><circle cx="180.0" cy="77.5" fill="white" r="2.5" /><line stroke="gray" stroke-width="5" x1="170.0" x2="150.0" y1="82.5" y2="92.5" /><line stroke="gray" stroke-width="5" x1="160.0" x2="150.0" y1="87.5" y2="87.5" /><circle cx="160.0" cy="87.5" fill="white" r="2.5" /><line stroke="gray" stroke-width="5" x1="150.0" x2="130.0" y1="92.5" y2="102.5" /><line stroke="gray" stroke-width="5" x1="140.0" x2="130.0" y1="97.5" y2="97.5" /><circle cx="140.0" cy="97.5" fill="white" r="2.5" /><line stroke="gray" stroke-width="5" x1="110.0" x2="130.0" y1="107.5" y2="107.5" /><line stroke="gray" stroke-width="5" x1="120.0" x2="130.0" y1="107.5" y2="102.5" /><circle cx="120.0" cy="107.5" fill="white" r="2.5" /></g><g inkscape:groupmode="layer" inkscape:label="Cut" sodipodi:insensitive="1"><circle cx="15.0" cy="52.5" fill="none" r="2.5" stroke="red" stroke-width="0.2" /><rect fill="none" height="15" stroke="red" stroke-width="0.2" width="10" x="10.0" y="45.0" /><circle cx="25.0" cy="47.5" fill="none" r="1.5" stroke="red" stroke-width="0.2" /><circle cx="25.0" cy="52.5" fill="none" r="1.5" stroke="red" stroke-width="0.2" /><circle cx="35.0" cy="42.5" fill="none" r="2.5" stroke="red" stroke-width="0.2" /><rect fill="none" height="15" stroke="red" stroke-width="0.2" width="10" x="30.0" y="35.0" /><circle cx="45.0" cy="42.5" fill="none" r="1.5" stroke="red" stroke-width="0.2" /><circle cx="45.0" cy="37.5" fill="none" r="1.5" stroke="red" stroke-width="0.2" /><circle cx="55.0" cy="32.5" fill="none" r="2.5" stroke="red" stroke-width="0.2" /><rect fill="none" height="15" stroke="red" stroke-width="0.2" width="10" x="50.0" y="25.0" /><circle cx="65.0" cy="32.5" fill="none" r="1.5" stroke="red" stroke-width="0.2" /><circle cx="65.0" cy="27.5" fill="none" r="1.5" stroke="red" stroke-width="0.2" /><circle cx="75.0" cy="22.5" fill="none" r="2.5" stroke="red" stroke-width="0.2" /><rect fill="none" height="15" stroke="red" stroke-width="0.2" width="10" x="70.0" y="15.0" /><circle cx="85.0" cy="22.5" fill="none" r="1.5" stroke="red" stroke-width="0.2" /><circle cx="85.0" cy="17.5" fill="none" r="1.5" stroke="red" stroke-width="0.2" /><circle cx="95.0" cy="12.5" fill="none" r="2.5" stroke="red" stroke-width="0.2" /><rect fill="none" height="15" stroke="red" stroke-width="0.2" width="10" x="90.0" y="5.0" /><circle cx="85.0" cy="17.5" fill="none" r="1.5" stroke="red" stroke-width="0.2" /><circle cx="85.0" cy="12.5" fill="none" r="1.5" stroke="red" stroke-width="0.2" /><circle cx="15.0" cy="67.5" fill="none" r="2.5" stroke="red" stroke-width="0.2" /><rect fill="none" height="15" stroke="red" stroke-width="0.2" width="10" x="10.0" y="60.0" /><circle cx="25.0" cy="72.5" fill="none" r="1.5" stroke="red" stroke-width="0.2" /><circle cx="25.0" cy="67.5" fill="none" r="1.5" stroke="red" stroke-width="0.2" /><circle cx="35.0" cy="77.5" fill="none" r="2.5" stroke="red" stroke-width="0.2" /><rect fill="none" height="15" stroke="red" stroke-width="0.2" width="10" x="30.0" y="70.0" /><circle cx="45.0" cy="77.5" fill="none" r="1.5" stroke="red" stroke-width="0.2" /><circle cx="45.0" cy="82.5" fill="none" r="1.5" stroke="red" stroke-width="0.2" /><circle cx="55.0" cy="87.5" fill="none" r="2.5" stroke="red" stroke-width="0.2" /><rect fill="none" height="15" stroke="red" stroke-width="0.2" width="10" x="50.0" y="80.0" /><circle cx="65.0" cy="87.5" fill="none" r="1.5" stroke="red" stroke-width="0.2" /><circle cx="65.0" cy="92.5" fill="none" r="1.5" stroke="red" stroke-width="0.2" /><circle cx="75.0" cy="97.5" fill="none" r="2.5" stroke="red" stroke-width="0.2" /><rect fill="none" height="15" stroke="red" stroke-width="0.2" width="10" x="70.0" y="90.0" /><circle cx="85.0" cy="97.5" fill="none" r="1.5" stroke="red" stroke-width="0.2" /><circle cx="85.0" cy="102.5" fill="none" r="1.5" stroke="red" stroke-width="0.2" /><circle cx="95.0" cy="107.5" fill="none" r="2.5" stroke="red" stroke-width="0.2" /><rect fill="none" height="15" stroke="red" stroke-width="0.2" width="10" x="90.0" y="100.0" /><circle cx="85.0" cy="102.5" fill="none" r="1.5" stroke="red" stroke-width="0.2" /><circle cx="85.0" cy="107.5" fill="none" r="1.5" stroke="red" stroke-width="0.2" /><circle cx="200.0" cy="52.5" fill="none" r="2.5" stroke="red" stroke-width="0.2" /><rect fill="none" height="15" stroke="red" stroke-width="0.2" width="10" x="195.0" y="45.0" /><circle cx="190.0" cy="47.5" fill="none" r="1.5" stroke="red" stroke-width="0.2" /><circle cx="190.0" cy="52.5" fill="none" r="1.5" stroke="red" stroke-width="0.2" /><circle cx="180.0" cy="42.5" fill="none" r="2.5" stroke="red" stroke-width="0.2" /><rect fill="none" height="15" stroke="red" stroke-width="0.2" width="10" x="175.0" y="35.0" /><circle cx="170.0" cy="42.5" fill="none" r="1.5" stroke="red" stroke-width="0.2" /><circle cx="170.0" cy="37.5" fill="none" r="1.5" stroke="red" stroke-width="0.2" /><circle cx="160.0" cy="32.5" fill="none" r="2.5" stroke="red" stroke-width="0.2" /><rect fill="none" height="15" stroke="red" stroke-width="0.2" width="10" x="155.0" y="25.0" /><circle cx="150.0" cy="32.5" fill="none" r="1.5" stroke="red" stroke-width="0.2" /><circle cx="150.0" cy="27.5" fill="none" r="1.5" stroke="red" stroke-width="0.2" /><circle cx="140.0" cy="22.5" fill="none" r="2.5" stroke="red" stroke-width="0.2" /><rect fill="none" height="15" stroke="red" stroke-width="0.2" width="10" x="135.0" y="15.0" /><circle cx="130.0" cy="22.5" fill="none" r="1.5" stroke="red" stroke-width="0.2" /><circle cx="130.0" cy="17.5" fill="none" r="1.5" stroke="red" stroke-width="0.2" /><circle cx="120.0" cy="12.5" fill="none" r="2.5" stroke="red" stroke-width="0.2" /><rect fill="none" height="15" stroke="red" stroke-width="0.2" width="10" x="115.0" y="5.0" /><circle cx="130.0" cy="17.5" fill="none" r="1.5" stroke="red" stroke-width="0.2" /><circle cx="130.0" cy="12.5" fill="none" r="1.5" stroke="red" stroke-width="0.2" /><circle cx="200.0" cy="67.5" fill="none" r="2.5" stroke="red" stroke-width="0.2" /><rect fill="none" height="15" stroke="red" stroke-width="0.2" width="10" x="195.0" y="60.0" /><circle cx="190.0" cy="72.5" fill="none" r="1.5" stroke="red" stroke-width="0.2" /><circle cx="190.0" cy="67.5" fill="none" r="1.5" stroke="red" stroke-width="0.2" /><circle cx="180.0" cy="77.5" fill="none" r="2.5" stroke="red" stroke-width="0.2" /><rect fill="none" height="15" stroke="red" stroke-width="0.2" width="10" x="175.0" y="70.0" /><circle cx="170.0" cy="77.5" fill="none" r="1.5" stroke="red" stroke-width="0.2" /><circle cx="170.0" cy="82.5" fill="none" r="1.5" stroke="red" stroke-width="0.2" /><circle cx="160.0" cy="87.5" fill="none" r="2.5" stroke="red" stroke-width="0.2" /><rect fill="none" height="15" stroke="red" stroke-width="0.2" width="10" x="155.0" y="80.0" /><circle cx="150.0" cy="87.5" fill="none" r="1.5" stroke="red" stroke-width="0.2" /><circle cx="150.0" cy="92.5" fill="none" r="1.5" stroke="red" stroke-width="0.2" /><circle cx="140.0" cy="97.5" fill="none" r="2.5" stroke="red" stroke-width="0.2" /><rect fill="none" height="15" stroke="red" stroke-width="0.2" width="10" x="135.0" y="90.0" /><circle cx="130.0" cy="97.5" fill="none" r="1.5" stroke="red" stroke-width="0.2" /><circle cx="130.0" cy="102.5" fill="none" r="1.5" stroke="red" stroke-width="0.2" /><circle cx="120.0" cy="107.5" fill="none" r="2.5" stroke="red" stroke-width="0.2" /><rect fill="none" height="15" stroke="red" stroke-width="0.2" width="10" x="115.0" y="100.0" /><circle cx="130.0" cy="102.5" fill="none" r="1.5" stroke="red" stroke-width="0.2" /><circle cx="130.0" cy="107.5" fill="none" r="1.5" stroke="red" stroke-width="0.2" /></g><g inkscape:groupmode="layer" inkscape:label="Led" sodipodi:insensitive="1"><circle cx="7.5" cy="52.5" fill="yellow" r="0.5" stroke="red" stroke-width="0.2" /><circle cx="7.5" cy="67.5" fill="yellow" r="0.5" stroke="red" stroke-width="0.2" /><circle cx="192.5" cy="52.5" fill="yellow" r="0.5" stroke="red" stroke-width="0.2" /><circle cx="192.5" cy="67.5" fill="yellow" r="0.5" stroke="red" stroke-width="0.2" /><circle cx="25.0" cy="47.5" fill="green" r="1.5" /><circle cx="25.0" cy="52.5" fill="green" r="1.5" /><circle cx="45.0" cy="42.5" fill="green" r="1.5" /><circle cx="45.0" cy="37.5" fill="green" r="1.5" /><circle cx="65.0" cy="32.5" fill="green" r="1.5" /><circle cx="65.0" cy="27.5" fill="green" r="1.5" /><circle cx="85.0" cy="22.5" fill="green" r="1.5" /><circle cx="85.0" cy="17.5" fill="green" r="1.5" /><circle cx="85.0" cy="17.5" fill="green" r="1.5" /><circle cx="85.0" cy="12.5" fill="green" r="1.5" /><circle cx="25.0" cy="72.5" fill="green" r="1.5" /><circle cx="25.0" cy="67.5" fill="green" r="1.5" /><circle cx="45.0" cy="77.5" fill="green" r="1.5" /><circle cx="45.0" cy="82.5" fill="green" r="1.5" /><circle cx="65.0" cy="87.5" fill="green" r="1.5" /><circle cx="65.0" cy="92.5" fill="green" r="1.5" /><circle cx="85.0" cy="97.5" fill="green" r="1.5" /><circle cx="85.0" cy="102.5" fill="green" r="1.5" /><circle cx="85.0" cy="102.5" fill="green" r="1.5" /><circle cx="85.0" cy="107.5" fill="green" r="1.5" /><circle cx="190.0" cy="47.5" fill="green" r="1.5" /><circle cx="190.0" cy="52.5" fill="green" r="1.5" /><circle cx="170.0" cy="42.5" fill="green" r="1.5" /><circle cx="170.0" cy="37.5" fill="green" r="1.5" /><circle cx="150.0" cy="32.5" fill="green" r="1.5" /><circle cx="150.0" cy="27.5" fill="green" r="1.5" /><circle cx="130.0" cy="22.5" fill="green" r="1.5" /><circle cx="130.0" cy="17.5" fill="green" r="1.5" /><circle cx="130.0" cy="17.5" fill="green" r="1.5" /><circle cx="130.0" cy="12.5" fill="green" r="1.5" /><circle cx="190.0" cy="72.5" fill="green" r="1.5" /><circle cx="190.0" cy="67.5" fill="green" r="1.5" /><circle cx="170.0" cy="77.5" fill="green" r="1.5" /><circle cx="170.0" cy="82.5" fill="green" r="1.5" /><circle cx="150.0" cy="87.5" fill="green" r="1.5" /><circle cx="150.0" cy="92.5" fill="green" r="1.5" /><circle cx="130.0" cy="97.5" fill="green" r="1.5" /><circle cx="130.0" cy="102.5" fill="green" r="1.5" /><circle cx="130.0" cy="102.5" fill="green" r="1.5" /><circle cx="130.0" cy="107.5" fill="green" r="1.5" /></g></svg>