<?xml version="1.0" encoding="utf-8" ?>
<svg baseProfile="full" height="12.0cm" version="1.1" viewBox="0,0,215,120" width="21.5cm" xmlns="http://www.w3.org/2000/svg" xmlns:ev="http://www.w3.org/2001/xml-events" xmlns:inkscape="http://www.inkscape.org/namespaces/inkscape" xmlns:sodipodi="http://sodipodi.sourceforge.net/DTD/sodipodi-0.dtd" xmlns:xlink="http://www.w3.org/1999/xlink"><defs><pattern height="5" id="id9" patternUnits="userSpaceOnUse" width="5"><path d="M 5 0 L 0 0 0 5" fill="none" stroke="rgb(0%,0%,100%)" stroke-width="0.1" /></pattern><pattern height="20" id="id10" patternUnits="userSpaceOnUse" width="20"><rect fill="url(#id9) none" height="20" width="20" x="0" y="0" /><path d="M 20 0 L 0 0 0 20" fill="none" stroke="rgb(0%,0%,100%)" stroke-width="0.2" /></pattern></defs><g inkscape:groupmode="layer" inkscape:label="GridLayer" sodipodi:insensitive="1"><rect fill="white" height="120" width="215" x="0" y="0" /><rect fill="url(#id10) none" height="120" width="215" x="0" y="0" /></g><g inkscape:groupmode="layer" inkscape:label="Track" sodipodi:insensitive="1"><polyline fill="gray" points="24.105572809000083,45.71114561800017 14.105572809000083,50.71114561800017 15.894427190999917,54.28885438199983 25.894427190999917,49.28885438199983 24.105572809000083,45.71114561800017" stroke="none" /><polyline fill="gray" points="25,50.5 5,50.5 5,54.5 25,54.5 25,50.5" stroke="none" /><circle cx="15" cy="52.5" fill="white" r="3.0" /><polyline fill="blueviolet" points="45,40.5 35,40.5 35,44.5 45,44.5 45,40.5" stroke="none" /><polyline fill="blueviolet" points="44.10557280900009,35.71114561800017 24.105572809000083,45.71114561800017 25.894427190999917,49.28885438199983 45.89442719099991,39.28885438199983 44.10557280900009,35.71114561800017" stroke="none" /><circle cx="35" cy="42.5" fill="white" r="3.0" /><polyline fill="gray" points="65,30.5 55,30.5 55,34.5 65,34.5 65,30.5" stroke="none" /><polyline fill="gray" points="64.10557280900008,25.711145618000167 44.10557280900009,35.71114561800017 45.89442719099991,39.28885438199983 65.89442719099992,29.288854381999833 64.10557280900008,25.711145618000167" stroke="none" /><circle cx="55" cy="32.5" fill="white" r="3.0" /><polyline fill="gray" points="85,20.5 75,20.5 75,24.5 85,24.5 85,20.5" stroke="none" /><polyline fill="gray" points="84.10557280900008,15.711145618000169 64.10557280900008,25.711145618000167 65.89442719099992,29.288854381999833 85.89442719099992,19.288854381999833 84.10557280900008,15.711145618000169" stroke="none" /><circle cx="75" cy="22.5" fill="white" r="3.0" /><circle cx="95" cy="12.5" fill="gray" r="2.0" /><polyline fill="gray" points="105,10.5 95,10.5 95,14.5 105,14.5 105,10.5" stroke="none" /><polyline fill="gray" points="94.10557280900008,10.711145618000169 84.10557280900008,15.711145618000169 85.89442719099992,19.288854381999833 95.89442719099992,14.288854381999831 94.10557280900008,10.711145618000169" stroke="none" /><polyline fill="gray" points="25.894427190999917,70.71114561800017 15.894427190999917,65.71114561800017 14.105572809000083,69.28885438199983 24.105572809000083,74.28885438199983 25.894427190999917,70.71114561800017" stroke="none" /><polyline fill="gray" points="25,65.5 5,65.5 5,69.5 25,69.5 25,65.5" stroke="none" /><circle cx="15" cy="67.5" fill="white" r="3.0" /><polyline fill="gray" points="45,75.5 35,75.5 35,79.5 45,79.5 45,75.5" stroke="none" /><polyline fill="gray" points="45.89442719099991,80.71114561800017 25.894427190999917,70.71114561800017 24.105572809000083,74.28885438199983 44.10557280900009,84.28885438199983 45.89442719099991,80.71114561800017" stroke="none" /><circle cx="35" cy="77.5" fill="white" r="3.0" /><polyline fill="gray" points="65,85.5 55,85.5 55,89.5 65,89.5 65,85.5" stroke="none" /><polyline fill="gray" points="65.89442719099992,90.71114561800017 45.89442719099991,80.71114561800017 44.10557280900009,84.28885438199983 64.10557280900008,94.28885438199983 65.89442719099992,90.71114561800017" stroke="none" /><circle cx="55" cy="87.5" fill="white" r="3.0" /><polyline fill="gray" points="85,95.5 75,95.5 75,99.5 85,99.5 85,95.5" stroke="none" /><polyline fill="gray" points="85.89442719099992,100.71114561800017 65.89442719099992,90.71114561800017 64.10557280900008,94.28885438199983 84.10557280900008,104.28885438199983 85.89442719099992,100.71114561800017" stroke="none" /><circle cx="75" cy="97.5" fill="white" r="3.0" /><circle cx="95" cy="107.5" fill="gray" r="2.0" /><polyline fill="gray" points="105,105.5 95,105.5 95,109.5 105,109.5 105,105.5" stroke="none" /><polyline fill="gray" points="95.89442719099992,105.71114561800017 85.89442719099992,100.71114561800017 84.10557280900008,104.28885438199983 94.10557280900008,109.28885438199983 95.89442719099992,105.71114561800017" stroke="none" /><polyline fill="gray" points="189.10557280900008,49.28885438199983 199.10557280900008,54.28885438199983 200.89442719099992,50.71114561800017 190.89442719099992,45.71114561800017 189.10557280900008,49.28885438199983" stroke="none" /><polyline fill="gray" points="190,50.5 210,50.5 210,54.5 190,54.5 190,50.5" stroke="none" /><circle cx="200" cy="52.5" fill="white" r="3.0" /><polyline fill="gray" points="170,40.5 180,40.5 180,44.5 170,44.5 170,40.5" stroke="none" /><polyline fill="gray" points="169.10557280900008,39.28885438199983 189.10557280900008,49.28885438199983 190.89442719099992,45.71114561800017 170.89442719099992,35.71114561800017 169.10557280900008,39.28885438199983" stroke="none" /><circle cx="180" cy="42.5" fill="white" r="3.0" /><polyline fill="gray" points="150,30.5 160,30.5 160,34.5 150,34.5 150,30.5" stroke="none" /><polyline fill="gray" points="149.10557280900008,29.288854381999833 169.10557280900008,39.28885438199983 170.89442719099992,35.71114561800017 150.89442719099992,25.711145618000167 149.10557280900008,29.288854381999833" stroke="none" /><circle cx="160" cy="32.5" fill="white" r="3.0" /><polyline fill="gray" points="130,20.5 140,20.5 140,24.5 130,24.5 130,20.5" stroke="none" /><polyline fill="gray" points="129.10557280900008,19.288854381999833 149.10557280900008,29.288854381999833 150.89442719099992,25.711145618000167 130.89442719099992,15.711145618000169 129.10557280900008,19.288854381999833" stroke="none" /><circle cx="140" cy="22.5" fill="white" r="3.0" /><circle cx="120" cy="12.5" fill="gray" r="2.0" /><polyline fill="gray" points="110,10.5 120,10.5 120,14.5 110,14.5 110,10.5" stroke="none" /><polyline fill="gray" points="119.10557280900008,14.288854381999831 129.10557280900008,19.288854381999833 130.89442719099992,15.711145618000169 120.89442719099992,10.711145618000169 119.10557280900008,14.288854381999831" stroke="none" /><polyline fill="gray" points="190.89442719099992,74.28885438199983 200.89442719099992,69.28885438199983 199.10557280900008,65.71114561800017 189.10557280900008,70.71114561800017 190.89442719099992,74.28885438199983" stroke="none" /><polyline fill="gray" points="190,65.5 210,65.5 210,69.5 190,69.5 190,65.5" stroke="none" /><circle cx="200" cy="67.5" fill="white" r="3.0" /><polyline fill="gray" points="170,75.5 180,75.5 180,79.5 170,79.5 170,75.5" stroke="none" /><polyline fill="gray" points="170.89442719099992,84.28885438199983 190.89442719099992,74.28885438199983 189.10557280900008,70.71114561800017 169.10557280900008,80.71114561800017 170.89442719099992,84.28885438199983" stroke="none" /><circle cx="180" cy="77.5" fill="white" r="3.0" /><polyline fill="gray" points="150,85.5 160,85.5 160,89.5 150,89.5 150,85.5" stroke="none" /><polyline fill="gray" points="150.89442719099992,94.28885438199983 170.89442719099992,84.28885438199983 169.10557280900008,80.71114561800017 149.10557280900008,90.71114561800017 150.89442719099992,94.28885438199983" stroke="none" /><circle cx="160" cy="87.5" fill="white" r="3.0" /><polyline fill="gray" points="130,95.5 140,95.5 140,99.5 130,99.5 130,95.5" stroke="none" /><polyline fill="gray" points="130.89442719099992,104.28885438199983 150.89442719099992,94.28885438199983 149.10557280900008,90.71114561800017 129.10557280900008,100.71114561800017 130.89442719099992,104.28885438199983" stroke="none" /><circle cx="140" cy="97.5" fill="white" r="3.0" /><circle cx="120" cy="107.5" fill="gray" r="2.0" /><polyline fill="gray" points="110,105.5 120,105.5 120,109.5 110,109.5 110,105.5" stroke="none" /><polyline fill="gray" points="120.89442719099992,109.28885438199983 130.89442719099992,104.28885438199983 129.10557280900008,100.71114561800017 119.10557280900008,105.71114561800017 120.89442719099992,109.28885438199983" stroke="none" /></g><g inkscape:groupmode="layer" inkscape:label="Cut" sodipodi:insensitive="1"><circle cx="15" cy="52.5" fill="none" r="3.0" stroke="red" stroke-width="0.2" /><circle cx="15" cy="52.5" fill="none" r="6.0" stroke="blue" stroke-width="0.2" /><rect fill="none" height="15" stroke="blue" stroke-width="0.2" width="10" x="10" y="45.0" /><circle cx="25" cy="52.5" fill="none" r="1.5" stroke="red" stroke-width="0.2" /><circle cx="25" cy="52.5" fill="none" r="2.0" stroke="blue" stroke-width="0.2" /><circle cx="25" cy="47.5" fill="none" r="1.5" stroke="red" stroke-width="0.2" /><circle cx="25" cy="47.5" fill="none" r="2.0" stroke="blue" stroke-width="0.2" /><circle cx="35" cy="42.5" fill="none" r="3.0" stroke="red" stroke-width="0.2" /><circle cx="35" cy="42.5" fill="none" r="6.0" stroke="blue" stroke-width="0.2" /><rect fill="none" height="15" stroke="blue" stroke-width="0.2" width="10" x="30" y="35.0" /><circle cx="45" cy="37.5" fill="none" r="1.5" stroke="red" stroke-width="0.2" /><circle cx="45" cy="37.5" fill="none" r="2.0" stroke="blue" stroke-width="0.2" /><circle cx="45" cy="42.5" fill="none" r="1.5" stroke="red" stroke-width="0.2" /><circle cx="45" cy="42.5" fill="none" r="2.0" stroke="blue" stroke-width="0.2" /><circle cx="55" cy="32.5" fill="none" r="3.0" stroke="red" stroke-width="0.2" /><circle cx="55" cy="32.5" fill="none" r="6.0" stroke="blue" stroke-width="0.2" /><rect fill="none" height="15" stroke="blue" stroke-width="0.2" width="10" x="50" y="25.0" /><circle cx="65" cy="27.5" fill="none" r="1.5" stroke="red" stroke-width="0.2" /><circle cx="65" cy="27.5" fill="none" r="2.0" stroke="blue" stroke-width="0.2" /><circle cx="65" cy="32.5" fill="none" r="1.5" stroke="red" stroke-width="0.2" /><circle cx="65" cy="32.5" fill="none" r="2.0" stroke="blue" stroke-width="0.2" /><circle cx="75" cy="22.5" fill="none" r="3.0" stroke="red" stroke-width="0.2" /><circle cx="75" cy="22.5" fill="none" r="6.0" stroke="blue" stroke-width="0.2" /><rect fill="none" height="15" stroke="blue" stroke-width="0.2" width="10" x="70" y="15.0" /><circle cx="85" cy="17.5" fill="none" r="1.5" stroke="red" stroke-width="0.2" /><circle cx="85" cy="17.5" fill="none" r="2.0" stroke="blue" stroke-width="0.2" /><circle cx="85" cy="22.5" fill="none" r="1.5" stroke="red" stroke-width="0.2" /><circle cx="85" cy="22.5" fill="none" r="2.0" stroke="blue" stroke-width="0.2" /><circle cx="15" cy="67.5" fill="none" r="3.0" stroke="red" stroke-width="0.2" /><circle cx="15" cy="67.5" fill="none" r="6.0" stroke="blue" stroke-width="0.2" /><rect fill="none" height="15" stroke="blue" stroke-width="0.2" width="10" x="10" y="60.0" /><circle cx="25" cy="67.5" fill="none" r="1.5" stroke="red" stroke-width="0.2" /><circle cx="25" cy="67.5" fill="none" r="2.0" stroke="blue" stroke-width="0.2" /><circle cx="25" cy="72.5" fill="none" r="1.5" stroke="red" stroke-width="0.2" /><circle cx="25" cy="72.5" fill="none" r="2.0" stroke="blue" stroke-width="0.2" /><circle cx="35" cy="77.5" fill="none" r="3.0" stroke="red" stroke-width="0.2" /><circle cx="35" cy="77.5" fill="none" r="6.0" stroke="blue" stroke-width="0.2" /><rect fill="none" height="15" stroke="blue" stroke-width="0.2" width="10" x="30" y="70.0" /><circle cx="45" cy="82.5" fill="none" r="1.5" stroke="red" stroke-width="0.2" /><circle cx="45" cy="82.5" fill="none" r="2.0" stroke="blue" stroke-width="0.2" /><circle cx="45" cy="77.5" fill="none" r="1.5" stroke="red" stroke-width="0.2" /><circle cx="45" cy="77.5" fill="none" r="2.0" stroke="blue" stroke-width="0.2" /><circle cx="55" cy="87.5" fill="none" r="3.0" stroke="red" stroke-width="0.2" /><circle cx="55" cy="87.5" fill="none" r="6.0" stroke="blue" stroke-width="0.2" /><rect fill="none" height="15" stroke="blue" stroke-width="0.2" width="10" x="50" y="80.0" /><circle cx="65" cy="92.5" fill="none" r="1.5" stroke="red" stroke-width="0.2" /><circle cx="65" cy="92.5" fill="none" r="2.0" stroke="blue" stroke-width="0.2" /><circle cx="65" cy="87.5" fill="none" r="1.5" stroke="red" stroke-width="0.2" /><circle cx="65" cy="87.5" fill="none" r="2.0" stroke="blue" stroke-width="0.2" /><circle cx="75" cy="97.5" fill="none" r="3.0" stroke="red" stroke-width="0.2" /><circle cx="75" cy="97.5" fill="none" r="6.0" stroke="blue" stroke-width="0.2" /><rect fill="none" height="15" stroke="blue" stroke-width="0.2" width="10" x="70" y="90.0" /><circle cx="85" cy="102.5" fill="none" r="1.5" stroke="red" stroke-width="0.2" /><circle cx="85" cy="102.5" fill="none" r="2.0" stroke="blue" stroke-width="0.2" /><circle cx="85" cy="97.5" fill="none" r="1.5" stroke="red" stroke-width="0.2" /><circle cx="85" cy="97.5" fill="none" r="2.0" stroke="blue" stroke-width="0.2" /><circle cx="200" cy="52.5" fill="none" r="3.0" stroke="red" stroke-width="0.2" /><circle cx="200" cy="52.5" fill="none" r="6.0" stroke="blue" stroke-width="0.2" /><rect fill="none" height="15" stroke="blue" stroke-width="0.2" width="10" x="195" y="45.0" /><circle cx="190" cy="52.5" fill="none" r="1.5" stroke="red" stroke-width="0.2" /><circle cx="190" cy="52.5" fill="none" r="2.0" stroke="blue" stroke-width="0.2" /><circle cx="190" cy="47.5" fill="none" r="1.5" stroke="red" stroke-width="0.2" /><circle cx="190" cy="47.5" fill="none" r="2.0" stroke="blue" stroke-width="0.2" /><circle cx="180" cy="42.5" fill="none" r="3.0" stroke="red" stroke-width="0.2" /><circle cx="180" cy="42.5" fill="none" r="6.0" stroke="blue" stroke-width="0.2" /><rect fill="none" height="15" stroke="blue" stroke-width="0.2" width="10" x="175" y="35.0" /><circle cx="170" cy="37.5" fill="none" r="1.5" stroke="red" stroke-width="0.2" /><circle cx="170" cy="37.5" fill="none" r="2.0" stroke="blue" stroke-width="0.2" /><circle cx="170" cy="42.5" fill="none" r="1.5" stroke="red" stroke-width="0.2" /><circle cx="170" cy="42.5" fill="none" r="2.0" stroke="blue" stroke-width="0.2" /><circle cx="160" cy="32.5" fill="none" r="3.0" stroke="red" stroke-width="0.2" /><circle cx="160" cy="32.5" fill="none" r="6.0" stroke="blue" stroke-width="0.2" /><rect fill="none" height="15" stroke="blue" stroke-width="0.2" width="10" x="155" y="25.0" /><circle cx="150" cy="27.5" fill="none" r="1.5" stroke="red" stroke-width="0.2" /><circle cx="150" cy="27.5" fill="none" r="2.0" stroke="blue" stroke-width="0.2" /><circle cx="150" cy="32.5" fill="none" r="1.5" stroke="red" stroke-width="0.2" /><circle cx="150" cy="32.5" fill="none" r="2.0" stroke="blue" stroke-width="0.2" /><circle cx="140" cy="22.5" fill="none" r="3.0" stroke="red" stroke-width="0.2" /><circle cx="140" cy="22.5" fill="none" r="6.0" stroke="blue" stroke-width="0.2" /><rect fill="none" height="15" stroke="blue" stroke-width="0.2" width="10" x="135" y="15.0" /><circle cx="130" cy="17.5" fill="none" r="1.5" stroke="red" stroke-width="0.2" /><circle cx="130" cy="17.5" fill="none" r="2.0" stroke="blue" stroke-width="0.2" /><circle cx="130" cy="22.5" fill="none" r="1.5" stroke="red" stroke-width="0.2" /><circle cx="130" cy="22.5" fill="none" r="2.0" stroke="blue" stroke-width="0.2" /><circle cx="200" cy="67.5" fill="none" r="3.0" stroke="red" stroke-width="0.2" /><circle cx="200" cy="67.5" fill="none" r="6.0" stroke="blue" stroke-width="0.2" /><rect fill="none" height="15" stroke="blue" stroke-width="0.2" width="10" x="195" y="60.0" /><circle cx="190" cy="67.5" fill="none" r="1.5" stroke="red" stroke-width="0.2" /><circle cx="190" cy="67.5" fill="none" r="2.0" stroke="blue" stroke-width="0.2" /><circle cx="190" cy="72.5" fill="none" r="1.5" stroke="red" stroke-width="0.2" /><circle cx="190" cy="72.5" fill="none" r="2.0" stroke="blue" stroke-width="0.2" /><circle cx="180" cy="77.5" fill="none" r="3.0" stroke="red" stroke-width="0.2" /><circle cx="180" cy="77.5" fill="none" r="6.0" stroke="blue" stroke-width="0.2" /><rect fill="none" height="15" stroke="blue" stroke-width="0.2" width="10" x="175" y="70.0" /><circle cx="170" cy="82.5" fill="none" r="1.5" stroke="red" stroke-width="0.2" /><circle cx="170" cy="82.5" fill="none" r="2.0" stroke="blue" stroke-width="0.2" /><circle cx="170" cy="77.5" fill="none" r="1.5" stroke="red" stroke-width="0.2" /><circle cx="170" cy="77.5" fill="none" r="2.0" stroke="blue" stroke-width="0.2" /><circle cx="160" cy="87.5" fill="none" r="3.0" stroke="red" stroke-width="0.2" /><circle cx="160" cy="87.5" fill="none" r="6.0" stroke="blue" stroke-width="0.2" /><rect fill="none" height="15" stroke="blue" stroke-width="0.2" width="10" x="155" y="80.0" /><circle cx="150" cy="92.5" fill="none" r="1.5" stroke="red" stroke-width="0.2" /><circle cx="150" cy="92.5" fill="none" r="2.0" stroke="blue" stroke-width="0.2" /><circle cx="150" cy="87.5" fill="none" r="1.5" stroke="red" stroke-width="0.2" /><circle cx="150" cy="87.5" fill="none" r="2.0" stroke="blue" stroke-width="0.2" /><circle cx="140" cy="97.5" fill="none" r="3.0" stroke="red" stroke-width="0.2" /><circle cx="140" cy="97.5" fill="none" r="6.0" stroke="blue" stroke-width="0.2" /><rect fill="none" height="15" stroke="blue" stroke-width="0.2" width="10" x="135" y="90.0" /><circle cx="130" cy="102.5" fill="none" r="1.5" stroke="red" stroke-width="0.2" /><circle cx="130" cy="102.5" fill="none" r="2.0" stroke="blue" stroke-width="0.2" /><circle cx="130" cy="97.5" fill="none" r="1.5" stroke="red" stroke-width="0.2" /><circle cx="130" cy="97.5" fill="none" r="2.0" stroke="blue" stroke-width="0.2" /></g><g inkscape:groupmode="layer" inkscape:label="Led" sodipodi:insensitive="1"><circle cx="7.5" cy="52.5" fill="yellow" r="0.5" stroke="red" stroke-width="0.2" /><circle cx="7.5" cy="67.5" fill="yellow" r="0.5" stroke="red" stroke-width="0.2" /><circle cx="192.5" cy="52.5" fill="yellow" r="0.5" stroke="red" stroke-width="0.2" /><circle cx="192.5" cy="67.5" fill="yellow" r="0.5" stroke="red" stroke-width="0.2" /><circle cx="25" cy="52.5" fill="lime" r="1.5" /><circle cx="25" cy="47.5" fill="yellow" r="1.5" /><circle cx="45" cy="37.5" fill="yellow" r="1.5" /><circle cx="45" cy="42.5" fill="lime" r="1.5" /><circle cx="65" cy="27.5" fill="red" r="1.5" /><circle cx="65" cy="32.5" fill="cyan" r="1.5" /><circle cx="85" cy="17.5" fill="yellow" r="1.5" /><circle cx="85" cy="22.5" fill="lime" r="1.5" /><circle cx="25" cy="67.5" fill="cyan" r="1.5" /><circle cx="25" cy="72.5" fill="red" r="1.5" /><circle cx="45" cy="82.5" fill="red" r="1.5" /><circle cx="45" cy="77.5" fill="cyan" r="1.5" /><circle cx="65" cy="92.5" fill="red" r="1.5" /><circle cx="65" cy="87.5" fill="cyan" r="1.5" /><circle cx="85" cy="102.5" fill="red" r="1.5" /><circle cx="85" cy="97.5" fill="cyan" r="1.5" /><circle cx="190" cy="52.5" fill="lime" r="1.5" /><circle cx="190" cy="47.5" fill="yellow" r="1.5" /><circle cx="170" cy="37.5" fill="yellow" r="1.5" /><circle cx="170" cy="42.5" fill="lime" r="1.5" /><circle cx="150" cy="27.5" fill="yellow" r="1.5" /><circle cx="150" cy="32.5" fill="lime" r="1.5" /><circle cx="130" cy="17.5" fill="yellow" r="1.5" /><circle cx="130" cy="22.5" fill="lime" r="1.5" /><circle cx="190" cy="67.5" fill="lime" r="1.5" /><circle cx="190" cy="72.5" fill="yellow" r="1.5" /><circle cx="170" cy="82.5" fill="yellow" r="1.5" /><circle cx="170" cy="77.5" fill="lime" r="1.5" /><circle cx="150" cy="92.5" fill="yellow" r="1.5" /><circle cx="150" cy="87.5" fill="lime" r="1.5" /><circle cx="130" cy="102.5" fill="yellow" r="1.5" /><circle cx="130" cy="97.5" fill="lime" r="1.5" /></g><g inkscape:groupmode="layer" inkscape:label="Outs" sodipodi:insensitive="1"><rect fill="none" height="120" stroke="red" stroke-width="0.2" width="215" x="0" y="0" /></g></svg>