<?xml version="1.0" encoding="utf-8" ?>
<svg baseProfile="full" height="14.0cm" version="1.1" viewBox="0,0,200,140" width="20.0cm" xmlns="http://www.w3.org/2000/svg" xmlns:ev="http://www.w3.org/2001/xml-events" xmlns:inkscape="http://www.inkscape.org/namespaces/inkscape" xmlns:sodipodi="http://sodipodi.sourceforge.net/DTD/sodipodi-0.dtd" xmlns:xlink="http://www.w3.org/1999/xlink"><defs><pattern height="5" id="id1" patternUnits="userSpaceOnUse" width="5"><path d="M 5 0 L 0 0 0 5" fill="none" stroke="rgb(0%,0%,100%)" stroke-width="0.1" /></pattern><pattern height="20" id="id2" patternUnits="userSpaceOnUse" width="20"><rect fill="url(#id1) none" height="20" width="20" x="0" y="0" /><path d="M 20 0 L 0 0 0 20" fill="none" stroke="rgb(0%,0%,100%)" stroke-width="0.2" /></pattern></defs><g inkscape:groupmode="layer" inkscape:label="Grid" sodipodi:insensitive="1"><rect fill="white" height="140" width="200" x="0" y="0" /><rect fill="url(#id2) none" height="140" width="200" x="0" y="0" /></g><g inkscape:groupmode="layer" inkscape:label="Track" sodipodi:insensitive="1"><polyline fill="blueviolet" points="85,20.5 45,20.5 45,24.5 85,24.5 85,20.5" stroke="none" /><polyline fill="blueviolet" points="180,20.5 105,20.5 105,24.5 180,24.5 180,20.5" stroke="none" /><polyline fill="blueviolet" points="180,30.5 85,30.5 85,34.5 180,34.5 180,30.5" stroke="none" /><polyline fill="gray" points="115,40.5 65,40.5 65,44.5 115,44.5 115,40.5" stroke="none" /><polyline fill="blueviolet" points="64.10557280900008,35.71114561800017 54.10557280900009,40.71114561800017 55.89442719099991,44.28885438199983 65.89442719099992,39.28885438199983 64.10557280900008,35.71114561800017" stroke="none" /><polyline fill="gray" points="65,40.5 45,40.5 45,44.5 65,44.5 65,40.5" stroke="none" /><circle cx="55" cy="42.5" fill="white" r="3.0" /><polyline fill="blueviolet" points="85,30.5 75,30.5 75,34.5 85,34.5 85,30.5" stroke="none" /><polyline fill="blueviolet" points="84.10557280900008,25.711145618000167 64.10557280900008,35.71114561800017 65.89442719099992,39.28885438199983 85.89442719099992,29.288854381999833 84.10557280900008,25.711145618000167" stroke="none" /><circle cx="75" cy="32.5" fill="white" r="3.0" /><polyline fill="blueviolet" points="85.89442719099992,29.288854381999833 95.89442719099992,24.288854381999833 94.10557280900008,20.711145618000167 84.10557280900008,25.711145618000167 85.89442719099992,29.288854381999833" stroke="none" /><polyline fill="blueviolet" points="85,20.5 105,20.5 105,24.5 85,24.5 85,20.5" stroke="none" /><circle cx="95" cy="22.5" fill="white" r="3.0" /><polyline fill="sandybrown" points="135.89442719099992,45.71114561800017 125.89442719099992,40.71114561800017 124.10557280900008,44.28885438199983 134.10557280900008,49.28885438199983 135.89442719099992,45.71114561800017" stroke="none" /><polyline fill="gray" points="135,40.5 115,40.5 115,44.5 135,44.5 135,40.5" stroke="none" /><circle cx="125" cy="42.5" fill="white" r="3.0" /><circle cx="145" cy="52.5" fill="sandybrown" r="2.0" /><polyline fill="sandybrown" points="155,50.5 145,50.5 145,54.5 155,54.5 155,50.5" stroke="none" /><polyline fill="sandybrown" points="145.89442719099992,50.71114561800017 135.89442719099992,45.71114561800017 134.10557280900008,49.28885438199983 144.10557280900008,54.28885438199983 145.89442719099992,50.71114561800017" stroke="none" /><polyline fill="gray" points="155,40.5 135,40.5 135,44.5 155,44.5 155,40.5" stroke="none" /><polyline fill="gray" points="155,115.5 45,115.5 45,119.5 155,119.5 155,115.5" stroke="none" /><polyline fill="gray" points="135,105.5 45,105.5 45,109.5 135,109.5 135,105.5" stroke="none" /><polyline fill="sandybrown" points="155,95.5 135,95.5 135,99.5 155,99.5 155,95.5" stroke="none" /><polyline fill="sandybrown" points="115,95.5 80,95.5 80,99.5 115,99.5 115,95.5" stroke="none" /><polyline fill="gray" points="134.10557280900008,104.28885438199983 144.10557280900008,109.28885438199983 145.89442719099992,105.71114561800017 135.89442719099992,100.71114561800017 134.10557280900008,104.28885438199983" stroke="none" /><polyline fill="gray" points="135,105.5 155,105.5 155,109.5 135,109.5 135,105.5" stroke="none" /><circle cx="145" cy="107.5" fill="white" r="3.0" /><polyline fill="sandybrown" points="135.89442719099992,100.71114561800017 125.89442719099992,95.71114561800017 124.10557280900008,99.28885438199983 134.10557280900008,104.28885438199983 135.89442719099992,100.71114561800017" stroke="none" /><polyline fill="sandybrown" points="135,95.5 115,95.5 115,99.5 135,99.5 135,95.5" stroke="none" /><circle cx="125" cy="97.5" fill="white" r="3.0" /><polyline fill="gray" points="24.288854381999833,89.10557280900008 19.288854381999833,79.10557280900008 15.711145618000169,80.89442719099992 20.711145618000167,90.89442719099992 24.288854381999833,89.10557280900008" stroke="none" /><polyline fill="gray" points="15.5,90 15.5,70 19.5,70 19.5,90 15.5,90" stroke="none" /><circle cx="17.5" cy="80" fill="white" r="3.0" /><circle cx="27.5" cy="117.5" fill="gray" r="2.0" stroke="none" /><circle cx="35" cy="107.5" fill="gray" r="2.0" stroke="none" /><circle cx="17.5" cy="107.5" fill="gray" r="2.0" stroke="none" /><circle cx="27.5" cy="100" fill="gray" r="2.0" stroke="none" /><polyline fill="gray" points="29.288854381999833,99.10557280900008 24.288854381999833,89.10557280900008 20.711145618000167,90.89442719099992 25.711145618000167,100.89442719099992 29.288854381999833,99.10557280900008" stroke="none" /><polyline fill="gray" points="36.41421356237309,106.08578643762691 28.914213562373096,98.58578643762691 26.085786437626904,101.41421356237309 33.58578643762691,108.91421356237309 36.41421356237309,106.08578643762691" stroke="none" /><polyline fill="gray" points="45,105.5 35,105.5 35,109.5 45,109.5 45,105.5" stroke="none" /><polyline fill="gray" points="15.5,107.5 15.5,90 19.5,90 19.5,107.5 15.5,107.5" stroke="none" /><polyline fill="gray" points="28.914213562373096,116.08578643762691 18.914213562373096,106.08578643762691 16.085786437626904,108.91421356237309 26.085786437626904,118.91421356237309 28.914213562373096,116.08578643762691" stroke="none" /><polyline fill="gray" points="45,115.5 27.5,115.5 27.5,119.5 45,119.5 45,115.5" stroke="none" /><polyline fill="gray" points="179.28885438199984,90.89442719099992 184.28885438199984,80.89442719099992 180.71114561800016,79.10557280900008 175.71114561800016,89.10557280900008 179.28885438199984,90.89442719099992" stroke="none" /><polyline fill="gray" points="180.5,90 180.5,70 184.5,70 184.5,90 180.5,90" stroke="none" /><circle cx="182.5" cy="80" fill="white" r="3.0" /><circle cx="172.5" cy="117.5" fill="gray" r="2.0" stroke="none" /><circle cx="165" cy="107.5" fill="gray" r="2.0" stroke="none" /><circle cx="182.5" cy="107.5" fill="gray" r="2.0" stroke="none" /><circle cx="172.5" cy="100" fill="gray" r="2.0" stroke="none" /><polyline fill="gray" points="174.28885438199984,100.89442719099992 179.28885438199984,90.89442719099992 175.71114561800016,89.10557280900008 170.71114561800016,99.10557280900008 174.28885438199984,100.89442719099992" stroke="none" /><polyline fill="gray" points="166.4142135623731,108.91421356237309 173.9142135623731,101.41421356237309 171.0857864376269,98.58578643762691 163.5857864376269,106.08578643762691 166.4142135623731,108.91421356237309" stroke="none" /><polyline fill="gray" points="155,105.5 165,105.5 165,109.5 155,109.5 155,105.5" stroke="none" /><polyline fill="gray" points="180.5,107.5 180.5,90 184.5,90 184.5,107.5 180.5,107.5" stroke="none" /><polyline fill="gray" points="173.9142135623731,118.91421356237309 183.9142135623731,108.91421356237309 181.0857864376269,106.08578643762691 171.0857864376269,116.08578643762691 173.9142135623731,118.91421356237309" stroke="none" /><polyline fill="gray" points="155,115.5 172.5,115.5 172.5,119.5 155,119.5 155,115.5" stroke="none" /><polyline fill="gray" points="15.5,57.5 15.5,70 19.5,70 19.5,57.5 15.5,57.5" stroke="none" /><polyline fill="gray" points="31.085786437626904,41.08578643762691 16.085786437626904,56.08578643762691 18.914213562373096,58.91421356237309 33.91421356237309,43.91421356237309 31.085786437626904,41.08578643762691" stroke="none" /><polyline fill="gray" points="45,40.5 32.5,40.5 32.5,44.5 45,44.5 45,40.5" stroke="none" /><circle cx="17.5" cy="57.5" fill="gray" r="2.0" stroke="none" /><circle cx="32.5" cy="42.5" fill="gray" r="2.0" stroke="none" /><polyline fill="gray" points="180.5,57.5 180.5,70 184.5,70 184.5,57.5 180.5,57.5" stroke="none" /><polyline fill="gray" points="166.0857864376269,43.91421356237309 181.0857864376269,58.91421356237309 183.9142135623731,56.08578643762691 168.9142135623731,41.08578643762691 166.0857864376269,43.91421356237309" stroke="none" /><polyline fill="gray" points="155,40.5 167.5,40.5 167.5,44.5 155,44.5 155,40.5" stroke="none" /><circle cx="182.5" cy="57.5" fill="gray" r="2.0" stroke="none" /><circle cx="167.5" cy="42.5" fill="gray" r="2.0" stroke="none" /><polyline fill="sandybrown" points="170.5,67.5 170.5,70 174.5,70 174.5,67.5 170.5,67.5" stroke="none" /><polyline fill="sandybrown" points="156.0857864376269,53.91421356237309 171.0857864376269,68.91421356237309 173.9142135623731,66.08578643762691 158.9142135623731,51.08578643762691 156.0857864376269,53.91421356237309" stroke="none" /><polyline fill="sandybrown" points="155,50.5 157.5,50.5 157.5,54.5 155,54.5 155,50.5" stroke="none" /><circle cx="172.5" cy="67.5" fill="sandybrown" r="2.0" stroke="none" /><circle cx="157.5" cy="52.5" fill="sandybrown" r="2.0" stroke="none" /><polyline fill="sandybrown" points="170.5,82.5 170.5,80 174.5,80 174.5,82.5 170.5,82.5" stroke="none" /><polyline fill="sandybrown" points="158.9142135623731,98.91421356237309 173.9142135623731,83.91421356237309 171.0857864376269,81.08578643762691 156.0857864376269,96.08578643762691 158.9142135623731,98.91421356237309" stroke="none" /><polyline fill="sandybrown" points="155,95.5 157.5,95.5 157.5,99.5 155,99.5 155,95.5" stroke="none" /><circle cx="172.5" cy="82.5" fill="sandybrown" r="2.0" stroke="none" /><circle cx="157.5" cy="97.5" fill="sandybrown" r="2.0" stroke="none" /><polyline fill="sandybrown" points="170.5,80 170.5,70 174.5,70 174.5,80 170.5,80" stroke="none" /></g><g inkscape:groupmode="layer" inkscape:label="Cut" sodipodi:insensitive="1"><circle cx="55" cy="42.5" fill="none" r="3.0" stroke="red" stroke-width="0.2" /><circle cx="55" cy="42.5" fill="none" r="6.0" stroke="blue" stroke-width="0.2" /><rect fill="none" height="15" stroke="blue" stroke-width="0.2" width="10" x="50" y="35.0" /><circle cx="65" cy="42.5" fill="none" r="1.5" stroke="red" stroke-width="0.2" /><circle cx="65" cy="42.5" fill="none" r="2.0" stroke="blue" stroke-width="0.2" /><circle cx="65" cy="37.5" fill="none" r="1.5" stroke="red" stroke-width="0.2" /><circle cx="65" cy="37.5" fill="none" r="2.0" stroke="blue" stroke-width="0.2" /><circle cx="75" cy="32.5" fill="none" r="3.0" stroke="red" stroke-width="0.2" /><circle cx="75" cy="32.5" fill="none" r="6.0" stroke="blue" stroke-width="0.2" /><rect fill="none" height="15" stroke="blue" stroke-width="0.2" width="10" x="70" y="25.0" /><circle cx="85" cy="27.5" fill="none" r="1.5" stroke="red" stroke-width="0.2" /><circle cx="85" cy="27.5" fill="none" r="2.0" stroke="blue" stroke-width="0.2" /><circle cx="85" cy="32.5" fill="none" r="1.5" stroke="red" stroke-width="0.2" /><circle cx="85" cy="32.5" fill="none" r="2.0" stroke="blue" stroke-width="0.2" /><circle cx="95" cy="22.5" fill="none" r="3.0" stroke="red" stroke-width="0.2" /><circle cx="95" cy="22.5" fill="none" r="6.0" stroke="blue" stroke-width="0.2" /><rect fill="none" height="15" stroke="blue" stroke-width="0.2" width="10" x="90" y="15.0" /><circle cx="85" cy="22.5" fill="none" r="1.5" stroke="red" stroke-width="0.2" /><circle cx="85" cy="22.5" fill="none" r="2.0" stroke="blue" stroke-width="0.2" /><circle cx="125" cy="42.5" fill="none" r="3.0" stroke="red" stroke-width="0.2" /><circle cx="125" cy="42.5" fill="none" r="6.0" stroke="blue" stroke-width="0.2" /><rect fill="none" height="15" stroke="blue" stroke-width="0.2" width="10" x="120" y="35.0" /><circle cx="135" cy="42.5" fill="none" r="1.5" stroke="red" stroke-width="0.2" /><circle cx="135" cy="42.5" fill="none" r="2.0" stroke="blue" stroke-width="0.2" /><circle cx="135" cy="47.5" fill="none" r="1.5" stroke="red" stroke-width="0.2" /><circle cx="135" cy="47.5" fill="none" r="2.0" stroke="blue" stroke-width="0.2" /><circle cx="145" cy="107.5" fill="none" r="3.0" stroke="red" stroke-width="0.2" /><circle cx="145" cy="107.5" fill="none" r="6.0" stroke="blue" stroke-width="0.2" /><rect fill="none" height="15" stroke="blue" stroke-width="0.2" width="10" x="140" y="100.0" /><circle cx="135" cy="107.5" fill="none" r="1.5" stroke="red" stroke-width="0.2" /><circle cx="135" cy="107.5" fill="none" r="2.0" stroke="blue" stroke-width="0.2" /><circle cx="135" cy="102.5" fill="none" r="1.5" stroke="red" stroke-width="0.2" /><circle cx="135" cy="102.5" fill="none" r="2.0" stroke="blue" stroke-width="0.2" /><circle cx="125" cy="97.5" fill="none" r="3.0" stroke="red" stroke-width="0.2" /><circle cx="125" cy="97.5" fill="none" r="6.0" stroke="blue" stroke-width="0.2" /><rect fill="none" height="15" stroke="blue" stroke-width="0.2" width="10" x="120" y="90.0" /><circle cx="135" cy="97.5" fill="none" r="1.5" stroke="red" stroke-width="0.2" /><circle cx="135" cy="97.5" fill="none" r="2.0" stroke="blue" stroke-width="0.2" /><circle cx="17.5" cy="80" fill="none" r="3.0" stroke="red" stroke-width="0.2" /><circle cx="17.5" cy="80" fill="none" r="6.0" stroke="blue" stroke-width="0.2" /><rect fill="none" height="10" stroke="blue" stroke-width="0.2" width="15" x="10.0" y="75" /><circle cx="17.5" cy="90" fill="none" r="1.5" stroke="red" stroke-width="0.2" /><circle cx="17.5" cy="90" fill="none" r="2.0" stroke="blue" stroke-width="0.2" /><circle cx="22.5" cy="90" fill="none" r="1.5" stroke="red" stroke-width="0.2" /><circle cx="22.5" cy="90" fill="none" r="2.0" stroke="blue" stroke-width="0.2" /><circle cx="182.5" cy="80" fill="none" r="3.0" stroke="red" stroke-width="0.2" /><circle cx="182.5" cy="80" fill="none" r="6.0" stroke="blue" stroke-width="0.2" /><rect fill="none" height="10" stroke="blue" stroke-width="0.2" width="15" x="175.0" y="75" /><circle cx="182.5" cy="90" fill="none" r="1.5" stroke="red" stroke-width="0.2" /><circle cx="182.5" cy="90" fill="none" r="2.0" stroke="blue" stroke-width="0.2" /><circle cx="177.5" cy="90" fill="none" r="1.5" stroke="red" stroke-width="0.2" /><circle cx="177.5" cy="90" fill="none" r="2.0" stroke="blue" stroke-width="0.2" /><circle cx="25" cy="50" fill="none" r="1.5" stroke="red" stroke-width="0.2" /><circle cx="25" cy="50" fill="none" r="2.0" stroke="blue" stroke-width="0.2" /><circle cx="30" cy="102.5" fill="none" r="1.5" stroke="red" stroke-width="0.2" /><circle cx="30" cy="102.5" fill="none" r="2.0" stroke="blue" stroke-width="0.2" /><circle cx="22.5" cy="112.5" fill="none" r="1.5" stroke="red" stroke-width="0.2" /><circle cx="22.5" cy="112.5" fill="none" r="2.0" stroke="blue" stroke-width="0.2" /><circle cx="67.5" cy="117.5" fill="none" r="1.5" stroke="red" stroke-width="0.2" /><circle cx="67.5" cy="117.5" fill="none" r="2.0" stroke="blue" stroke-width="0.2" /><circle cx="67.5" cy="107.5" fill="none" r="1.5" stroke="red" stroke-width="0.2" /><circle cx="67.5" cy="107.5" fill="none" r="2.0" stroke="blue" stroke-width="0.2" /><circle cx="97.5" cy="117.5" fill="none" r="1.5" stroke="red" stroke-width="0.2" /><circle cx="97.5" cy="117.5" fill="none" r="2.0" stroke="blue" stroke-width="0.2" /><circle cx="97.5" cy="107.5" fill="none" r="1.5" stroke="red" stroke-width="0.2" /><circle cx="97.5" cy="107.5" fill="none" r="2.0" stroke="blue" stroke-width="0.2" /><circle cx="125" cy="117.5" fill="none" r="1.5" stroke="red" stroke-width="0.2" /><circle cx="125" cy="117.5" fill="none" r="2.0" stroke="blue" stroke-width="0.2" /><circle cx="125" cy="107.5" fill="none" r="1.5" stroke="red" stroke-width="0.2" /><circle cx="125" cy="107.5" fill="none" r="2.0" stroke="blue" stroke-width="0.2" /><circle cx="145" cy="42.5" fill="none" r="1.5" stroke="red" stroke-width="0.2" /><circle cx="145" cy="42.5" fill="none" r="2.0" stroke="blue" stroke-width="0.2" /><circle cx="107.5" cy="42.5" fill="none" r="1.5" stroke="red" stroke-width="0.2" /><circle cx="107.5" cy="42.5" fill="none" r="2.0" stroke="blue" stroke-width="0.2" /><circle cx="85" cy="42.5" fill="none" r="1.5" stroke="red" stroke-width="0.2" /><circle cx="85" cy="42.5" fill="none" r="2.0" stroke="blue" stroke-width="0.2" /><circle cx="175" cy="50" fill="none" r="1.5" stroke="red" stroke-width="0.2" /><circle cx="175" cy="50" fill="none" r="2.0" stroke="blue" stroke-width="0.2" /><circle cx="170" cy="102.5" fill="none" r="1.5" stroke="red" stroke-width="0.2" /><circle cx="170" cy="102.5" fill="none" r="2.0" stroke="blue" stroke-width="0.2" /><circle cx="177.5" cy="112.5" fill="none" r="1.5" stroke="red" stroke-width="0.2" /><circle cx="177.5" cy="112.5" fill="none" r="2.0" stroke="blue" stroke-width="0.2" /><circle cx="97.5" cy="97.5" fill="none" r="1.5" stroke="red" stroke-width="0.2" /><circle cx="97.5" cy="97.5" fill="none" r="2.0" stroke="blue" stroke-width="0.2" /><circle cx="145" cy="97.5" fill="none" r="1.5" stroke="red" stroke-width="0.2" /><circle cx="145" cy="97.5" fill="none" r="2.0" stroke="blue" stroke-width="0.2" /><circle cx="165" cy="90" fill="none" r="1.5" stroke="red" stroke-width="0.2" /><circle cx="165" cy="90" fill="none" r="2.0" stroke="blue" stroke-width="0.2" /><circle cx="165" cy="60" fill="none" r="1.5" stroke="red" stroke-width="0.2" /><circle cx="165" cy="60" fill="none" r="2.0" stroke="blue" stroke-width="0.2" /><circle cx="145" cy="52.5" fill="none" r="1.5" stroke="red" stroke-width="0.2" /><circle cx="145" cy="52.5" fill="none" r="2.0" stroke="blue" stroke-width="0.2" /><circle cx="157.5" cy="32.5" fill="none" r="1.5" stroke="red" stroke-width="0.2" /><circle cx="157.5" cy="32.5" fill="none" r="2.0" stroke="blue" stroke-width="0.2" /><circle cx="157.5" cy="22.5" fill="none" r="1.5" stroke="red" stroke-width="0.2" /><circle cx="157.5" cy="22.5" fill="none" r="2.0" stroke="blue" stroke-width="0.2" /><circle cx="135" cy="32.5" fill="none" r="1.5" stroke="red" stroke-width="0.2" /><circle cx="135" cy="32.5" fill="none" r="2.0" stroke="blue" stroke-width="0.2" /><circle cx="135" cy="22.5" fill="none" r="1.5" stroke="red" stroke-width="0.2" /><circle cx="135" cy="22.5" fill="none" r="2.0" stroke="blue" stroke-width="0.2" /><circle cx="107.5" cy="32.5" fill="none" r="1.5" stroke="red" stroke-width="0.2" /><circle cx="107.5" cy="32.5" fill="none" r="2.0" stroke="blue" stroke-width="0.2" /><circle cx="107.5" cy="22.5" fill="none" r="1.5" stroke="red" stroke-width="0.2" /><circle cx="107.5" cy="22.5" fill="none" r="2.0" stroke="blue" stroke-width="0.2" /><circle cx="65" cy="22.5" fill="none" r="1.5" stroke="red" stroke-width="0.2" /><circle cx="65" cy="22.5" fill="none" r="2.0" stroke="blue" stroke-width="0.2" /></g><g inkscape:groupmode="layer" inkscape:label="Led" sodipodi:insensitive="1"><circle cx="65" cy="42.5" fill="lime" r="1.5" /><circle cx="65" cy="37.5" fill="yellow" r="1.5" /><circle cx="85" cy="27.5" fill="yellow" r="1.5" /><circle cx="85" cy="32.5" fill="lime" r="1.5" /><circle cx="85" cy="22.5" fill="lime" r="1.5" /><circle cx="135" cy="42.5" fill="lime" r="1.5" /><circle cx="135" cy="47.5" fill="yellow" r="1.5" /><circle cx="135" cy="107.5" fill="lime" r="1.5" /><circle cx="135" cy="102.5" fill="yellow" r="1.5" /><circle cx="135" cy="97.5" fill="lime" r="1.5" /><circle cx="17.5" cy="90" fill="lime" r="1.5" /><circle cx="22.5" cy="90" fill="yellow" r="1.5" /><circle cx="182.5" cy="90" fill="lime" r="1.5" /><circle cx="177.5" cy="90" fill="yellow" r="1.5" /><circle cx="25" cy="50" fill="lightcoral" r="1.5" /><circle cx="30" cy="102.5" fill="lightcoral" r="1.5" /><circle cx="22.5" cy="112.5" fill="lightcoral" r="1.5" /><circle cx="67.5" cy="117.5" fill="lightcoral" r="1.5" /><circle cx="67.5" cy="107.5" fill="lightcoral" r="1.5" /><circle cx="97.5" cy="117.5" fill="lightcoral" r="1.5" /><circle cx="97.5" cy="107.5" fill="lightcoral" r="1.5" /><circle cx="125" cy="117.5" fill="lightcoral" r="1.5" /><circle cx="125" cy="107.5" fill="lightcoral" r="1.5" /><circle cx="145" cy="42.5" fill="lightcoral" r="1.5" /><circle cx="107.5" cy="42.5" fill="lightcoral" r="1.5" /><circle cx="85" cy="42.5" fill="lightcoral" r="1.5" /><circle cx="175" cy="50" fill="lightcoral" r="1.5" /><circle cx="170" cy="102.5" fill="lightcoral" r="1.5" /><circle cx="177.5" cy="112.5" fill="lightcoral" r="1.5" /><circle cx="97.5" cy="97.5" fill="mistyrose" r="1.5" /><circle cx="145" cy="97.5" fill="mistyrose" r="1.5" /><circle cx="165" cy="90" fill="mistyrose" r="1.5" /><circle cx="165" cy="60" fill="mistyrose" r="1.5" /><circle cx="145" cy="52.5" fill="mistyrose" r="1.5" /><circle cx="157.5" cy="32.5" fill="lightblue" r="1.5" /><circle cx="157.5" cy="22.5" fill="lightblue" r="1.5" /><circle cx="135" cy="32.5" fill="lightblue" r="1.5" /><circle cx="135" cy="22.5" fill="lightblue" r="1.5" /><circle cx="107.5" cy="32.5" fill="lightblue" r="1.5" /><circle cx="107.5" cy="22.5" fill="lightblue" r="1.5" /><circle cx="65" cy="22.5" fill="lightblue" r="1.5" /></g><g inkscape:groupmode="layer" inkscape:label="Outs" sodipodi:insensitive="1"><rect fill="none" height="126" stroke="blue" stroke-width="0.2" width="186" x="7" y="7" /><rect fill="none" height="140" stroke="red" stroke-width="0.2" width="200" x="0" y="0" /></g></svg>