<?xml version="1.0" encoding="utf-8" ?>
<svg baseProfile="full" height="12.0cm" version="1.1" viewBox="0,0,200,120" width="20.0cm" xmlns="http://www.w3.org/2000/svg" xmlns:ev="http://www.w3.org/2001/xml-events" xmlns:inkscape="http://www.inkscape.org/namespaces/inkscape" xmlns:sodipodi="http://sodipodi.sourceforge.net/DTD/sodipodi-0.dtd" xmlns:xlink="http://www.w3.org/1999/xlink"><defs><pattern height="5" id="id1" patternUnits="userSpaceOnUse" width="5"><path d="M 5 0 L 0 0 0 5" fill="none" stroke="rgb(0%,0%,100%)" stroke-width="0.1" /></pattern><pattern height="20" id="id2" patternUnits="userSpaceOnUse" width="20"><rect fill="url(#id1) none" height="20" width="20" x="0" y="0" /><path d="M 20 0 L 0 0 0 20" fill="none" stroke="rgb(0%,0%,100%)" stroke-width="0.2" /></pattern></defs><g inkscape:groupmode="layer" inkscape:label="GridLayer" sodipodi:insensitive="1"><rect fill="white" height="120" width="200" x="0" y="0" /><rect fill="url(#id2) none" height="120" width="200" x="0" y="0" /></g><g inkscape:groupmode="layer" inkscape:label="Track" sodipodi:insensitive="1"><polyline fill="blueviolet" points="80,10.5 40,10.5 40,14.5 80,14.5 80,10.5" stroke="none" /><polyline fill="blueviolet" points="195,10.5 100,10.5 100,14.5 195,14.5 195,10.5" stroke="none" /><polyline fill="blueviolet" points="195,20.5 80,20.5 80,24.5 195,24.5 195,20.5" stroke="none" /><polyline fill="gray" points="120,30.5 60,30.5 60,34.5 120,34.5 120,30.5" stroke="none" /><polyline fill="blueviolet" points="59.10557280900009,25.711145618000167 49.10557280900009,30.711145618000167 50.89442719099991,34.28885438199983 60.89442719099991,29.288854381999833 59.10557280900009,25.711145618000167" stroke="none" /><polyline fill="gray" points="60,30.5 40,30.5 40,34.5 60,34.5 60,30.5" stroke="none" /><circle cx="50" cy="32.5" fill="white" r="3.0" /><polyline fill="blueviolet" points="80,20.5 70,20.5 70,24.5 80,24.5 80,20.5" stroke="none" /><polyline fill="blueviolet" points="79.10557280900008,15.711145618000169 59.10557280900009,25.711145618000167 60.89442719099991,29.288854381999833 80.89442719099992,19.288854381999833 79.10557280900008,15.711145618000169" stroke="none" /><circle cx="70" cy="22.5" fill="white" r="3.0" /><polyline fill="blueviolet" points="80.89442719099992,19.288854381999833 90.89442719099992,14.288854381999831 89.10557280900008,10.711145618000169 79.10557280900008,15.711145618000169 80.89442719099992,19.288854381999833" stroke="none" /><polyline fill="blueviolet" points="80,10.5 100,10.5 100,14.5 80,14.5 80,10.5" stroke="none" /><circle cx="90" cy="12.5" fill="white" r="3.0" /><polyline fill="sandybrown" points="140.89442719099992,35.71114561800017 130.89442719099992,30.711145618000167 129.10557280900008,34.28885438199983 139.10557280900008,39.28885438199983 140.89442719099992,35.71114561800017" stroke="none" /><polyline fill="gray" points="140,30.5 120,30.5 120,34.5 140,34.5 140,30.5" stroke="none" /><circle cx="130" cy="32.5" fill="white" r="3.0" /><circle cx="150" cy="42.5" fill="sandybrown" r="2.0" /><polyline fill="sandybrown" points="160,40.5 150,40.5 150,44.5 160,44.5 160,40.5" stroke="none" /><polyline fill="sandybrown" points="150.89442719099992,40.71114561800017 140.89442719099992,35.71114561800017 139.10557280900008,39.28885438199983 149.10557280900008,44.28885438199983 150.89442719099992,40.71114561800017" stroke="none" /><polyline fill="gray" points="160,30.5 140,30.5 140,34.5 160,34.5 160,30.5" stroke="none" /><polyline fill="gray" points="160,105.5 40,105.5 40,109.5 160,109.5 160,105.5" stroke="none" /><polyline fill="gray" points="140,95.5 40,95.5 40,99.5 140,99.5 140,95.5" stroke="none" /><polyline fill="sandybrown" points="160,85.5 140,85.5 140,89.5 160,89.5 160,85.5" stroke="none" /><polyline fill="sandybrown" points="120,85.5 80,85.5 80,89.5 120,89.5 120,85.5" stroke="none" /><polyline fill="gray" points="139.10557280900008,94.28885438199983 149.10557280900008,99.28885438199983 150.89442719099992,95.71114561800017 140.89442719099992,90.71114561800017 139.10557280900008,94.28885438199983" stroke="none" /><polyline fill="gray" points="140,95.5 160,95.5 160,99.5 140,99.5 140,95.5" stroke="none" /><circle cx="150" cy="97.5" fill="white" r="3.0" /><polyline fill="sandybrown" points="140.89442719099992,90.71114561800017 130.89442719099992,85.71114561800017 129.10557280900008,89.28885438199983 139.10557280900008,94.28885438199983 140.89442719099992,90.71114561800017" stroke="none" /><polyline fill="sandybrown" points="140,85.5 120,85.5 120,89.5 140,89.5 140,85.5" stroke="none" /><circle cx="130" cy="87.5" fill="white" r="3.0" /><polyline fill="gray" points="19.288854381999833,79.10557280900008 14.288854381999831,69.10557280900008 10.711145618000169,70.89442719099992 15.711145618000169,80.89442719099992 19.288854381999833,79.10557280900008" stroke="none" /><polyline fill="gray" points="10.5,80 10.5,60 14.5,60 14.5,80 10.5,80" stroke="none" /><circle cx="12.5" cy="70" fill="white" r="3.0" /><circle cx="22.5" cy="107.5" fill="gray" r="2.0" stroke="none" /><circle cx="30" cy="97.5" fill="gray" r="2.0" stroke="none" /><circle cx="12.5" cy="97.5" fill="gray" r="2.0" stroke="none" /><circle cx="22.5" cy="90" fill="gray" r="2.0" stroke="none" /><polyline fill="gray" points="24.288854381999833,89.10557280900008 19.288854381999833,79.10557280900008 15.711145618000169,80.89442719099992 20.711145618000167,90.89442719099992 24.288854381999833,89.10557280900008" stroke="none" /><polyline fill="gray" points="31.414213562373096,96.08578643762691 23.914213562373096,88.58578643762691 21.085786437626904,91.41421356237309 28.585786437626904,98.91421356237309 31.414213562373096,96.08578643762691" stroke="none" /><polyline fill="gray" points="40,95.5 30,95.5 30,99.5 40,99.5 40,95.5" stroke="none" /><polyline fill="gray" points="10.5,97.5 10.5,80 14.5,80 14.5,97.5 10.5,97.5" stroke="none" /><polyline fill="gray" points="23.914213562373096,106.08578643762691 13.914213562373096,96.08578643762691 11.085786437626904,98.91421356237309 21.085786437626904,108.91421356237309 23.914213562373096,106.08578643762691" stroke="none" /><polyline fill="gray" points="40,105.5 22.5,105.5 22.5,109.5 40,109.5 40,105.5" stroke="none" /><polyline fill="gray" points="184.28885438199984,80.89442719099992 189.28885438199984,70.89442719099992 185.71114561800016,69.10557280900008 180.71114561800016,79.10557280900008 184.28885438199984,80.89442719099992" stroke="none" /><polyline fill="gray" points="185.5,80 185.5,60 189.5,60 189.5,80 185.5,80" stroke="none" /><circle cx="187.5" cy="70" fill="white" r="3.0" /><circle cx="177.5" cy="107.5" fill="gray" r="2.0" stroke="none" /><circle cx="170" cy="97.5" fill="gray" r="2.0" stroke="none" /><circle cx="187.5" cy="97.5" fill="gray" r="2.0" stroke="none" /><circle cx="177.5" cy="90" fill="gray" r="2.0" stroke="none" /><polyline fill="gray" points="179.28885438199984,90.89442719099992 184.28885438199984,80.89442719099992 180.71114561800016,79.10557280900008 175.71114561800016,89.10557280900008 179.28885438199984,90.89442719099992" stroke="none" /><polyline fill="gray" points="171.4142135623731,98.91421356237309 178.9142135623731,91.41421356237309 176.0857864376269,88.58578643762691 168.5857864376269,96.08578643762691 171.4142135623731,98.91421356237309" stroke="none" /><polyline fill="gray" points="160,95.5 170,95.5 170,99.5 160,99.5 160,95.5" stroke="none" /><polyline fill="gray" points="185.5,97.5 185.5,80 189.5,80 189.5,97.5 185.5,97.5" stroke="none" /><polyline fill="gray" points="178.9142135623731,108.91421356237309 188.9142135623731,98.91421356237309 186.0857864376269,96.08578643762691 176.0857864376269,106.08578643762691 178.9142135623731,108.91421356237309" stroke="none" /><polyline fill="gray" points="160,105.5 177.5,105.5 177.5,109.5 160,109.5 160,105.5" stroke="none" /><polyline fill="gray" points="10.5,47.5 10.5,60 14.5,60 14.5,47.5 10.5,47.5" stroke="none" /><polyline fill="gray" points="26.085786437626904,31.085786437626904 11.085786437626904,46.08578643762691 13.914213562373096,48.91421356237309 28.914213562373096,33.91421356237309 26.085786437626904,31.085786437626904" stroke="none" /><polyline fill="gray" points="40,30.5 27.5,30.5 27.5,34.5 40,34.5 40,30.5" stroke="none" /><circle cx="12.5" cy="47.5" fill="gray" r="2.0" stroke="none" /><circle cx="27.5" cy="32.5" fill="gray" r="2.0" stroke="none" /><polyline fill="gray" points="185.5,47.5 185.5,60 189.5,60 189.5,47.5 185.5,47.5" stroke="none" /><polyline fill="gray" points="171.0857864376269,33.91421356237309 186.0857864376269,48.91421356237309 188.9142135623731,46.08578643762691 173.9142135623731,31.085786437626904 171.0857864376269,33.91421356237309" stroke="none" /><polyline fill="gray" points="160,30.5 172.5,30.5 172.5,34.5 160,34.5 160,30.5" stroke="none" /><circle cx="187.5" cy="47.5" fill="gray" r="2.0" stroke="none" /><circle cx="172.5" cy="32.5" fill="gray" r="2.0" stroke="none" /><polyline fill="sandybrown" points="175.5,57.5 175.5,60 179.5,60 179.5,57.5 175.5,57.5" stroke="none" /><polyline fill="sandybrown" points="161.0857864376269,43.91421356237309 176.0857864376269,58.91421356237309 178.9142135623731,56.08578643762691 163.9142135623731,41.08578643762691 161.0857864376269,43.91421356237309" stroke="none" /><polyline fill="sandybrown" points="160,40.5 162.5,40.5 162.5,44.5 160,44.5 160,40.5" stroke="none" /><circle cx="177.5" cy="57.5" fill="sandybrown" r="2.0" stroke="none" /><circle cx="162.5" cy="42.5" fill="sandybrown" r="2.0" stroke="none" /><polyline fill="sandybrown" points="175.5,72.5 175.5,70 179.5,70 179.5,72.5 175.5,72.5" stroke="none" /><polyline fill="sandybrown" points="163.9142135623731,88.91421356237309 178.9142135623731,73.91421356237309 176.0857864376269,71.08578643762691 161.0857864376269,86.08578643762691 163.9142135623731,88.91421356237309" stroke="none" /><polyline fill="sandybrown" points="160,85.5 162.5,85.5 162.5,89.5 160,89.5 160,85.5" stroke="none" /><circle cx="177.5" cy="72.5" fill="sandybrown" r="2.0" stroke="none" /><circle cx="162.5" cy="87.5" fill="sandybrown" r="2.0" stroke="none" /><polyline fill="sandybrown" points="175.5,70 175.5,60 179.5,60 179.5,70 175.5,70" stroke="none" /></g><g inkscape:groupmode="layer" inkscape:label="Cut" sodipodi:insensitive="1"><circle cx="50" cy="32.5" fill="none" r="3.0" stroke="red" stroke-width="0.2" /><circle cx="50" cy="32.5" fill="none" r="6.0" stroke="blue" stroke-width="0.2" /><rect fill="none" height="15" stroke="blue" stroke-width="0.2" width="10" x="45" y="25.0" /><circle cx="60" cy="32.5" fill="none" r="1.5" stroke="red" stroke-width="0.2" /><circle cx="60" cy="32.5" fill="none" r="2.0" stroke="blue" stroke-width="0.2" /><circle cx="60" cy="27.5" fill="none" r="1.5" stroke="red" stroke-width="0.2" /><circle cx="60" cy="27.5" fill="none" r="2.0" stroke="blue" stroke-width="0.2" /><circle cx="70" cy="22.5" fill="none" r="3.0" stroke="red" stroke-width="0.2" /><circle cx="70" cy="22.5" fill="none" r="6.0" stroke="blue" stroke-width="0.2" /><rect fill="none" height="15" stroke="blue" stroke-width="0.2" width="10" x="65" y="15.0" /><circle cx="80" cy="17.5" fill="none" r="1.5" stroke="red" stroke-width="0.2" /><circle cx="80" cy="17.5" fill="none" r="2.0" stroke="blue" stroke-width="0.2" /><circle cx="80" cy="22.5" fill="none" r="1.5" stroke="red" stroke-width="0.2" /><circle cx="80" cy="22.5" fill="none" r="2.0" stroke="blue" stroke-width="0.2" /><circle cx="90" cy="12.5" fill="none" r="3.0" stroke="red" stroke-width="0.2" /><circle cx="90" cy="12.5" fill="none" r="6.0" stroke="blue" stroke-width="0.2" /><rect fill="none" height="15" stroke="blue" stroke-width="0.2" width="10" x="85" y="5.0" /><circle cx="80" cy="12.5" fill="none" r="1.5" stroke="red" stroke-width="0.2" /><circle cx="80" cy="12.5" fill="none" r="2.0" stroke="blue" stroke-width="0.2" /><circle cx="130" cy="32.5" fill="none" r="3.0" stroke="red" stroke-width="0.2" /><circle cx="130" cy="32.5" fill="none" r="6.0" stroke="blue" stroke-width="0.2" /><rect fill="none" height="15" stroke="blue" stroke-width="0.2" width="10" x="125" y="25.0" /><circle cx="140" cy="32.5" fill="none" r="1.5" stroke="red" stroke-width="0.2" /><circle cx="140" cy="32.5" fill="none" r="2.0" stroke="blue" stroke-width="0.2" /><circle cx="140" cy="37.5" fill="none" r="1.5" stroke="red" stroke-width="0.2" /><circle cx="140" cy="37.5" fill="none" r="2.0" stroke="blue" stroke-width="0.2" /><circle cx="150" cy="97.5" fill="none" r="3.0" stroke="red" stroke-width="0.2" /><circle cx="150" cy="97.5" fill="none" r="6.0" stroke="blue" stroke-width="0.2" /><rect fill="none" height="15" stroke="blue" stroke-width="0.2" width="10" x="145" y="90.0" /><circle cx="140" cy="97.5" fill="none" r="1.5" stroke="red" stroke-width="0.2" /><circle cx="140" cy="97.5" fill="none" r="2.0" stroke="blue" stroke-width="0.2" /><circle cx="140" cy="92.5" fill="none" r="1.5" stroke="red" stroke-width="0.2" /><circle cx="140" cy="92.5" fill="none" r="2.0" stroke="blue" stroke-width="0.2" /><circle cx="130" cy="87.5" fill="none" r="3.0" stroke="red" stroke-width="0.2" /><circle cx="130" cy="87.5" fill="none" r="6.0" stroke="blue" stroke-width="0.2" /><rect fill="none" height="15" stroke="blue" stroke-width="0.2" width="10" x="125" y="80.0" /><circle cx="140" cy="87.5" fill="none" r="1.5" stroke="red" stroke-width="0.2" /><circle cx="140" cy="87.5" fill="none" r="2.0" stroke="blue" stroke-width="0.2" /><circle cx="12.5" cy="70" fill="none" r="3.0" stroke="red" stroke-width="0.2" /><circle cx="12.5" cy="70" fill="none" r="6.0" stroke="blue" stroke-width="0.2" /><rect fill="none" height="10" stroke="blue" stroke-width="0.2" width="15" x="5.0" y="65" /><circle cx="12.5" cy="80" fill="none" r="1.5" stroke="red" stroke-width="0.2" /><circle cx="12.5" cy="80" fill="none" r="2.0" stroke="blue" stroke-width="0.2" /><circle cx="17.5" cy="80" fill="none" r="1.5" stroke="red" stroke-width="0.2" /><circle cx="17.5" cy="80" fill="none" r="2.0" stroke="blue" stroke-width="0.2" /><circle cx="187.5" cy="70" fill="none" r="3.0" stroke="red" stroke-width="0.2" /><circle cx="187.5" cy="70" fill="none" r="6.0" stroke="blue" stroke-width="0.2" /><rect fill="none" height="10" stroke="blue" stroke-width="0.2" width="15" x="180.0" y="65" /><circle cx="187.5" cy="80" fill="none" r="1.5" stroke="red" stroke-width="0.2" /><circle cx="187.5" cy="80" fill="none" r="2.0" stroke="blue" stroke-width="0.2" /><circle cx="182.5" cy="80" fill="none" r="1.5" stroke="red" stroke-width="0.2" /><circle cx="182.5" cy="80" fill="none" r="2.0" stroke="blue" stroke-width="0.2" /><circle cx="20" cy="40" fill="none" r="1.5" stroke="red" stroke-width="0.2" /><circle cx="20" cy="40" fill="none" r="2.0" stroke="blue" stroke-width="0.2" /><circle cx="25" cy="92.5" fill="none" r="1.5" stroke="red" stroke-width="0.2" /><circle cx="25" cy="92.5" fill="none" r="2.0" stroke="blue" stroke-width="0.2" /><circle cx="17.5" cy="102.5" fill="none" r="1.5" stroke="red" stroke-width="0.2" /><circle cx="17.5" cy="102.5" fill="none" r="2.0" stroke="blue" stroke-width="0.2" /><circle cx="60" cy="107.5" fill="none" r="1.5" stroke="red" stroke-width="0.2" /><circle cx="60" cy="107.5" fill="none" r="2.0" stroke="blue" stroke-width="0.2" /><circle cx="60" cy="97.5" fill="none" r="1.5" stroke="red" stroke-width="0.2" /><circle cx="60" cy="97.5" fill="none" r="2.0" stroke="blue" stroke-width="0.2" /><circle cx="100" cy="107.5" fill="none" r="1.5" stroke="red" stroke-width="0.2" /><circle cx="100" cy="107.5" fill="none" r="2.0" stroke="blue" stroke-width="0.2" /><circle cx="100" cy="97.5" fill="none" r="1.5" stroke="red" stroke-width="0.2" /><circle cx="100" cy="97.5" fill="none" r="2.0" stroke="blue" stroke-width="0.2" /><circle cx="140" cy="107.5" fill="none" r="1.5" stroke="red" stroke-width="0.2" /><circle cx="140" cy="107.5" fill="none" r="2.0" stroke="blue" stroke-width="0.2" /><circle cx="130" cy="97.5" fill="none" r="1.5" stroke="red" stroke-width="0.2" /><circle cx="130" cy="97.5" fill="none" r="2.0" stroke="blue" stroke-width="0.2" /><circle cx="150" cy="32.5" fill="none" r="1.5" stroke="red" stroke-width="0.2" /><circle cx="150" cy="32.5" fill="none" r="2.0" stroke="blue" stroke-width="0.2" /><circle cx="100" cy="32.5" fill="none" r="1.5" stroke="red" stroke-width="0.2" /><circle cx="100" cy="32.5" fill="none" r="2.0" stroke="blue" stroke-width="0.2" /><circle cx="70" cy="32.5" fill="none" r="1.5" stroke="red" stroke-width="0.2" /><circle cx="70" cy="32.5" fill="none" r="2.0" stroke="blue" stroke-width="0.2" /><circle cx="180" cy="40" fill="none" r="1.5" stroke="red" stroke-width="0.2" /><circle cx="180" cy="40" fill="none" r="2.0" stroke="blue" stroke-width="0.2" /><circle cx="175" cy="92.5" fill="none" r="1.5" stroke="red" stroke-width="0.2" /><circle cx="175" cy="92.5" fill="none" r="2.0" stroke="blue" stroke-width="0.2" /><circle cx="182.5" cy="102.5" fill="none" r="1.5" stroke="red" stroke-width="0.2" /><circle cx="182.5" cy="102.5" fill="none" r="2.0" stroke="blue" stroke-width="0.2" /><circle cx="100" cy="87.5" fill="none" r="1.5" stroke="red" stroke-width="0.2" /><circle cx="100" cy="87.5" fill="none" r="2.0" stroke="blue" stroke-width="0.2" /><circle cx="150" cy="87.5" fill="none" r="1.5" stroke="red" stroke-width="0.2" /><circle cx="150" cy="87.5" fill="none" r="2.0" stroke="blue" stroke-width="0.2" /><circle cx="170" cy="80" fill="none" r="1.5" stroke="red" stroke-width="0.2" /><circle cx="170" cy="80" fill="none" r="2.0" stroke="blue" stroke-width="0.2" /><circle cx="170" cy="50" fill="none" r="1.5" stroke="red" stroke-width="0.2" /><circle cx="170" cy="50" fill="none" r="2.0" stroke="blue" stroke-width="0.2" /><circle cx="150" cy="42.5" fill="none" r="1.5" stroke="red" stroke-width="0.2" /><circle cx="150" cy="42.5" fill="none" r="2.0" stroke="blue" stroke-width="0.2" /><circle cx="177.5" cy="22.5" fill="none" r="1.5" stroke="red" stroke-width="0.2" /><circle cx="177.5" cy="22.5" fill="none" r="2.0" stroke="blue" stroke-width="0.2" /><circle cx="177.5" cy="12.5" fill="none" r="1.5" stroke="red" stroke-width="0.2" /><circle cx="177.5" cy="12.5" fill="none" r="2.0" stroke="blue" stroke-width="0.2" /><circle cx="140" cy="22.5" fill="none" r="1.5" stroke="red" stroke-width="0.2" /><circle cx="140" cy="22.5" fill="none" r="2.0" stroke="blue" stroke-width="0.2" /><circle cx="140" cy="12.5" fill="none" r="1.5" stroke="red" stroke-width="0.2" /><circle cx="140" cy="12.5" fill="none" r="2.0" stroke="blue" stroke-width="0.2" /><circle cx="100" cy="22.5" fill="none" r="1.5" stroke="red" stroke-width="0.2" /><circle cx="100" cy="22.5" fill="none" r="2.0" stroke="blue" stroke-width="0.2" /><circle cx="100" cy="12.5" fill="none" r="1.5" stroke="red" stroke-width="0.2" /><circle cx="100" cy="12.5" fill="none" r="2.0" stroke="blue" stroke-width="0.2" /><circle cx="60" cy="12.5" fill="none" r="1.5" stroke="red" stroke-width="0.2" /><circle cx="60" cy="12.5" fill="none" r="2.0" stroke="blue" stroke-width="0.2" /></g><g inkscape:groupmode="layer" inkscape:label="Led" sodipodi:insensitive="1"><circle cx="60" cy="32.5" fill="lime" r="1.5" /><circle cx="60" cy="27.5" fill="yellow" r="1.5" /><circle cx="80" cy="17.5" fill="yellow" r="1.5" /><circle cx="80" cy="22.5" fill="lime" r="1.5" /><circle cx="80" cy="12.5" fill="lime" r="1.5" /><circle cx="140" cy="32.5" fill="lime" r="1.5" /><circle cx="140" cy="37.5" fill="yellow" r="1.5" /><circle cx="140" cy="97.5" fill="lime" r="1.5" /><circle cx="140" cy="92.5" fill="yellow" r="1.5" /><circle cx="140" cy="87.5" fill="lime" r="1.5" /><circle cx="12.5" cy="80" fill="lime" r="1.5" /><circle cx="17.5" cy="80" fill="yellow" r="1.5" /><circle cx="187.5" cy="80" fill="lime" r="1.5" /><circle cx="182.5" cy="80" fill="yellow" r="1.5" /><circle cx="20" cy="40" fill="lightcoral" r="1.5" /><circle cx="25" cy="92.5" fill="lightcoral" r="1.5" /><circle cx="17.5" cy="102.5" fill="lightcoral" r="1.5" /><circle cx="60" cy="107.5" fill="lightcoral" r="1.5" /><circle cx="60" cy="97.5" fill="lightcoral" r="1.5" /><circle cx="100" cy="107.5" fill="lightcoral" r="1.5" /><circle cx="100" cy="97.5" fill="lightcoral" r="1.5" /><circle cx="140" cy="107.5" fill="lightcoral" r="1.5" /><circle cx="130" cy="97.5" fill="lightcoral" r="1.5" /><circle cx="150" cy="32.5" fill="lightcoral" r="1.5" /><circle cx="100" cy="32.5" fill="lightcoral" r="1.5" /><circle cx="70" cy="32.5" fill="lightcoral" r="1.5" /><circle cx="180" cy="40" fill="lightcoral" r="1.5" /><circle cx="175" cy="92.5" fill="lightcoral" r="1.5" /><circle cx="182.5" cy="102.5" fill="lightcoral" r="1.5" /><circle cx="100" cy="87.5" fill="mistyrose" r="1.5" /><circle cx="150" cy="87.5" fill="mistyrose" r="1.5" /><circle cx="170" cy="80" fill="mistyrose" r="1.5" /><circle cx="170" cy="50" fill="mistyrose" r="1.5" /><circle cx="150" cy="42.5" fill="mistyrose" r="1.5" /><circle cx="177.5" cy="22.5" fill="lightblue" r="1.5" /><circle cx="177.5" cy="12.5" fill="lightblue" r="1.5" /><circle cx="140" cy="22.5" fill="lightblue" r="1.5" /><circle cx="140" cy="12.5" fill="lightblue" r="1.5" /><circle cx="100" cy="22.5" fill="lightblue" r="1.5" /><circle cx="100" cy="12.5" fill="lightblue" r="1.5" /><circle cx="60" cy="12.5" fill="lightblue" r="1.5" /></g><g inkscape:groupmode="layer" inkscape:label="Outs" sodipodi:insensitive="1"><rect fill="none" height="120" stroke="red" stroke-width="0.2" width="200" x="0" y="0" /></g></svg>