<?xml version="1.0" encoding="utf-8" ?>
<svg baseProfile="full" height="12.0cm" version="1.1" viewBox="0,0,200,120" width="20.0cm" xmlns="http://www.w3.org/2000/svg" xmlns:ev="http://www.w3.org/2001/xml-events" xmlns:inkscape="http://www.inkscape.org/namespaces/inkscape" xmlns:sodipodi="http://sodipodi.sourceforge.net/DTD/sodipodi-0.dtd" xmlns:xlink="http://www.w3.org/1999/xlink"><defs><pattern height="5" id="id1" patternUnits="userSpaceOnUse" width="5"><path d="M 5 0 L 0 0 0 5" fill="none" stroke="rgb(0%,0%,100%)" stroke-width="0.1" /></pattern><pattern height="20" id="id2" patternUnits="userSpaceOnUse" width="20"><rect fill="url(#id1) none" height="20" width="20" x="0" y="0" /><path d="M 20 0 L 0 0 0 20" fill="none" stroke="rgb(0%,0%,100%)" stroke-width="0.2" /></pattern></defs><g inkscape:groupmode="layer" inkscape:label="GridLayer" sodipodi:insensitive="1"><rect fill="white" height="120" width="200" x="0" y="0" /><rect fill="url(#id2) none" height="120" width="200" x="0" y="0" /></g><g inkscape:groupmode="layer" inkscape:label="Track" sodipodi:insensitive="1"><line stroke="yellow" stroke-width="5" x1="40.0" x2="80.0" y1="12.5" y2="12.5" /><line stroke="yellow" stroke-width="5" x1="100.0" x2="180.0" y1="12.5" y2="12.5" /><line stroke="yellow" stroke-width="5" x1="80.0" x2="180.0" y1="22.5" y2="22.5" /><line stroke="yellow" stroke-width="5" x1="60.0" x2="120.0" y1="32.5" y2="32.5" /><line stroke="yellow" stroke-width="5" x1="40.0" x2="160.0" y1="107.5" y2="107.5" /><line stroke="yellow" stroke-width="5" x1="40.0" x2="140.0" y1="97.5" y2="97.5" /><line stroke="yellow" stroke-width="5" x1="140.0" x2="160.0" y1="87.5" y2="87.5" /><line stroke="yellow" stroke-width="5" x1="80.0" x2="120.0" y1="87.5" y2="87.5" /><line stroke="gray" stroke-width="5" x1="40.0" x2="60.0" y1="32.5" y2="32.5" /><line stroke="gray" stroke-width="5" x1="50.0" x2="60.0" y1="32.5" y2="27.5" /><circle cx="50.0" cy="32.5" fill="white" r="2.5" /><line stroke="gray" stroke-width="5" x1="60.0" x2="80.0" y1="27.5" y2="17.5" /><line stroke="gray" stroke-width="5" x1="70.0" x2="80.0" y1="22.5" y2="22.5" /><circle cx="70.0" cy="22.5" fill="white" r="2.5" /><line stroke="gray" stroke-width="5" x1="100.0" x2="80.0" y1="12.5" y2="12.5" /><line stroke="gray" stroke-width="5" x1="90.0" x2="80.0" y1="12.5" y2="17.5" /><circle cx="90.0" cy="12.5" fill="white" r="2.5" /><line stroke="gray" stroke-width="5" x1="120.0" x2="140.0" y1="32.5" y2="32.5" /><line stroke="gray" stroke-width="5" x1="130.0" x2="140.0" y1="32.5" y2="37.5" /><circle cx="130.0" cy="32.5" fill="white" r="2.5" /><line stroke="gray" stroke-width="5" x1="150.0" x2="160.0" y1="42.5" y2="42.5" /><line stroke="gray" stroke-width="5" x1="140.0" x2="150.0" y1="37.5" y2="42.5" /><circle cx="150.0" cy="42.5" fill="gray" r="2.5" /><line stroke="gray" stroke-width="5" x1="140.0" x2="160.0" y1="32.5" y2="32.5" /><line stroke="gray" stroke-width="5" x1="160.0" x2="140.0" y1="97.5" y2="97.5" /><line stroke="gray" stroke-width="5" x1="150.0" x2="140.0" y1="97.5" y2="92.5" /><circle cx="150.0" cy="97.5" fill="white" r="2.5" /><line stroke="gray" stroke-width="5" x1="120.0" x2="140.0" y1="87.5" y2="87.5" /><line stroke="gray" stroke-width="5" x1="130.0" x2="140.0" y1="87.5" y2="92.5" /><circle cx="130.0" cy="87.5" fill="white" r="2.5" /><line stroke="gray" stroke-width="5" x1="12.5" x2="12.5" y1="60.0" y2="80.0" /><line stroke="gray" stroke-width="5" x1="12.5" x2="17.5" y1="70.0" y2="80.0" /><circle cx="12.5" cy="70.0" fill="white" r="2.5" /><line stroke="gray" stroke-width="5" x1="17.5" x2="22.5" y1="80.0" y2="90.0" /><line stroke="gray" stroke-width="5" x1="12.5" x2="12.5" y1="80.0" y2="97.5" /><line stroke="gray" stroke-width="5" x1="12.5" x2="22.5" y1="97.5" y2="107.5" /><line stroke="gray" stroke-width="5" x1="22.5" x2="30.0" y1="90.0" y2="97.5" /><line stroke="gray" stroke-width="5" x1="30.0" x2="40.0" y1="97.5" y2="97.5" /><line stroke="gray" stroke-width="5" x1="22.5" x2="40.0" y1="107.5" y2="107.5" /><circle cx="22.5" cy="107.5" fill="gray" r="2.5" stroke="none" /><circle cx="30.0" cy="97.5" fill="gray" r="2.5" stroke="none" /><circle cx="12.5" cy="97.5" fill="gray" r="2.5" stroke="none" /><circle cx="22.5" cy="90.0" fill="gray" r="2.5" stroke="none" /><line stroke="gray" stroke-width="5" x1="187.5" x2="187.5" y1="60.0" y2="80.0" /><line stroke="gray" stroke-width="5" x1="187.5" x2="182.5" y1="70.0" y2="80.0" /><circle cx="187.5" cy="70.0" fill="white" r="2.5" /><line stroke="gray" stroke-width="5" x1="182.5" x2="177.5" y1="80.0" y2="90.0" /><line stroke="gray" stroke-width="5" x1="187.5" x2="187.5" y1="80.0" y2="97.5" /><line stroke="gray" stroke-width="5" x1="187.5" x2="177.5" y1="97.5" y2="107.5" /><line stroke="gray" stroke-width="5" x1="177.5" x2="170.0" y1="90.0" y2="97.5" /><line stroke="gray" stroke-width="5" x1="170.0" x2="160.0" y1="97.5" y2="97.5" /><line stroke="gray" stroke-width="5" x1="177.5" x2="160.0" y1="107.5" y2="107.5" /><circle cx="177.5" cy="107.5" fill="gray" r="2.5" stroke="none" /><circle cx="170.0" cy="97.5" fill="gray" r="2.5" stroke="none" /><circle cx="187.5" cy="97.5" fill="gray" r="2.5" stroke="none" /><circle cx="177.5" cy="90.0" fill="gray" r="2.5" stroke="none" /><line stroke="gray" stroke-width="5" x1="12.5" x2="12.5" y1="60.0" y2="47.5" /><line stroke="gray" stroke-width="5" x1="12.5" x2="27.5" y1="47.5" y2="32.5" /><line stroke="gray" stroke-width="5" x1="27.5" x2="40.0" y1="32.5" y2="32.5" /><circle cx="12.5" cy="47.5" fill="gray" r="2.5" stroke="none" /><circle cx="27.5" cy="32.5" fill="gray" r="2.5" stroke="none" /><line stroke="gray" stroke-width="5" x1="187.5" x2="187.5" y1="60.0" y2="47.5" /><line stroke="gray" stroke-width="5" x1="187.5" x2="172.5" y1="47.5" y2="32.5" /><line stroke="gray" stroke-width="5" x1="172.5" x2="160.0" y1="32.5" y2="32.5" /><circle cx="187.5" cy="47.5" fill="gray" r="2.5" stroke="none" /><circle cx="172.5" cy="32.5" fill="gray" r="2.5" stroke="none" /><line stroke="gray" stroke-width="5" x1="177.5" x2="177.5" y1="60.0" y2="57.5" /><line stroke="gray" stroke-width="5" x1="177.5" x2="162.5" y1="57.5" y2="42.5" /><line stroke="gray" stroke-width="5" x1="162.5" x2="160.0" y1="42.5" y2="42.5" /><circle cx="177.5" cy="57.5" fill="gray" r="2.5" stroke="none" /><circle cx="162.5" cy="42.5" fill="gray" r="2.5" stroke="none" /><line stroke="gray" stroke-width="5" x1="177.5" x2="177.5" y1="70.0" y2="72.5" /><line stroke="gray" stroke-width="5" x1="177.5" x2="162.5" y1="72.5" y2="87.5" /><line stroke="gray" stroke-width="5" x1="162.5" x2="160.0" y1="87.5" y2="87.5" /><circle cx="177.5" cy="72.5" fill="gray" r="2.5" stroke="none" /><circle cx="162.5" cy="87.5" fill="gray" r="2.5" stroke="none" /><line stroke="gray" stroke-width="5" x1="177.5" x2="177.5" y1="60.0" y2="70.0" /></g><g inkscape:groupmode="layer" inkscape:label="Cut" sodipodi:insensitive="1"><circle cx="50.0" cy="32.5" fill="none" r="2.5" stroke="red" stroke-width="0.2" /><rect fill="none" height="15" stroke="red" stroke-width="0.2" width="10" x="45.0" y="25.0" /><circle cx="60.0" cy="27.5" fill="none" r="1.5" stroke="red" stroke-width="0.2" /><circle cx="60.0" cy="32.5" fill="none" r="1.5" stroke="red" stroke-width="0.2" /><circle cx="70.0" cy="22.5" fill="none" r="2.5" stroke="red" stroke-width="0.2" /><rect fill="none" height="15" stroke="red" stroke-width="0.2" width="10" x="65.0" y="15.0" /><circle cx="80.0" cy="22.5" fill="none" r="1.5" stroke="red" stroke-width="0.2" /><circle cx="80.0" cy="17.5" fill="none" r="1.5" stroke="red" stroke-width="0.2" /><circle cx="90.0" cy="12.5" fill="none" r="2.5" stroke="red" stroke-width="0.2" /><rect fill="none" height="15" stroke="red" stroke-width="0.2" width="10" x="85.0" y="5.0" /><circle cx="80.0" cy="17.5" fill="none" r="1.5" stroke="red" stroke-width="0.2" /><circle cx="80.0" cy="12.5" fill="none" r="1.5" stroke="red" stroke-width="0.2" /><circle cx="130.0" cy="32.5" fill="none" r="2.5" stroke="red" stroke-width="0.2" /><rect fill="none" height="15" stroke="red" stroke-width="0.2" width="10" x="125.0" y="25.0" /><circle cx="140.0" cy="37.5" fill="none" r="1.5" stroke="red" stroke-width="0.2" /><circle cx="140.0" cy="32.5" fill="none" r="1.5" stroke="red" stroke-width="0.2" /><circle cx="150.0" cy="97.5" fill="none" r="2.5" stroke="red" stroke-width="0.2" /><rect fill="none" height="15" stroke="red" stroke-width="0.2" width="10" x="145.0" y="90.0" /><circle cx="140.0" cy="92.5" fill="none" r="1.5" stroke="red" stroke-width="0.2" /><circle cx="140.0" cy="97.5" fill="none" r="1.5" stroke="red" stroke-width="0.2" /><circle cx="130.0" cy="87.5" fill="none" r="2.5" stroke="red" stroke-width="0.2" /><rect fill="none" height="15" stroke="red" stroke-width="0.2" width="10" x="125.0" y="80.0" /><circle cx="140.0" cy="92.5" fill="none" r="1.5" stroke="red" stroke-width="0.2" /><circle cx="140.0" cy="87.5" fill="none" r="1.5" stroke="red" stroke-width="0.2" /><circle cx="12.5" cy="70.0" fill="none" r="2.5" stroke="red" stroke-width="0.2" /><rect fill="none" height="10" stroke="red" stroke-width="0.2" width="15" x="5.0" y="65.0" /><circle cx="17.5" cy="80.0" fill="none" r="1.5" stroke="red" stroke-width="0.2" /><circle cx="12.5" cy="80.0" fill="none" r="1.5" stroke="red" stroke-width="0.2" /><circle cx="187.5" cy="70.0" fill="none" r="2.5" stroke="red" stroke-width="0.2" /><rect fill="none" height="10" stroke="red" stroke-width="0.2" width="15" x="180.0" y="65.0" /><circle cx="182.5" cy="80.0" fill="none" r="1.5" stroke="red" stroke-width="0.2" /><circle cx="187.5" cy="80.0" fill="none" r="1.5" stroke="red" stroke-width="0.2" /></g><g inkscape:groupmode="layer" inkscape:label="Led" sodipodi:insensitive="1"><circle cx="60.0" cy="27.5" fill="green" r="1.5" /><circle cx="60.0" cy="32.5" fill="green" r="1.5" /><circle cx="80.0" cy="22.5" fill="green" r="1.5" /><circle cx="80.0" cy="17.5" fill="green" r="1.5" /><circle cx="80.0" cy="17.5" fill="green" r="1.5" /><circle cx="80.0" cy="12.5" fill="green" r="1.5" /><circle cx="140.0" cy="37.5" fill="green" r="1.5" /><circle cx="140.0" cy="32.5" fill="green" r="1.5" /><circle cx="140.0" cy="92.5" fill="green" r="1.5" /><circle cx="140.0" cy="97.5" fill="green" r="1.5" /><circle cx="140.0" cy="92.5" fill="green" r="1.5" /><circle cx="140.0" cy="87.5" fill="green" r="1.5" /><circle cx="17.5" cy="80.0" fill="green" r="1.5" /><circle cx="12.5" cy="80.0" fill="green" r="1.5" /><circle cx="182.5" cy="80.0" fill="green" r="1.5" /><circle cx="187.5" cy="80.0" fill="green" r="1.5" /></g></svg>