<?xml version="1.0" encoding="utf-8" ?>
<svg baseProfile="full" height="12.0cm" version="1.1" viewBox="0,0,205,120" width="20.5cm" xmlns="http://www.w3.org/2000/svg" xmlns:ev="http://www.w3.org/2001/xml-events" xmlns:inkscape="http://www.inkscape.org/namespaces/inkscape" xmlns:sodipodi="http://sodipodi.sourceforge.net/DTD/sodipodi-0.dtd" xmlns:xlink="http://www.w3.org/1999/xlink"><defs><pattern height="5" id="id3" patternUnits="userSpaceOnUse" width="5"><path d="M 5 0 L 0 0 0 5" fill="none" stroke="rgb(0%,0%,100%)" stroke-width="0.1" /></pattern><pattern height="20" id="id4" patternUnits="userSpaceOnUse" width="20"><rect fill="url(#id3) none" height="20" width="20" x="0" y="0" /><path d="M 20 0 L 0 0 0 20" fill="none" stroke="rgb(0%,0%,100%)" stroke-width="0.2" /></pattern></defs><g inkscape:groupmode="layer" inkscape:label="GridLayer" sodipodi:insensitive="1"><rect fill="white" height="120" width="205" x="0" y="0" /><rect fill="url(#id4) none" height="120" width="205" x="0" y="0" /></g><g inkscape:groupmode="layer" inkscape:label="Track" sodipodi:insensitive="1"><polyline fill="gray" points="25,25.5 5,25.5 5,29.5 25,29.5 25,25.5" stroke="none" /><polyline fill="gray" points="24.105572809000083,20.711145618000167 14.105572809000083,25.711145618000167 15.894427190999917,29.288854381999833 25.894427190999917,24.288854381999833 24.105572809000083,20.711145618000167" stroke="none" /><circle cx="15" cy="27.5" fill="white" r="3.0" /><polyline fill="gray" points="25,5.5 5,5.5 5,9.5 25,9.5 25,5.5" stroke="none" /><polyline fill="gray" points="25.894427190999917,10.711145618000169 15.894427190999917,5.7111456180001685 14.105572809000083,9.288854381999831 24.105572809000083,14.288854381999831 25.894427190999917,10.711145618000169" stroke="none" /><circle cx="15" cy="7.5" fill="white" r="3.0" /><polyline fill="gray" points="30,25.5 50,25.5 50,29.5 30,29.5 30,25.5" stroke="none" /><polyline fill="gray" points="29.105572809000083,24.288854381999833 39.10557280900009,29.288854381999833 40.89442719099991,25.711145618000167 30.894427190999917,20.711145618000167 29.105572809000083,24.288854381999833" stroke="none" /><circle cx="40" cy="27.5" fill="white" r="3.0" /><polyline fill="gray" points="30,5.5 50,5.5 50,9.5 30,9.5 30,5.5" stroke="none" /><polyline fill="gray" points="30.894427190999917,14.288854381999831 40.89442719099991,9.288854381999831 39.10557280900009,5.7111456180001685 29.105572809000083,10.711145618000169 30.894427190999917,14.288854381999831" stroke="none" /><circle cx="40" cy="7.5" fill="white" r="3.0" /><circle cx="15" cy="42.5" fill="gray" r="2.0" /><polyline fill="gray" points="25,40.5 15,40.5 15,44.5 25,44.5 25,40.5" stroke="none" /><polyline fill="gray" points="14.105572809000083,40.71114561800017 4.105572809000084,45.71114561800017 5.894427190999916,49.28885438199983 15.894427190999917,44.28885438199983 14.105572809000083,40.71114561800017" stroke="none" /><circle cx="40" cy="42.5" fill="gray" r="2.0" /><polyline fill="gray" points="30,40.5 40,40.5 40,44.5 30,44.5 30,40.5" stroke="none" /><polyline fill="gray" points="39.10557280900009,44.28885438199983 49.10557280900009,49.28885438199983 50.89442719099991,45.71114561800017 40.89442719099991,40.71114561800017 39.10557280900009,44.28885438199983" stroke="none" /><circle cx="15" cy="57.5" fill="gray" r="2.0" /><polyline fill="gray" points="25,55.5 15,55.5 15,59.5 25,59.5 25,55.5" stroke="none" /><polyline fill="gray" points="15.894427190999917,55.71114561800017 5.894427190999916,50.71114561800017 4.105572809000084,54.28885438199983 14.105572809000083,59.28885438199983 15.894427190999917,55.71114561800017" stroke="none" /><circle cx="40" cy="57.5" fill="gray" r="2.0" /><polyline fill="gray" points="30,55.5 40,55.5 40,59.5 30,59.5 30,55.5" stroke="none" /><polyline fill="gray" points="40.89442719099991,59.28885438199983 50.89442719099991,54.28885438199983 49.10557280900009,50.71114561800017 39.10557280900009,55.71114561800017 40.89442719099991,59.28885438199983" stroke="none" /><polyline fill="gray" points="5.5,90 5.5,70 9.5,70 9.5,90 5.5,90" stroke="none" /><polyline fill="gray" points="14.288854381999831,89.10557280900008 9.288854381999831,79.10557280900008 5.7111456180001685,80.89442719099992 10.711145618000169,90.89442719099992 14.288854381999831,89.10557280900008" stroke="none" /><circle cx="7.5" cy="80" fill="white" r="3.0" /><polyline fill="gray" points="25.5,90 25.5,70 29.5,70 29.5,90 25.5,90" stroke="none" /><polyline fill="gray" points="24.288854381999833,90.89442719099992 29.288854381999833,80.89442719099992 25.711145618000167,79.10557280900008 20.711145618000167,89.10557280900008 24.288854381999833,90.89442719099992" stroke="none" /><circle cx="27.5" cy="80" fill="white" r="3.0" /><polyline fill="gray" points="5.5,95 5.5,115 9.5,115 9.5,95 5.5,95" stroke="none" /><polyline fill="gray" points="10.711145618000169,94.10557280900008 5.7111456180001685,104.10557280900008 9.288854381999831,105.89442719099992 14.288854381999831,95.89442719099992 10.711145618000169,94.10557280900008" stroke="none" /><circle cx="7.5" cy="105" fill="white" r="3.0" /><polyline fill="gray" points="25.5,95 25.5,115 29.5,115 29.5,95 25.5,95" stroke="none" /><polyline fill="gray" points="20.711145618000167,95.89442719099992 25.711145618000167,105.89442719099992 29.288854381999833,104.10557280900008 24.288854381999833,94.10557280900008 20.711145618000167,95.89442719099992" stroke="none" /><circle cx="27.5" cy="105" fill="white" r="3.0" /><circle cx="57.5" cy="105" fill="gray" r="2.0" /><polyline fill="gray" points="55.5,95 55.5,105 59.5,105 59.5,95 55.5,95" stroke="none" /><polyline fill="gray" points="55.71114561800017,104.10557280900008 50.71114561800017,114.10557280900008 54.28885438199983,115.89442719099992 59.28885438199983,105.89442719099992 55.71114561800017,104.10557280900008" stroke="none" /><circle cx="42.5" cy="105" fill="gray" r="2.0" /><polyline fill="gray" points="40.5,95 40.5,105 44.5,105 44.5,95 40.5,95" stroke="none" /><polyline fill="gray" points="40.71114561800017,105.89442719099992 45.71114561800017,115.89442719099992 49.28885438199983,114.10557280900008 44.28885438199983,104.10557280900008 40.71114561800017,105.89442719099992" stroke="none" /><circle cx="57.5" cy="80" fill="gray" r="2.0" /><polyline fill="gray" points="55.5,90 55.5,80 59.5,80 59.5,90 55.5,90" stroke="none" /><polyline fill="gray" points="59.28885438199983,79.10557280900008 54.28885438199983,69.10557280900008 50.71114561800017,70.89442719099992 55.71114561800017,80.89442719099992 59.28885438199983,79.10557280900008" stroke="none" /><circle cx="42.5" cy="80" fill="gray" r="2.0" /><polyline fill="gray" points="40.5,90 40.5,80 44.5,80 44.5,90 40.5,90" stroke="none" /><polyline fill="gray" points="44.28885438199983,80.89442719099992 49.28885438199983,70.89442719099992 45.71114561800017,69.10557280900008 40.71114561800017,79.10557280900008 44.28885438199983,80.89442719099992" stroke="none" /><polyline fill="gray" points="70.5,25 70.5,5 74.5,5 74.5,25 70.5,25" stroke="none" /><polyline fill="gray" points="79.28885438199983,24.105572809000083 74.28885438199983,14.105572809000083 70.71114561800017,15.894427190999917 75.71114561800017,25.894427190999917 79.28885438199983,24.105572809000083" stroke="none" /><circle cx="72.5" cy="15" fill="white" r="3.0" /><circle cx="82.5" cy="35" fill="gray" r="2.0" /><polyline fill="gray" points="80.5,45 80.5,35 84.5,35 84.5,45 80.5,45" stroke="none" /><polyline fill="gray" points="84.28885438199983,34.10557280900009 79.28885438199983,24.105572809000083 75.71114561800017,25.894427190999917 80.71114561800017,35.89442719099991 84.28885438199983,34.10557280900009" stroke="none" /><polyline fill="gray" points="70.5,45 70.5,25 74.5,25 74.5,45 70.5,45" stroke="none" /><polyline fill="gray" points="100.5,25 100.5,5 104.5,5 104.5,25 100.5,25" stroke="none" /><polyline fill="gray" points="99.28885438199983,25.894427190999917 104.28885438199983,15.894427190999917 100.71114561800017,14.105572809000083 95.71114561800017,24.105572809000083 99.28885438199983,25.894427190999917" stroke="none" /><circle cx="102.5" cy="15" fill="white" r="3.0" /><circle cx="92.5" cy="35" fill="gray" r="2.0" /><polyline fill="gray" points="90.5,45 90.5,35 94.5,35 94.5,45 90.5,45" stroke="none" /><polyline fill="gray" points="94.28885438199983,35.89442719099991 99.28885438199983,25.894427190999917 95.71114561800017,24.105572809000083 90.71114561800017,34.10557280900009 94.28885438199983,35.89442719099991" stroke="none" /><polyline fill="gray" points="100.5,45 100.5,25 104.5,25 104.5,45 100.5,45" stroke="none" /><polyline fill="gray" points="70.5,65 70.5,85 74.5,85 74.5,65 70.5,65" stroke="none" /><polyline fill="gray" points="75.71114561800017,64.10557280900008 70.71114561800017,74.10557280900008 74.28885438199983,75.89442719099992 79.28885438199983,65.89442719099992 75.71114561800017,64.10557280900008" stroke="none" /><circle cx="72.5" cy="75" fill="white" r="3.0" /><circle cx="82.5" cy="55" fill="gray" r="2.0" /><polyline fill="gray" points="80.5,45 80.5,55 84.5,55 84.5,45 80.5,45" stroke="none" /><polyline fill="gray" points="80.71114561800017,54.10557280900009 75.71114561800017,64.10557280900008 79.28885438199983,65.89442719099992 84.28885438199983,55.89442719099991 80.71114561800017,54.10557280900009" stroke="none" /><polyline fill="gray" points="70.5,65 70.5,45 74.5,45 74.5,65 70.5,65" stroke="none" /><polyline fill="gray" points="100.5,65 100.5,85 104.5,85 104.5,65 100.5,65" stroke="none" /><polyline fill="gray" points="95.71114561800017,65.89442719099992 100.71114561800017,75.89442719099992 104.28885438199983,74.10557280900008 99.28885438199983,64.10557280900008 95.71114561800017,65.89442719099992" stroke="none" /><circle cx="102.5" cy="75" fill="white" r="3.0" /><circle cx="92.5" cy="55" fill="gray" r="2.0" /><polyline fill="gray" points="90.5,45 90.5,55 94.5,55 94.5,45 90.5,45" stroke="none" /><polyline fill="gray" points="90.71114561800017,55.89442719099991 95.71114561800017,65.89442719099992 99.28885438199983,64.10557280900008 94.28885438199983,54.10557280900009 90.71114561800017,55.89442719099991" stroke="none" /><polyline fill="gray" points="100.5,65 100.5,45 104.5,45 104.5,65 100.5,65" stroke="none" /><polyline fill="gray" points="135,5.5 115,5.5 115,9.5 135,9.5 135,5.5" stroke="none" /><polyline fill="gray" points="135.89442719099992,10.711145618000169 125.89442719099992,5.7111456180001685 124.10557280900008,9.288854381999831 134.10557280900008,14.288854381999831 135.89442719099992,10.711145618000169" stroke="none" /><circle cx="125" cy="7.5" fill="white" r="3.0" /><circle cx="145" cy="17.5" fill="gray" r="2.0" /><polyline fill="gray" points="155,15.5 145,15.5 145,19.5 155,19.5 155,15.5" stroke="none" /><polyline fill="gray" points="145.89442719099992,15.711145618000169 135.89442719099992,10.711145618000169 134.10557280900008,14.288854381999831 144.10557280900008,19.288854381999833 145.89442719099992,15.711145618000169" stroke="none" /><polyline fill="gray" points="155,5.5 135,5.5 135,9.5 155,9.5 155,5.5" stroke="none" /><polyline fill="gray" points="180,5.5 200,5.5 200,9.5 180,9.5 180,5.5" stroke="none" /><polyline fill="gray" points="180.89442719099992,14.288854381999831 190.89442719099992,9.288854381999831 189.10557280900008,5.7111456180001685 179.10557280900008,10.711145618000169 180.89442719099992,14.288854381999831" stroke="none" /><circle cx="190" cy="7.5" fill="white" r="3.0" /><circle cx="170" cy="17.5" fill="gray" r="2.0" /><polyline fill="gray" points="160,15.5 170,15.5 170,19.5 160,19.5 160,15.5" stroke="none" /><polyline fill="gray" points="170.89442719099992,19.288854381999833 180.89442719099992,14.288854381999831 179.10557280900008,10.711145618000169 169.10557280900008,15.711145618000169 170.89442719099992,19.288854381999833" stroke="none" /><polyline fill="gray" points="180,5.5 160,5.5 160,9.5 180,9.5 180,5.5" stroke="none" /><polyline fill="gray" points="135,35.5 115,35.5 115,39.5 135,39.5 135,35.5" stroke="none" /><polyline fill="gray" points="134.10557280900008,30.711145618000167 124.10557280900008,35.71114561800017 125.89442719099992,39.28885438199983 135.89442719099992,34.28885438199983 134.10557280900008,30.711145618000167" stroke="none" /><circle cx="125" cy="37.5" fill="white" r="3.0" /><circle cx="145" cy="27.5" fill="gray" r="2.0" /><polyline fill="gray" points="155,25.5 145,25.5 145,29.5 155,29.5 155,25.5" stroke="none" /><polyline fill="gray" points="144.10557280900008,25.711145618000167 134.10557280900008,30.711145618000167 135.89442719099992,34.28885438199983 145.89442719099992,29.288854381999833 144.10557280900008,25.711145618000167" stroke="none" /><polyline fill="gray" points="155,35.5 135,35.5 135,39.5 155,39.5 155,35.5" stroke="none" /><polyline fill="gray" points="180,35.5 200,35.5 200,39.5 180,39.5 180,35.5" stroke="none" /><polyline fill="gray" points="179.10557280900008,34.28885438199983 189.10557280900008,39.28885438199983 190.89442719099992,35.71114561800017 180.89442719099992,30.711145618000167 179.10557280900008,34.28885438199983" stroke="none" /><circle cx="190" cy="37.5" fill="white" r="3.0" /><circle cx="170" cy="27.5" fill="gray" r="2.0" /><polyline fill="gray" points="160,25.5 170,25.5 170,29.5 160,29.5 160,25.5" stroke="none" /><polyline fill="gray" points="169.10557280900008,29.288854381999833 179.10557280900008,34.28885438199983 180.89442719099992,30.711145618000167 170.89442719099992,25.711145618000167 169.10557280900008,29.288854381999833" stroke="none" /><polyline fill="gray" points="180,35.5 160,35.5 160,39.5 180,39.5 180,35.5" stroke="none" /><polyline fill="gray" points="89.10557280900008,90.71114561800017 69.10557280900008,100.71114561800017 70.89442719099992,104.28885438199983 90.89442719099992,94.28885438199983 89.10557280900008,90.71114561800017" stroke="none" /><polyline fill="gray" points="90,95.5 80,95.5 80,99.5 90,99.5 90,95.5" stroke="none" /><circle cx="80" cy="97.5" fill="white" r="3.0" /><polyline fill="gray" points="94.10557280900008,94.28885438199983 114.10557280900008,104.28885438199983 115.89442719099992,100.71114561800017 95.89442719099992,90.71114561800017 94.10557280900008,94.28885438199983" stroke="none" /><polyline fill="gray" points="95,95.5 105,95.5 105,99.5 95,99.5 95,95.5" stroke="none" /><circle cx="105" cy="97.5" fill="white" r="3.0" /><polyline fill="gray" points="90.89442719099992,115.71114561800017 70.89442719099992,105.71114561800017 69.10557280900008,109.28885438199983 89.10557280900008,119.28885438199983 90.89442719099992,115.71114561800017" stroke="none" /><polyline fill="gray" points="90,110.5 80,110.5 80,114.5 90,114.5 90,110.5" stroke="none" /><circle cx="80" cy="112.5" fill="white" r="3.0" /><polyline fill="gray" points="95.89442719099992,119.28885438199983 115.89442719099992,109.28885438199983 114.10557280900008,105.71114561800017 94.10557280900008,115.71114561800017 95.89442719099992,119.28885438199983" stroke="none" /><polyline fill="gray" points="95,110.5 105,110.5 105,114.5 95,114.5 95,110.5" stroke="none" /><circle cx="105" cy="112.5" fill="white" r="3.0" /><polyline fill="gray" points="149.28885438199984,85.89442719099992 159.28885438199984,65.89442719099992 155.71114561800016,64.10557280900008 145.71114561800016,84.10557280900008 149.28885438199984,85.89442719099992" stroke="none" /><polyline fill="gray" points="150.5,85 150.5,75 154.5,75 154.5,85 150.5,85" stroke="none" /><circle cx="152.5" cy="75" fill="white" r="3.0" /><polyline fill="gray" points="174.28885438199984,84.10557280900008 164.28885438199984,64.10557280900008 160.71114561800016,65.89442719099992 170.71114561800016,85.89442719099992 174.28885438199984,84.10557280900008" stroke="none" /><polyline fill="gray" points="165.5,85 165.5,75 169.5,75 169.5,85 165.5,85" stroke="none" /><circle cx="167.5" cy="75" fill="white" r="3.0" /><polyline fill="gray" points="145.71114561800016,90.89442719099992 155.71114561800016,110.89442719099992 159.28885438199984,109.10557280900008 149.28885438199984,89.10557280900008 145.71114561800016,90.89442719099992" stroke="none" /><polyline fill="gray" points="150.5,90 150.5,100 154.5,100 154.5,90 150.5,90" stroke="none" /><circle cx="152.5" cy="100" fill="white" r="3.0" /><polyline fill="gray" points="170.71114561800016,89.10557280900008 160.71114561800016,109.10557280900008 164.28885438199984,110.89442719099992 174.28885438199984,90.89442719099992 170.71114561800016,89.10557280900008" stroke="none" /><polyline fill="gray" points="165.5,90 165.5,100 169.5,100 169.5,90 165.5,90" stroke="none" /><circle cx="167.5" cy="100" fill="white" r="3.0" /></g><g inkscape:groupmode="layer" inkscape:label="Cut" sodipodi:insensitive="1"><circle cx="15" cy="27.5" fill="none" r="3.0" stroke="red" stroke-width="0.2" /><circle cx="15" cy="27.5" fill="none" r="6.0" stroke="blue" stroke-width="0.2" /><rect fill="none" height="15" stroke="blue" stroke-width="0.2" width="10" x="10" y="20.0" /><circle cx="25" cy="27.5" fill="none" r="1.5" stroke="red" stroke-width="0.2" /><circle cx="25" cy="27.5" fill="none" r="2.0" stroke="blue" stroke-width="0.2" /><circle cx="25" cy="22.5" fill="none" r="1.5" stroke="red" stroke-width="0.2" /><circle cx="25" cy="22.5" fill="none" r="2.0" stroke="blue" stroke-width="0.2" /><circle cx="15" cy="7.5" fill="none" r="3.0" stroke="red" stroke-width="0.2" /><circle cx="15" cy="7.5" fill="none" r="6.0" stroke="blue" stroke-width="0.2" /><rect fill="none" height="15" stroke="blue" stroke-width="0.2" width="10" x="10" y="0.0" /><circle cx="25" cy="7.5" fill="none" r="1.5" stroke="red" stroke-width="0.2" /><circle cx="25" cy="7.5" fill="none" r="2.0" stroke="blue" stroke-width="0.2" /><circle cx="25" cy="12.5" fill="none" r="1.5" stroke="red" stroke-width="0.2" /><circle cx="25" cy="12.5" fill="none" r="2.0" stroke="blue" stroke-width="0.2" /><circle cx="40" cy="27.5" fill="none" r="3.0" stroke="red" stroke-width="0.2" /><circle cx="40" cy="27.5" fill="none" r="6.0" stroke="blue" stroke-width="0.2" /><rect fill="none" height="15" stroke="blue" stroke-width="0.2" width="10" x="35" y="20.0" /><circle cx="30" cy="27.5" fill="none" r="1.5" stroke="red" stroke-width="0.2" /><circle cx="30" cy="27.5" fill="none" r="2.0" stroke="blue" stroke-width="0.2" /><circle cx="30" cy="22.5" fill="none" r="1.5" stroke="red" stroke-width="0.2" /><circle cx="30" cy="22.5" fill="none" r="2.0" stroke="blue" stroke-width="0.2" /><circle cx="40" cy="7.5" fill="none" r="3.0" stroke="red" stroke-width="0.2" /><circle cx="40" cy="7.5" fill="none" r="6.0" stroke="blue" stroke-width="0.2" /><rect fill="none" height="15" stroke="blue" stroke-width="0.2" width="10" x="35" y="0.0" /><circle cx="30" cy="7.5" fill="none" r="1.5" stroke="red" stroke-width="0.2" /><circle cx="30" cy="7.5" fill="none" r="2.0" stroke="blue" stroke-width="0.2" /><circle cx="30" cy="12.5" fill="none" r="1.5" stroke="red" stroke-width="0.2" /><circle cx="30" cy="12.5" fill="none" r="2.0" stroke="blue" stroke-width="0.2" /><circle cx="7.5" cy="80" fill="none" r="3.0" stroke="red" stroke-width="0.2" /><circle cx="7.5" cy="80" fill="none" r="6.0" stroke="blue" stroke-width="0.2" /><rect fill="none" height="10" stroke="blue" stroke-width="0.2" width="15" x="0.0" y="75" /><circle cx="7.5" cy="90" fill="none" r="1.5" stroke="red" stroke-width="0.2" /><circle cx="7.5" cy="90" fill="none" r="2.0" stroke="blue" stroke-width="0.2" /><circle cx="12.5" cy="90" fill="none" r="1.5" stroke="red" stroke-width="0.2" /><circle cx="12.5" cy="90" fill="none" r="2.0" stroke="blue" stroke-width="0.2" /><circle cx="27.5" cy="80" fill="none" r="3.0" stroke="red" stroke-width="0.2" /><circle cx="27.5" cy="80" fill="none" r="6.0" stroke="blue" stroke-width="0.2" /><rect fill="none" height="10" stroke="blue" stroke-width="0.2" width="15" x="20.0" y="75" /><circle cx="27.5" cy="90" fill="none" r="1.5" stroke="red" stroke-width="0.2" /><circle cx="27.5" cy="90" fill="none" r="2.0" stroke="blue" stroke-width="0.2" /><circle cx="22.5" cy="90" fill="none" r="1.5" stroke="red" stroke-width="0.2" /><circle cx="22.5" cy="90" fill="none" r="2.0" stroke="blue" stroke-width="0.2" /><circle cx="7.5" cy="105" fill="none" r="3.0" stroke="red" stroke-width="0.2" /><circle cx="7.5" cy="105" fill="none" r="6.0" stroke="blue" stroke-width="0.2" /><rect fill="none" height="10" stroke="blue" stroke-width="0.2" width="15" x="0.0" y="100" /><circle cx="7.5" cy="95" fill="none" r="1.5" stroke="red" stroke-width="0.2" /><circle cx="7.5" cy="95" fill="none" r="2.0" stroke="blue" stroke-width="0.2" /><circle cx="12.5" cy="95" fill="none" r="1.5" stroke="red" stroke-width="0.2" /><circle cx="12.5" cy="95" fill="none" r="2.0" stroke="blue" stroke-width="0.2" /><circle cx="27.5" cy="105" fill="none" r="3.0" stroke="red" stroke-width="0.2" /><circle cx="27.5" cy="105" fill="none" r="6.0" stroke="blue" stroke-width="0.2" /><rect fill="none" height="10" stroke="blue" stroke-width="0.2" width="15" x="20.0" y="100" /><circle cx="27.5" cy="95" fill="none" r="1.5" stroke="red" stroke-width="0.2" /><circle cx="27.5" cy="95" fill="none" r="2.0" stroke="blue" stroke-width="0.2" /><circle cx="22.5" cy="95" fill="none" r="1.5" stroke="red" stroke-width="0.2" /><circle cx="22.5" cy="95" fill="none" r="2.0" stroke="blue" stroke-width="0.2" /><circle cx="72.5" cy="15" fill="none" r="3.0" stroke="red" stroke-width="0.2" /><circle cx="72.5" cy="15" fill="none" r="6.0" stroke="blue" stroke-width="0.2" /><rect fill="none" height="10" stroke="blue" stroke-width="0.2" width="15" x="65.0" y="10" /><circle cx="72.5" cy="25" fill="none" r="1.5" stroke="red" stroke-width="0.2" /><circle cx="72.5" cy="25" fill="none" r="2.0" stroke="blue" stroke-width="0.2" /><circle cx="77.5" cy="25" fill="none" r="1.5" stroke="red" stroke-width="0.2" /><circle cx="77.5" cy="25" fill="none" r="2.0" stroke="blue" stroke-width="0.2" /><circle cx="102.5" cy="15" fill="none" r="3.0" stroke="red" stroke-width="0.2" /><circle cx="102.5" cy="15" fill="none" r="6.0" stroke="blue" stroke-width="0.2" /><rect fill="none" height="10" stroke="blue" stroke-width="0.2" width="15" x="95.0" y="10" /><circle cx="102.5" cy="25" fill="none" r="1.5" stroke="red" stroke-width="0.2" /><circle cx="102.5" cy="25" fill="none" r="2.0" stroke="blue" stroke-width="0.2" /><circle cx="97.5" cy="25" fill="none" r="1.5" stroke="red" stroke-width="0.2" /><circle cx="97.5" cy="25" fill="none" r="2.0" stroke="blue" stroke-width="0.2" /><circle cx="72.5" cy="75" fill="none" r="3.0" stroke="red" stroke-width="0.2" /><circle cx="72.5" cy="75" fill="none" r="6.0" stroke="blue" stroke-width="0.2" /><rect fill="none" height="10" stroke="blue" stroke-width="0.2" width="15" x="65.0" y="70" /><circle cx="72.5" cy="65" fill="none" r="1.5" stroke="red" stroke-width="0.2" /><circle cx="72.5" cy="65" fill="none" r="2.0" stroke="blue" stroke-width="0.2" /><circle cx="77.5" cy="65" fill="none" r="1.5" stroke="red" stroke-width="0.2" /><circle cx="77.5" cy="65" fill="none" r="2.0" stroke="blue" stroke-width="0.2" /><circle cx="102.5" cy="75" fill="none" r="3.0" stroke="red" stroke-width="0.2" /><circle cx="102.5" cy="75" fill="none" r="6.0" stroke="blue" stroke-width="0.2" /><rect fill="none" height="10" stroke="blue" stroke-width="0.2" width="15" x="95.0" y="70" /><circle cx="102.5" cy="65" fill="none" r="1.5" stroke="red" stroke-width="0.2" /><circle cx="102.5" cy="65" fill="none" r="2.0" stroke="blue" stroke-width="0.2" /><circle cx="97.5" cy="65" fill="none" r="1.5" stroke="red" stroke-width="0.2" /><circle cx="97.5" cy="65" fill="none" r="2.0" stroke="blue" stroke-width="0.2" /><circle cx="125" cy="7.5" fill="none" r="3.0" stroke="red" stroke-width="0.2" /><circle cx="125" cy="7.5" fill="none" r="6.0" stroke="blue" stroke-width="0.2" /><rect fill="none" height="15" stroke="blue" stroke-width="0.2" width="10" x="120" y="0.0" /><circle cx="135" cy="7.5" fill="none" r="1.5" stroke="red" stroke-width="0.2" /><circle cx="135" cy="7.5" fill="none" r="2.0" stroke="blue" stroke-width="0.2" /><circle cx="135" cy="12.5" fill="none" r="1.5" stroke="red" stroke-width="0.2" /><circle cx="135" cy="12.5" fill="none" r="2.0" stroke="blue" stroke-width="0.2" /><circle cx="190" cy="7.5" fill="none" r="3.0" stroke="red" stroke-width="0.2" /><circle cx="190" cy="7.5" fill="none" r="6.0" stroke="blue" stroke-width="0.2" /><rect fill="none" height="15" stroke="blue" stroke-width="0.2" width="10" x="185" y="0.0" /><circle cx="180" cy="7.5" fill="none" r="1.5" stroke="red" stroke-width="0.2" /><circle cx="180" cy="7.5" fill="none" r="2.0" stroke="blue" stroke-width="0.2" /><circle cx="180" cy="12.5" fill="none" r="1.5" stroke="red" stroke-width="0.2" /><circle cx="180" cy="12.5" fill="none" r="2.0" stroke="blue" stroke-width="0.2" /><circle cx="125" cy="37.5" fill="none" r="3.0" stroke="red" stroke-width="0.2" /><circle cx="125" cy="37.5" fill="none" r="6.0" stroke="blue" stroke-width="0.2" /><rect fill="none" height="15" stroke="blue" stroke-width="0.2" width="10" x="120" y="30.0" /><circle cx="135" cy="37.5" fill="none" r="1.5" stroke="red" stroke-width="0.2" /><circle cx="135" cy="37.5" fill="none" r="2.0" stroke="blue" stroke-width="0.2" /><circle cx="135" cy="32.5" fill="none" r="1.5" stroke="red" stroke-width="0.2" /><circle cx="135" cy="32.5" fill="none" r="2.0" stroke="blue" stroke-width="0.2" /><circle cx="190" cy="37.5" fill="none" r="3.0" stroke="red" stroke-width="0.2" /><circle cx="190" cy="37.5" fill="none" r="6.0" stroke="blue" stroke-width="0.2" /><rect fill="none" height="15" stroke="blue" stroke-width="0.2" width="10" x="185" y="30.0" /><circle cx="180" cy="37.5" fill="none" r="1.5" stroke="red" stroke-width="0.2" /><circle cx="180" cy="37.5" fill="none" r="2.0" stroke="blue" stroke-width="0.2" /><circle cx="180" cy="32.5" fill="none" r="1.5" stroke="red" stroke-width="0.2" /><circle cx="180" cy="32.5" fill="none" r="2.0" stroke="blue" stroke-width="0.2" /><circle cx="80" cy="97.5" fill="none" r="3.0" stroke="red" stroke-width="0.2" /><circle cx="80" cy="97.5" fill="none" r="6.0" stroke="blue" stroke-width="0.2" /><rect fill="none" height="15" stroke="blue" stroke-width="0.2" width="10" x="75" y="90.0" /><circle cx="90" cy="92.5" fill="none" r="1.5" stroke="red" stroke-width="0.2" /><circle cx="90" cy="92.5" fill="none" r="2.0" stroke="blue" stroke-width="0.2" /><circle cx="90" cy="97.5" fill="none" r="1.5" stroke="red" stroke-width="0.2" /><circle cx="90" cy="97.5" fill="none" r="2.0" stroke="blue" stroke-width="0.2" /><circle cx="105" cy="97.5" fill="none" r="3.0" stroke="red" stroke-width="0.2" /><circle cx="105" cy="97.5" fill="none" r="6.0" stroke="blue" stroke-width="0.2" /><rect fill="none" height="15" stroke="blue" stroke-width="0.2" width="10" x="100" y="90.0" /><circle cx="95" cy="92.5" fill="none" r="1.5" stroke="red" stroke-width="0.2" /><circle cx="95" cy="92.5" fill="none" r="2.0" stroke="blue" stroke-width="0.2" /><circle cx="95" cy="97.5" fill="none" r="1.5" stroke="red" stroke-width="0.2" /><circle cx="95" cy="97.5" fill="none" r="2.0" stroke="blue" stroke-width="0.2" /><circle cx="80" cy="112.5" fill="none" r="3.0" stroke="red" stroke-width="0.2" /><circle cx="80" cy="112.5" fill="none" r="6.0" stroke="blue" stroke-width="0.2" /><rect fill="none" height="15" stroke="blue" stroke-width="0.2" width="10" x="75" y="105.0" /><circle cx="90" cy="117.5" fill="none" r="1.5" stroke="red" stroke-width="0.2" /><circle cx="90" cy="117.5" fill="none" r="2.0" stroke="blue" stroke-width="0.2" /><circle cx="90" cy="112.5" fill="none" r="1.5" stroke="red" stroke-width="0.2" /><circle cx="90" cy="112.5" fill="none" r="2.0" stroke="blue" stroke-width="0.2" /><circle cx="105" cy="112.5" fill="none" r="3.0" stroke="red" stroke-width="0.2" /><circle cx="105" cy="112.5" fill="none" r="6.0" stroke="blue" stroke-width="0.2" /><rect fill="none" height="15" stroke="blue" stroke-width="0.2" width="10" x="100" y="105.0" /><circle cx="95" cy="117.5" fill="none" r="1.5" stroke="red" stroke-width="0.2" /><circle cx="95" cy="117.5" fill="none" r="2.0" stroke="blue" stroke-width="0.2" /><circle cx="95" cy="112.5" fill="none" r="1.5" stroke="red" stroke-width="0.2" /><circle cx="95" cy="112.5" fill="none" r="2.0" stroke="blue" stroke-width="0.2" /><circle cx="152.5" cy="75" fill="none" r="3.0" stroke="red" stroke-width="0.2" /><circle cx="152.5" cy="75" fill="none" r="6.0" stroke="blue" stroke-width="0.2" /><rect fill="none" height="10" stroke="blue" stroke-width="0.2" width="15" x="145.0" y="70" /><circle cx="147.5" cy="85" fill="none" r="1.5" stroke="red" stroke-width="0.2" /><circle cx="147.5" cy="85" fill="none" r="2.0" stroke="blue" stroke-width="0.2" /><circle cx="152.5" cy="85" fill="none" r="1.5" stroke="red" stroke-width="0.2" /><circle cx="152.5" cy="85" fill="none" r="2.0" stroke="blue" stroke-width="0.2" /><circle cx="167.5" cy="75" fill="none" r="3.0" stroke="red" stroke-width="0.2" /><circle cx="167.5" cy="75" fill="none" r="6.0" stroke="blue" stroke-width="0.2" /><rect fill="none" height="10" stroke="blue" stroke-width="0.2" width="15" x="160.0" y="70" /><circle cx="172.5" cy="85" fill="none" r="1.5" stroke="red" stroke-width="0.2" /><circle cx="172.5" cy="85" fill="none" r="2.0" stroke="blue" stroke-width="0.2" /><circle cx="167.5" cy="85" fill="none" r="1.5" stroke="red" stroke-width="0.2" /><circle cx="167.5" cy="85" fill="none" r="2.0" stroke="blue" stroke-width="0.2" /><circle cx="152.5" cy="100" fill="none" r="3.0" stroke="red" stroke-width="0.2" /><circle cx="152.5" cy="100" fill="none" r="6.0" stroke="blue" stroke-width="0.2" /><rect fill="none" height="10" stroke="blue" stroke-width="0.2" width="15" x="145.0" y="95" /><circle cx="147.5" cy="90" fill="none" r="1.5" stroke="red" stroke-width="0.2" /><circle cx="147.5" cy="90" fill="none" r="2.0" stroke="blue" stroke-width="0.2" /><circle cx="152.5" cy="90" fill="none" r="1.5" stroke="red" stroke-width="0.2" /><circle cx="152.5" cy="90" fill="none" r="2.0" stroke="blue" stroke-width="0.2" /><circle cx="167.5" cy="100" fill="none" r="3.0" stroke="red" stroke-width="0.2" /><circle cx="167.5" cy="100" fill="none" r="6.0" stroke="blue" stroke-width="0.2" /><rect fill="none" height="10" stroke="blue" stroke-width="0.2" width="15" x="160.0" y="95" /><circle cx="172.5" cy="90" fill="none" r="1.5" stroke="red" stroke-width="0.2" /><circle cx="172.5" cy="90" fill="none" r="2.0" stroke="blue" stroke-width="0.2" /><circle cx="167.5" cy="90" fill="none" r="1.5" stroke="red" stroke-width="0.2" /><circle cx="167.5" cy="90" fill="none" r="2.0" stroke="blue" stroke-width="0.2" /></g><g inkscape:groupmode="layer" inkscape:label="Led" sodipodi:insensitive="1"><circle cx="7.5" cy="27.5" fill="yellow" r="0.5" stroke="red" stroke-width="0.2" /><circle cx="7.5" cy="7.5" fill="yellow" r="0.5" stroke="red" stroke-width="0.2" /><circle cx="32.5" cy="27.5" fill="yellow" r="0.5" stroke="red" stroke-width="0.2" /><circle cx="32.5" cy="7.5" fill="yellow" r="0.5" stroke="red" stroke-width="0.2" /><circle cx="7.5" cy="47.5" fill="yellow" r="0.5" stroke="red" stroke-width="0.2" /><circle cx="32.5" cy="47.5" fill="yellow" r="0.5" stroke="red" stroke-width="0.2" /><circle cx="7.5" cy="52.5" fill="yellow" r="0.5" stroke="red" stroke-width="0.2" /><circle cx="32.5" cy="52.5" fill="yellow" r="0.5" stroke="red" stroke-width="0.2" /><circle cx="7.5" cy="72.5" fill="yellow" r="0.5" stroke="red" stroke-width="0.2" /><circle cx="27.5" cy="72.5" fill="yellow" r="0.5" stroke="red" stroke-width="0.2" /><circle cx="7.5" cy="97.5" fill="yellow" r="0.5" stroke="red" stroke-width="0.2" /><circle cx="27.5" cy="97.5" fill="yellow" r="0.5" stroke="red" stroke-width="0.2" /><circle cx="52.5" cy="117.5" fill="yellow" r="0.5" stroke="red" stroke-width="0.2" /><circle cx="47.5" cy="117.5" fill="yellow" r="0.5" stroke="red" stroke-width="0.2" /><circle cx="52.5" cy="72.5" fill="yellow" r="0.5" stroke="red" stroke-width="0.2" /><circle cx="47.5" cy="72.5" fill="yellow" r="0.5" stroke="red" stroke-width="0.2" /><circle cx="72.5" cy="7.5" fill="yellow" r="0.5" stroke="red" stroke-width="0.2" /><circle cx="102.5" cy="7.5" fill="yellow" r="0.5" stroke="red" stroke-width="0.2" /><circle cx="72.5" cy="47.5" fill="yellow" r="0.5" stroke="red" stroke-width="0.2" /><circle cx="102.5" cy="47.5" fill="yellow" r="0.5" stroke="red" stroke-width="0.2" /><circle cx="117.5" cy="7.5" fill="yellow" r="0.5" stroke="red" stroke-width="0.2" /><circle cx="162.5" cy="7.5" fill="yellow" r="0.5" stroke="red" stroke-width="0.2" /><circle cx="117.5" cy="37.5" fill="yellow" r="0.5" stroke="red" stroke-width="0.2" /><circle cx="162.5" cy="37.5" fill="yellow" r="0.5" stroke="red" stroke-width="0.2" /><circle cx="72.5" cy="97.5" fill="yellow" r="0.5" stroke="red" stroke-width="0.2" /><circle cx="97.5" cy="97.5" fill="yellow" r="0.5" stroke="red" stroke-width="0.2" /><circle cx="72.5" cy="112.5" fill="yellow" r="0.5" stroke="red" stroke-width="0.2" /><circle cx="97.5" cy="112.5" fill="yellow" r="0.5" stroke="red" stroke-width="0.2" /><circle cx="152.5" cy="67.5" fill="yellow" r="0.5" stroke="red" stroke-width="0.2" /><circle cx="167.5" cy="67.5" fill="yellow" r="0.5" stroke="red" stroke-width="0.2" /><circle cx="152.5" cy="92.5" fill="yellow" r="0.5" stroke="red" stroke-width="0.2" /><circle cx="167.5" cy="92.5" fill="yellow" r="0.5" stroke="red" stroke-width="0.2" /><circle cx="25" cy="27.5" fill="green" r="1.5" /><circle cx="25" cy="22.5" fill="green" r="1.5" /><circle cx="25" cy="7.5" fill="green" r="1.5" /><circle cx="25" cy="12.5" fill="green" r="1.5" /><circle cx="30" cy="27.5" fill="green" r="1.5" /><circle cx="30" cy="22.5" fill="green" r="1.5" /><circle cx="30" cy="7.5" fill="green" r="1.5" /><circle cx="30" cy="12.5" fill="green" r="1.5" /><circle cx="7.5" cy="90" fill="green" r="1.5" /><circle cx="12.5" cy="90" fill="green" r="1.5" /><circle cx="27.5" cy="90" fill="green" r="1.5" /><circle cx="22.5" cy="90" fill="green" r="1.5" /><circle cx="7.5" cy="95" fill="green" r="1.5" /><circle cx="12.5" cy="95" fill="green" r="1.5" /><circle cx="27.5" cy="95" fill="green" r="1.5" /><circle cx="22.5" cy="95" fill="green" r="1.5" /><circle cx="72.5" cy="25" fill="green" r="1.5" /><circle cx="77.5" cy="25" fill="green" r="1.5" /><circle cx="102.5" cy="25" fill="green" r="1.5" /><circle cx="97.5" cy="25" fill="green" r="1.5" /><circle cx="72.5" cy="65" fill="green" r="1.5" /><circle cx="77.5" cy="65" fill="green" r="1.5" /><circle cx="102.5" cy="65" fill="green" r="1.5" /><circle cx="97.5" cy="65" fill="green" r="1.5" /><circle cx="135" cy="7.5" fill="green" r="1.5" /><circle cx="135" cy="12.5" fill="green" r="1.5" /><circle cx="180" cy="7.5" fill="green" r="1.5" /><circle cx="180" cy="12.5" fill="green" r="1.5" /><circle cx="135" cy="37.5" fill="green" r="1.5" /><circle cx="135" cy="32.5" fill="green" r="1.5" /><circle cx="180" cy="37.5" fill="green" r="1.5" /><circle cx="180" cy="32.5" fill="green" r="1.5" /><circle cx="90" cy="92.5" fill="green" r="1.5" /><circle cx="90" cy="97.5" fill="green" r="1.5" /><circle cx="95" cy="92.5" fill="green" r="1.5" /><circle cx="95" cy="97.5" fill="green" r="1.5" /><circle cx="90" cy="117.5" fill="green" r="1.5" /><circle cx="90" cy="112.5" fill="green" r="1.5" /><circle cx="95" cy="117.5" fill="green" r="1.5" /><circle cx="95" cy="112.5" fill="green" r="1.5" /><circle cx="147.5" cy="85" fill="green" r="1.5" /><circle cx="152.5" cy="85" fill="green" r="1.5" /><circle cx="172.5" cy="85" fill="green" r="1.5" /><circle cx="167.5" cy="85" fill="green" r="1.5" /><circle cx="147.5" cy="90" fill="green" r="1.5" /><circle cx="152.5" cy="90" fill="green" r="1.5" /><circle cx="172.5" cy="90" fill="green" r="1.5" /><circle cx="167.5" cy="90" fill="green" r="1.5" /></g><g inkscape:groupmode="layer" inkscape:label="Outs" sodipodi:insensitive="1"><rect fill="none" height="120" stroke="red" stroke-width="0.2" width="205" x="0" y="0" /></g></svg>