<svg height="12cm" version="1.1" width="20.5cm" xmlns="http://www.w3.org/2000/svg" viewBox="0,0,205,120"><desc>Created with Snap</desc><defs><pattern x="0" y="0" width="5" height="5" patternUnits="userSpaceOnUse" id="patternSlpv5f8wt3b" viewBox="0 0 5 5"><path d="M 5 0 L 0 0 0 5" style="stroke-width: 0.1;" fill="none" stroke="#0000c8"/></pattern><pattern x="0" y="0" width="20" height="20" patternUnits="userSpaceOnUse" id="patternSlpv5f8wt3d" viewBox="0 0 20 20"><rect x="0" y="0" width="20" height="20" style="" fill="url(&apos;#patternSlpv5f8wt3b&apos;)"/><path d="M 20 0 L 0 0 0 20" style="stroke-width: 0.2;" fill="none" stroke="#0000c8"/></pattern></defs><g id="grid"><rect x="0" y="0" width="205" height="120" style="" fill="#ffffff"/><rect x="0" y="0" width="205" height="120" style="" fill="url(&apos;#patternSlpv5f8wt3d&apos;)"/></g><g id="track"><polyline points="24.329179606750063,21.158359213500127,14.329179606750063,26.158359213500127,15.670820393249937,28.841640786499873,25.670820393249937,23.841640786499873,24.329179606750063,21.158359213500127" style="" fill="#000000" stroke="none"/><polyline points="25,26,5,26,5,29,25,29,25,26" fill="undefined" style="" stroke="none"/><polyline points="25.670820393249937,11.158359213500127,15.670820393249937,6.158359213500126,14.329179606750063,8.841640786499873,24.329179606750063,13.841640786499873,25.670820393249937,11.158359213500127" style="" fill="#000000" stroke="none"/><polyline points="25,6,5,6,5,9,25,9,25,6" fill="undefined" style="" stroke="none"/><polyline points="29.329179606750063,23.841640786499873,39.32917960675006,28.841640786499873,40.67082039324994,26.158359213500127,30.670820393249937,21.158359213500127,29.329179606750063,23.841640786499873" style="" fill="#000000" stroke="none"/><polyline points="30,26,50,26,50,29,30,29,30,26" fill="undefined" style="" stroke="none"/><polyline points="30.670820393249937,13.841640786499873,40.67082039324994,8.841640786499873,39.32917960675006,6.158359213500126,29.329179606750063,11.158359213500127,30.670820393249937,13.841640786499873" style="" fill="#000000" stroke="none"/><polyline points="30,6,50,6,50,9,30,9,30,6" fill="undefined" style="" stroke="none"/><circle cx="15" cy="42.5" r="1.5" style="" stroke="none" fill="#000000"/><polyline points="25,41,15,41,15,44,25,44,25,41" style="" fill="#000000" stroke="none"/><polyline points="14.329179606750063,41.15835921350013,4.329179606750063,46.15835921350013,5.670820393249937,48.84164078649987,15.670820393249937,43.84164078649987,14.329179606750063,41.15835921350013" style="" fill="#000000" stroke="none"/><circle cx="40" cy="42.5" r="1.5" style="" stroke="none" fill="#000000"/><polyline points="30,41,40,41,40,44,30,44,30,41" style="" fill="#000000" stroke="none"/><polyline points="39.32917960675006,43.84164078649987,49.32917960675006,48.84164078649987,50.67082039324994,46.15835921350013,40.67082039324994,41.15835921350013,39.32917960675006,43.84164078649987" style="" fill="#000000" stroke="none"/><circle cx="15" cy="57.5" r="1.5" style="" stroke="none" fill="#000000"/><polyline points="25,56,15,56,15,59,25,59,25,56" style="" fill="#000000" stroke="none"/><polyline points="15.670820393249937,56.15835921350013,5.670820393249937,51.15835921350013,4.329179606750063,53.84164078649987,14.329179606750063,58.84164078649987,15.670820393249937,56.15835921350013" style="" fill="#000000" stroke="none"/><circle cx="40" cy="57.5" r="1.5" style="" stroke="none" fill="#000000"/><polyline points="30,56,40,56,40,59,30,59,30,56" style="" fill="#000000" stroke="none"/><polyline points="40.67082039324994,58.84164078649987,50.67082039324994,53.84164078649987,49.32917960675006,51.15835921350013,39.32917960675006,56.15835921350013,40.67082039324994,58.84164078649987" style="" fill="#000000" stroke="none"/><polyline points="13.841640786499873,89.32917960675006,8.841640786499873,79.32917960675006,6.158359213500126,80.67082039324994,11.158359213500127,90.67082039324994,13.841640786499873,89.32917960675006" style="" fill="#000000" stroke="none"/><polyline points="6,90,6,70,9,70,9,90,6,90" fill="undefined" style="" stroke="none"/><polyline points="23.841640786499873,90.67082039324994,28.841640786499873,80.67082039324994,26.158359213500127,79.32917960675006,21.158359213500127,89.32917960675006,23.841640786499873,90.67082039324994" style="" fill="#000000" stroke="none"/><polyline points="26,90,26,70,29,70,29,90,26,90" fill="undefined" style="" stroke="none"/><polyline points="11.158359213500127,94.32917960675006,6.158359213500126,104.32917960675006,8.841640786499873,105.67082039324994,13.841640786499873,95.67082039324994,11.158359213500127,94.32917960675006" style="" fill="#000000" stroke="none"/><polyline points="6,95,6,115,9,115,9,95,6,95" fill="undefined" style="" stroke="none"/><polyline points="21.158359213500127,95.67082039324994,26.158359213500127,105.67082039324994,28.841640786499873,104.32917960675006,23.841640786499873,94.32917960675006,21.158359213500127,95.67082039324994" style="" fill="#000000" stroke="none"/><polyline points="26,95,26,115,29,115,29,95,26,95" fill="undefined" style="" stroke="none"/><circle cx="57.5" cy="105" r="1.5" style="" stroke="none" fill="#000000"/><polyline points="56,95,56,105,59,105,59,95,56,95" style="" fill="#000000" stroke="none"/><polyline points="56.15835921350013,104.32917960675006,51.15835921350013,114.32917960675006,53.84164078649987,115.67082039324994,58.84164078649987,105.67082039324994,56.15835921350013,104.32917960675006" style="" fill="#000000" stroke="none"/><circle cx="42.5" cy="105" r="1.5" style="" stroke="none" fill="#000000"/><polyline points="41,95,41,105,44,105,44,95,41,95" style="" fill="#000000" stroke="none"/><polyline points="41.15835921350013,105.67082039324994,46.15835921350013,115.67082039324994,48.84164078649987,114.32917960675006,43.84164078649987,104.32917960675006,41.15835921350013,105.67082039324994" style="" fill="#000000" stroke="none"/><circle cx="57.5" cy="80" r="1.5" style="" stroke="none" fill="#000000"/><polyline points="56,90,56,80,59,80,59,90,56,90" style="" fill="#000000" stroke="none"/><polyline points="58.84164078649987,79.32917960675006,53.84164078649987,69.32917960675006,51.15835921350013,70.67082039324994,56.15835921350013,80.67082039324994,58.84164078649987,79.32917960675006" style="" fill="#000000" stroke="none"/><circle cx="42.5" cy="80" r="1.5" style="" stroke="none" fill="#000000"/><polyline points="41,90,41,80,44,80,44,90,41,90" style="" fill="#000000" stroke="none"/><polyline points="43.84164078649987,80.67082039324994,48.84164078649987,70.67082039324994,46.15835921350013,69.32917960675006,41.15835921350013,79.32917960675006,43.84164078649987,80.67082039324994" style="" fill="#000000" stroke="none"/><polyline points="78.84164078649988,24.329179606750063,73.84164078649988,14.329179606750063,71.15835921350012,15.670820393249937,76.15835921350012,25.670820393249937,78.84164078649988,24.329179606750063" style="" fill="#000000" stroke="none"/><polyline points="71,25,71,5,74,5,74,25,71,25" fill="undefined" style="" stroke="none"/><circle cx="77.5" cy="15" r="1.5" style="" stroke="none" fill="#000000"/><polyline points="76,25,76,15,79,15,79,25,76,25" style="" fill="#000000" stroke="none"/><polyline points="78.84164078649988,14.329179606750063,73.84164078649988,4.329179606750063,71.15835921350012,5.670820393249937,76.15835921350012,15.670820393249937,78.84164078649988,14.329179606750063" style="" fill="#000000" stroke="none"/><polyline points="98.84164078649988,25.670820393249937,103.84164078649988,15.670820393249937,101.15835921350012,14.329179606750063,96.15835921350012,24.329179606750063,98.84164078649988,25.670820393249937" style="" fill="#000000" stroke="none"/><polyline points="101,25,101,5,104,5,104,25,101,25" fill="undefined" style="" stroke="none"/><circle cx="97.5" cy="15" r="1.5" style="" stroke="none" fill="#000000"/><polyline points="96,25,96,15,99,15,99,25,96,25" style="" fill="#000000" stroke="none"/><polyline points="98.84164078649988,15.670820393249937,103.84164078649988,5.670820393249937,101.15835921350012,4.329179606750063,96.15835921350012,14.329179606750063,98.84164078649988,15.670820393249937" style="" fill="#000000" stroke="none"/><polyline points="76.15835921350012,44.32917960675006,71.15835921350012,54.32917960675006,73.84164078649988,55.67082039324994,78.84164078649988,45.67082039324994,76.15835921350012,44.32917960675006" style="" fill="#000000" stroke="none"/><polyline points="71,45,71,65,74,65,74,45,71,45" fill="undefined" style="" stroke="none"/><circle cx="77.5" cy="35" r="1.5" style="" stroke="none" fill="#000000"/><polyline points="76,25,76,35,79,35,79,25,76,25" style="" fill="#000000" stroke="none"/><polyline points="76.15835921350012,34.32917960675006,71.15835921350012,44.32917960675006,73.84164078649988,45.67082039324994,78.84164078649988,35.67082039324994,76.15835921350012,34.32917960675006" style="" fill="#000000" stroke="none"/><polyline points="96.15835921350012,45.67082039324994,101.15835921350012,55.67082039324994,103.84164078649988,54.32917960675006,98.84164078649988,44.32917960675006,96.15835921350012,45.67082039324994" style="" fill="#000000" stroke="none"/><polyline points="101,45,101,65,104,65,104,45,101,45" fill="undefined" style="" stroke="none"/><circle cx="97.5" cy="35" r="1.5" style="" stroke="none" fill="#000000"/><polyline points="96,25,96,35,99,35,99,25,96,25" style="" fill="#000000" stroke="none"/><polyline points="96.15835921350012,35.67082039324994,101.15835921350012,45.67082039324994,103.84164078649988,44.32917960675006,98.84164078649988,34.32917960675006,96.15835921350012,35.67082039324994" style="" fill="#000000" stroke="none"/></g><g id="cut"/><g id="led"><circle cx="7.5" cy="27.5" r="0.5" style="stroke-width: 0.2;" stroke="#ff0000" fill="#ffff00"/><circle cx="7.5" cy="7.5" r="0.5" style="stroke-width: 0.2;" stroke="#ff0000" fill="#ffff00"/><circle cx="32.5" cy="27.5" r="0.5" style="stroke-width: 0.2;" stroke="#ff0000" fill="#ffff00"/><circle cx="32.5" cy="7.5" r="0.5" style="stroke-width: 0.2;" stroke="#ff0000" fill="#ffff00"/><circle cx="7.5" cy="47.5" r="0.5" style="stroke-width: 0.2;" stroke="#ff0000" fill="#ffff00"/><circle cx="32.5" cy="47.5" r="0.5" style="stroke-width: 0.2;" stroke="#ff0000" fill="#ffff00"/><circle cx="7.5" cy="52.5" r="0.5" style="stroke-width: 0.2;" stroke="#ff0000" fill="#ffff00"/><circle cx="32.5" cy="52.5" r="0.5" style="stroke-width: 0.2;" stroke="#ff0000" fill="#ffff00"/><circle cx="7.5" cy="72.5" r="0.5" style="stroke-width: 0.2;" stroke="#ff0000" fill="#ffff00"/><circle cx="27.5" cy="72.5" r="0.5" style="stroke-width: 0.2;" stroke="#ff0000" fill="#ffff00"/><circle cx="7.5" cy="97.5" r="0.5" style="stroke-width: 0.2;" stroke="#ff0000" fill="#ffff00"/><circle cx="27.5" cy="97.5" r="0.5" style="stroke-width: 0.2;" stroke="#ff0000" fill="#ffff00"/><circle cx="52.5" cy="117.5" r="0.5" style="stroke-width: 0.2;" stroke="#ff0000" fill="#ffff00"/><circle cx="47.5" cy="117.5" r="0.5" style="stroke-width: 0.2;" stroke="#ff0000" fill="#ffff00"/><circle cx="52.5" cy="72.5" r="0.5" style="stroke-width: 0.2;" stroke="#ff0000" fill="#ffff00"/><circle cx="47.5" cy="72.5" r="0.5" style="stroke-width: 0.2;" stroke="#ff0000" fill="#ffff00"/><circle cx="72.5" cy="7.5" r="0.5" style="stroke-width: 0.2;" stroke="#ff0000" fill="#ffff00"/><circle cx="102.5" cy="7.5" r="0.5" style="stroke-width: 0.2;" stroke="#ff0000" fill="#ffff00"/><circle cx="72.5" cy="47.5" r="0.5" style="stroke-width: 0.2;" stroke="#ff0000" fill="#ffff00"/><circle cx="102.5" cy="47.5" r="0.5" style="stroke-width: 0.2;" stroke="#ff0000" fill="#ffff00"/></g><g id="outs"/></svg>