<?xml version="1.0" encoding="utf-8" ?>
<svg baseProfile="full" height="12.0cm" version="1.1" viewBox="0,0,205,120" width="20.5cm" xmlns="http://www.w3.org/2000/svg" xmlns:ev="http://www.w3.org/2001/xml-events" xmlns:inkscape="http://www.inkscape.org/namespaces/inkscape" xmlns:sodipodi="http://sodipodi.sourceforge.net/DTD/sodipodi-0.dtd" xmlns:xlink="http://www.w3.org/1999/xlink"><defs><pattern height="5" id="id1" patternUnits="userSpaceOnUse" width="5"><path d="M 5 0 L 0 0 0 5" fill="none" stroke="rgb(0%,0%,100%)" stroke-width="0.1" /></pattern><pattern height="20" id="id2" patternUnits="userSpaceOnUse" width="20"><rect fill="url(#id1) none" height="20" width="20" x="0" y="0" /><path d="M 20 0 L 0 0 0 20" fill="none" stroke="rgb(0%,0%,100%)" stroke-width="0.2" /></pattern></defs><g inkscape:groupmode="layer" inkscape:label="GridLayer" sodipodi:insensitive="1"><rect fill="white" height="120" width="205" x="0" y="0" /><rect fill="url(#id2) none" height="120" width="205" x="0" y="0" /></g><g inkscape:groupmode="layer" inkscape:label="Track" sodipodi:insensitive="1"><line stroke="gray" stroke-width="5" x1="5.0" x2="25.0" y1="27.5" y2="27.5" /><line stroke="gray" stroke-width="5" x1="15.0" x2="25.0" y1="27.5" y2="22.5" /><circle cx="15.0" cy="27.5" fill="white" r="2.5" /><line stroke="gray" stroke-width="5" x1="5.0" x2="25.0" y1="7.5" y2="7.5" /><line stroke="gray" stroke-width="5" x1="15.0" x2="25.0" y1="7.5" y2="12.5" /><circle cx="15.0" cy="7.5" fill="white" r="2.5" /><line stroke="gray" stroke-width="5" x1="50.0" x2="30.0" y1="27.5" y2="27.5" /><line stroke="gray" stroke-width="5" x1="40.0" x2="30.0" y1="27.5" y2="22.5" /><circle cx="40.0" cy="27.5" fill="white" r="2.5" /><line stroke="gray" stroke-width="5" x1="50.0" x2="30.0" y1="7.5" y2="7.5" /><line stroke="gray" stroke-width="5" x1="40.0" x2="30.0" y1="7.5" y2="12.5" /><circle cx="40.0" cy="7.5" fill="white" r="2.5" /><line stroke="gray" stroke-width="5" x1="15.0" x2="25.0" y1="42.5" y2="42.5" /><line stroke="gray" stroke-width="5" x1="5.0" x2="15.0" y1="47.5" y2="42.5" /><circle cx="15.0" cy="42.5" fill="gray" r="2.5" /><line stroke="gray" stroke-width="5" x1="40.0" x2="30.0" y1="42.5" y2="42.5" /><line stroke="gray" stroke-width="5" x1="50.0" x2="40.0" y1="47.5" y2="42.5" /><circle cx="40.0" cy="42.5" fill="gray" r="2.5" /><line stroke="gray" stroke-width="5" x1="15.0" x2="25.0" y1="57.5" y2="57.5" /><line stroke="gray" stroke-width="5" x1="5.0" x2="15.0" y1="52.5" y2="57.5" /><circle cx="15.0" cy="57.5" fill="gray" r="2.5" /><line stroke="gray" stroke-width="5" x1="40.0" x2="30.0" y1="57.5" y2="57.5" /><line stroke="gray" stroke-width="5" x1="50.0" x2="40.0" y1="52.5" y2="57.5" /><circle cx="40.0" cy="57.5" fill="gray" r="2.5" /><line stroke="gray" stroke-width="5" x1="7.5" x2="7.5" y1="70.0" y2="90.0" /><line stroke="gray" stroke-width="5" x1="7.5" x2="12.5" y1="80.0" y2="90.0" /><circle cx="7.5" cy="80.0" fill="white" r="2.5" /><line stroke="gray" stroke-width="5" x1="27.5" x2="27.5" y1="70.0" y2="90.0" /><line stroke="gray" stroke-width="5" x1="27.5" x2="22.5" y1="80.0" y2="90.0" /><circle cx="27.5" cy="80.0" fill="white" r="2.5" /><line stroke="gray" stroke-width="5" x1="7.5" x2="7.5" y1="115.0" y2="95.0" /><line stroke="gray" stroke-width="5" x1="7.5" x2="12.5" y1="105.0" y2="95.0" /><circle cx="7.5" cy="105.0" fill="white" r="2.5" /><line stroke="gray" stroke-width="5" x1="27.5" x2="27.5" y1="115.0" y2="95.0" /><line stroke="gray" stroke-width="5" x1="27.5" x2="22.5" y1="105.0" y2="95.0" /><circle cx="27.5" cy="105.0" fill="white" r="2.5" /><line stroke="gray" stroke-width="5" x1="57.5" x2="57.5" y1="105.0" y2="95.0" /><line stroke="gray" stroke-width="5" x1="52.5" x2="57.5" y1="115.0" y2="105.0" /><circle cx="57.5" cy="105.0" fill="gray" r="2.5" /><line stroke="gray" stroke-width="5" x1="42.5" x2="42.5" y1="105.0" y2="95.0" /><line stroke="gray" stroke-width="5" x1="47.5" x2="42.5" y1="115.0" y2="105.0" /><circle cx="42.5" cy="105.0" fill="gray" r="2.5" /><line stroke="gray" stroke-width="5" x1="57.5" x2="57.5" y1="80.0" y2="90.0" /><line stroke="gray" stroke-width="5" x1="52.5" x2="57.5" y1="70.0" y2="80.0" /><circle cx="57.5" cy="80.0" fill="gray" r="2.5" /><line stroke="gray" stroke-width="5" x1="42.5" x2="42.5" y1="80.0" y2="90.0" /><line stroke="gray" stroke-width="5" x1="47.5" x2="42.5" y1="70.0" y2="80.0" /><circle cx="42.5" cy="80.0" fill="gray" r="2.5" /><line stroke="gray" stroke-width="5" x1="72.5" x2="72.5" y1="5.0" y2="25.0" /><line stroke="gray" stroke-width="5" x1="72.5" x2="77.5" y1="15.0" y2="25.0" /><circle cx="72.5" cy="15.0" fill="white" r="2.5" /><line stroke="gray" stroke-width="5" x1="82.5" x2="82.5" y1="35.0" y2="45.0" /><line stroke="gray" stroke-width="5" x1="77.5" x2="82.5" y1="25.0" y2="35.0" /><circle cx="82.5" cy="35.0" fill="gray" r="2.5" /><line stroke="gray" stroke-width="5" x1="72.5" x2="72.5" y1="25.0" y2="45.0" /><line stroke="gray" stroke-width="5" x1="102.5" x2="102.5" y1="5.0" y2="25.0" /><line stroke="gray" stroke-width="5" x1="102.5" x2="97.5" y1="15.0" y2="25.0" /><circle cx="102.5" cy="15.0" fill="white" r="2.5" /><line stroke="gray" stroke-width="5" x1="92.5" x2="92.5" y1="35.0" y2="45.0" /><line stroke="gray" stroke-width="5" x1="97.5" x2="92.5" y1="25.0" y2="35.0" /><circle cx="92.5" cy="35.0" fill="gray" r="2.5" /><line stroke="gray" stroke-width="5" x1="102.5" x2="102.5" y1="25.0" y2="45.0" /><line stroke="gray" stroke-width="5" x1="72.5" x2="72.5" y1="85.0" y2="65.0" /><line stroke="gray" stroke-width="5" x1="72.5" x2="77.5" y1="75.0" y2="65.0" /><circle cx="72.5" cy="75.0" fill="white" r="2.5" /><line stroke="gray" stroke-width="5" x1="82.5" x2="82.5" y1="55.0" y2="45.0" /><line stroke="gray" stroke-width="5" x1="77.5" x2="82.5" y1="65.0" y2="55.0" /><circle cx="82.5" cy="55.0" fill="gray" r="2.5" /><line stroke="gray" stroke-width="5" x1="72.5" x2="72.5" y1="45.0" y2="65.0" /><line stroke="gray" stroke-width="5" x1="102.5" x2="102.5" y1="85.0" y2="65.0" /><line stroke="gray" stroke-width="5" x1="102.5" x2="97.5" y1="75.0" y2="65.0" /><circle cx="102.5" cy="75.0" fill="white" r="2.5" /><line stroke="gray" stroke-width="5" x1="92.5" x2="92.5" y1="55.0" y2="45.0" /><line stroke="gray" stroke-width="5" x1="97.5" x2="92.5" y1="65.0" y2="55.0" /><circle cx="92.5" cy="55.0" fill="gray" r="2.5" /><line stroke="gray" stroke-width="5" x1="102.5" x2="102.5" y1="45.0" y2="65.0" /><line stroke="gray" stroke-width="5" x1="115.0" x2="135.0" y1="7.5" y2="7.5" /><line stroke="gray" stroke-width="5" x1="125.0" x2="135.0" y1="7.5" y2="12.5" /><circle cx="125.0" cy="7.5" fill="white" r="2.5" /><line stroke="gray" stroke-width="5" x1="145.0" x2="155.0" y1="17.5" y2="17.5" /><line stroke="gray" stroke-width="5" x1="135.0" x2="145.0" y1="12.5" y2="17.5" /><circle cx="145.0" cy="17.5" fill="gray" r="2.5" /><line stroke="gray" stroke-width="5" x1="135.0" x2="155.0" y1="7.5" y2="7.5" /><line stroke="gray" stroke-width="5" x1="200.0" x2="180.0" y1="7.5" y2="7.5" /><line stroke="gray" stroke-width="5" x1="190.0" x2="180.0" y1="7.5" y2="12.5" /><circle cx="190.0" cy="7.5" fill="white" r="2.5" /><line stroke="gray" stroke-width="5" x1="170.0" x2="160.0" y1="17.5" y2="17.5" /><line stroke="gray" stroke-width="5" x1="180.0" x2="170.0" y1="12.5" y2="17.5" /><circle cx="170.0" cy="17.5" fill="gray" r="2.5" /><line stroke="gray" stroke-width="5" x1="160.0" x2="180.0" y1="7.5" y2="7.5" /><line stroke="gray" stroke-width="5" x1="115.0" x2="135.0" y1="37.5" y2="37.5" /><line stroke="gray" stroke-width="5" x1="125.0" x2="135.0" y1="37.5" y2="32.5" /><circle cx="125.0" cy="37.5" fill="white" r="2.5" /><line stroke="gray" stroke-width="5" x1="145.0" x2="155.0" y1="27.5" y2="27.5" /><line stroke="gray" stroke-width="5" x1="135.0" x2="145.0" y1="32.5" y2="27.5" /><circle cx="145.0" cy="27.5" fill="gray" r="2.5" /><line stroke="gray" stroke-width="5" x1="135.0" x2="155.0" y1="37.5" y2="37.5" /><line stroke="gray" stroke-width="5" x1="200.0" x2="180.0" y1="37.5" y2="37.5" /><line stroke="gray" stroke-width="5" x1="190.0" x2="180.0" y1="37.5" y2="32.5" /><circle cx="190.0" cy="37.5" fill="white" r="2.5" /><line stroke="gray" stroke-width="5" x1="170.0" x2="160.0" y1="27.5" y2="27.5" /><line stroke="gray" stroke-width="5" x1="180.0" x2="170.0" y1="32.5" y2="27.5" /><circle cx="170.0" cy="27.5" fill="gray" r="2.5" /><line stroke="gray" stroke-width="5" x1="160.0" x2="180.0" y1="37.5" y2="37.5" /><line stroke="gray" stroke-width="5" x1="70.0" x2="90.0" y1="102.5" y2="92.5" /><line stroke="gray" stroke-width="5" x1="80.0" x2="90.0" y1="97.5" y2="97.5" /><circle cx="80.0" cy="97.5" fill="white" r="2.5" /><line stroke="gray" stroke-width="5" x1="115.0" x2="95.0" y1="102.5" y2="92.5" /><line stroke="gray" stroke-width="5" x1="105.0" x2="95.0" y1="97.5" y2="97.5" /><circle cx="105.0" cy="97.5" fill="white" r="2.5" /><line stroke="gray" stroke-width="5" x1="70.0" x2="90.0" y1="107.5" y2="117.5" /><line stroke="gray" stroke-width="5" x1="80.0" x2="90.0" y1="112.5" y2="112.5" /><circle cx="80.0" cy="112.5" fill="white" r="2.5" /><line stroke="gray" stroke-width="5" x1="115.0" x2="95.0" y1="107.5" y2="117.5" /><line stroke="gray" stroke-width="5" x1="105.0" x2="95.0" y1="112.5" y2="112.5" /><circle cx="105.0" cy="112.5" fill="white" r="2.5" /><line stroke="gray" stroke-width="5" x1="157.5" x2="147.5" y1="65.0" y2="85.0" /><line stroke="gray" stroke-width="5" x1="152.5" x2="152.5" y1="75.0" y2="85.0" /><circle cx="152.5" cy="75.0" fill="white" r="2.5" /><line stroke="gray" stroke-width="5" x1="162.5" x2="172.5" y1="65.0" y2="85.0" /><line stroke="gray" stroke-width="5" x1="167.5" x2="167.5" y1="75.0" y2="85.0" /><circle cx="167.5" cy="75.0" fill="white" r="2.5" /><line stroke="gray" stroke-width="5" x1="157.5" x2="147.5" y1="110.0" y2="90.0" /><line stroke="gray" stroke-width="5" x1="152.5" x2="152.5" y1="100.0" y2="90.0" /><circle cx="152.5" cy="100.0" fill="white" r="2.5" /><line stroke="gray" stroke-width="5" x1="162.5" x2="172.5" y1="110.0" y2="90.0" /><line stroke="gray" stroke-width="5" x1="167.5" x2="167.5" y1="100.0" y2="90.0" /><circle cx="167.5" cy="100.0" fill="white" r="2.5" /></g><g inkscape:groupmode="layer" inkscape:label="Cut" sodipodi:insensitive="1"><circle cx="15.0" cy="27.5" fill="none" r="2.5" stroke="red" stroke-width="0.2" /><rect fill="none" height="15" stroke="red" stroke-width="0.2" width="10" x="10.0" y="20.0" /><circle cx="25.0" cy="22.5" fill="none" r="1.5" stroke="red" stroke-width="0.2" /><circle cx="25.0" cy="27.5" fill="none" r="1.5" stroke="red" stroke-width="0.2" /><circle cx="15.0" cy="7.5" fill="none" r="2.5" stroke="red" stroke-width="0.2" /><rect fill="none" height="15" stroke="red" stroke-width="0.2" width="10" x="10.0" y="0.0" /><circle cx="25.0" cy="12.5" fill="none" r="1.5" stroke="red" stroke-width="0.2" /><circle cx="25.0" cy="7.5" fill="none" r="1.5" stroke="red" stroke-width="0.2" /><circle cx="40.0" cy="27.5" fill="none" r="2.5" stroke="red" stroke-width="0.2" /><rect fill="none" height="15" stroke="red" stroke-width="0.2" width="10" x="35.0" y="20.0" /><circle cx="30.0" cy="22.5" fill="none" r="1.5" stroke="red" stroke-width="0.2" /><circle cx="30.0" cy="27.5" fill="none" r="1.5" stroke="red" stroke-width="0.2" /><circle cx="40.0" cy="7.5" fill="none" r="2.5" stroke="red" stroke-width="0.2" /><rect fill="none" height="15" stroke="red" stroke-width="0.2" width="10" x="35.0" y="0.0" /><circle cx="30.0" cy="12.5" fill="none" r="1.5" stroke="red" stroke-width="0.2" /><circle cx="30.0" cy="7.5" fill="none" r="1.5" stroke="red" stroke-width="0.2" /><circle cx="7.5" cy="80.0" fill="none" r="2.5" stroke="red" stroke-width="0.2" /><rect fill="none" height="10" stroke="red" stroke-width="0.2" width="15" x="0.0" y="75.0" /><circle cx="12.5" cy="90.0" fill="none" r="1.5" stroke="red" stroke-width="0.2" /><circle cx="7.5" cy="90.0" fill="none" r="1.5" stroke="red" stroke-width="0.2" /><circle cx="27.5" cy="80.0" fill="none" r="2.5" stroke="red" stroke-width="0.2" /><rect fill="none" height="10" stroke="red" stroke-width="0.2" width="15" x="20.0" y="75.0" /><circle cx="22.5" cy="90.0" fill="none" r="1.5" stroke="red" stroke-width="0.2" /><circle cx="27.5" cy="90.0" fill="none" r="1.5" stroke="red" stroke-width="0.2" /><circle cx="7.5" cy="105.0" fill="none" r="2.5" stroke="red" stroke-width="0.2" /><rect fill="none" height="10" stroke="red" stroke-width="0.2" width="15" x="0.0" y="100.0" /><circle cx="12.5" cy="95.0" fill="none" r="1.5" stroke="red" stroke-width="0.2" /><circle cx="7.5" cy="95.0" fill="none" r="1.5" stroke="red" stroke-width="0.2" /><circle cx="27.5" cy="105.0" fill="none" r="2.5" stroke="red" stroke-width="0.2" /><rect fill="none" height="10" stroke="red" stroke-width="0.2" width="15" x="20.0" y="100.0" /><circle cx="22.5" cy="95.0" fill="none" r="1.5" stroke="red" stroke-width="0.2" /><circle cx="27.5" cy="95.0" fill="none" r="1.5" stroke="red" stroke-width="0.2" /><circle cx="72.5" cy="15.0" fill="none" r="2.5" stroke="red" stroke-width="0.2" /><rect fill="none" height="10" stroke="red" stroke-width="0.2" width="15" x="65.0" y="10.0" /><circle cx="77.5" cy="25.0" fill="none" r="1.5" stroke="red" stroke-width="0.2" /><circle cx="72.5" cy="25.0" fill="none" r="1.5" stroke="red" stroke-width="0.2" /><circle cx="102.5" cy="15.0" fill="none" r="2.5" stroke="red" stroke-width="0.2" /><rect fill="none" height="10" stroke="red" stroke-width="0.2" width="15" x="95.0" y="10.0" /><circle cx="97.5" cy="25.0" fill="none" r="1.5" stroke="red" stroke-width="0.2" /><circle cx="102.5" cy="25.0" fill="none" r="1.5" stroke="red" stroke-width="0.2" /><circle cx="72.5" cy="75.0" fill="none" r="2.5" stroke="red" stroke-width="0.2" /><rect fill="none" height="10" stroke="red" stroke-width="0.2" width="15" x="65.0" y="70.0" /><circle cx="77.5" cy="65.0" fill="none" r="1.5" stroke="red" stroke-width="0.2" /><circle cx="72.5" cy="65.0" fill="none" r="1.5" stroke="red" stroke-width="0.2" /><circle cx="102.5" cy="75.0" fill="none" r="2.5" stroke="red" stroke-width="0.2" /><rect fill="none" height="10" stroke="red" stroke-width="0.2" width="15" x="95.0" y="70.0" /><circle cx="97.5" cy="65.0" fill="none" r="1.5" stroke="red" stroke-width="0.2" /><circle cx="102.5" cy="65.0" fill="none" r="1.5" stroke="red" stroke-width="0.2" /><circle cx="125.0" cy="7.5" fill="none" r="2.5" stroke="red" stroke-width="0.2" /><rect fill="none" height="15" stroke="red" stroke-width="0.2" width="10" x="120.0" y="0.0" /><circle cx="135.0" cy="12.5" fill="none" r="1.5" stroke="red" stroke-width="0.2" /><circle cx="135.0" cy="7.5" fill="none" r="1.5" stroke="red" stroke-width="0.2" /><circle cx="190.0" cy="7.5" fill="none" r="2.5" stroke="red" stroke-width="0.2" /><rect fill="none" height="15" stroke="red" stroke-width="0.2" width="10" x="185.0" y="0.0" /><circle cx="180.0" cy="12.5" fill="none" r="1.5" stroke="red" stroke-width="0.2" /><circle cx="180.0" cy="7.5" fill="none" r="1.5" stroke="red" stroke-width="0.2" /><circle cx="125.0" cy="37.5" fill="none" r="2.5" stroke="red" stroke-width="0.2" /><rect fill="none" height="15" stroke="red" stroke-width="0.2" width="10" x="120.0" y="30.0" /><circle cx="135.0" cy="32.5" fill="none" r="1.5" stroke="red" stroke-width="0.2" /><circle cx="135.0" cy="37.5" fill="none" r="1.5" stroke="red" stroke-width="0.2" /><circle cx="190.0" cy="37.5" fill="none" r="2.5" stroke="red" stroke-width="0.2" /><rect fill="none" height="15" stroke="red" stroke-width="0.2" width="10" x="185.0" y="30.0" /><circle cx="180.0" cy="32.5" fill="none" r="1.5" stroke="red" stroke-width="0.2" /><circle cx="180.0" cy="37.5" fill="none" r="1.5" stroke="red" stroke-width="0.2" /><circle cx="80.0" cy="97.5" fill="none" r="2.5" stroke="red" stroke-width="0.2" /><rect fill="none" height="15" stroke="red" stroke-width="0.2" width="10" x="75.0" y="90.0" /><circle cx="90.0" cy="97.5" fill="none" r="1.5" stroke="red" stroke-width="0.2" /><circle cx="90.0" cy="92.5" fill="none" r="1.5" stroke="red" stroke-width="0.2" /><circle cx="105.0" cy="97.5" fill="none" r="2.5" stroke="red" stroke-width="0.2" /><rect fill="none" height="15" stroke="red" stroke-width="0.2" width="10" x="100.0" y="90.0" /><circle cx="95.0" cy="97.5" fill="none" r="1.5" stroke="red" stroke-width="0.2" /><circle cx="95.0" cy="92.5" fill="none" r="1.5" stroke="red" stroke-width="0.2" /><circle cx="80.0" cy="112.5" fill="none" r="2.5" stroke="red" stroke-width="0.2" /><rect fill="none" height="15" stroke="red" stroke-width="0.2" width="10" x="75.0" y="105.0" /><circle cx="90.0" cy="112.5" fill="none" r="1.5" stroke="red" stroke-width="0.2" /><circle cx="90.0" cy="117.5" fill="none" r="1.5" stroke="red" stroke-width="0.2" /><circle cx="105.0" cy="112.5" fill="none" r="2.5" stroke="red" stroke-width="0.2" /><rect fill="none" height="15" stroke="red" stroke-width="0.2" width="10" x="100.0" y="105.0" /><circle cx="95.0" cy="112.5" fill="none" r="1.5" stroke="red" stroke-width="0.2" /><circle cx="95.0" cy="117.5" fill="none" r="1.5" stroke="red" stroke-width="0.2" /><circle cx="152.5" cy="75.0" fill="none" r="2.5" stroke="red" stroke-width="0.2" /><rect fill="none" height="10" stroke="red" stroke-width="0.2" width="15" x="145.0" y="70.0" /><circle cx="152.5" cy="85.0" fill="none" r="1.5" stroke="red" stroke-width="0.2" /><circle cx="147.5" cy="85.0" fill="none" r="1.5" stroke="red" stroke-width="0.2" /><circle cx="167.5" cy="75.0" fill="none" r="2.5" stroke="red" stroke-width="0.2" /><rect fill="none" height="10" stroke="red" stroke-width="0.2" width="15" x="160.0" y="70.0" /><circle cx="167.5" cy="85.0" fill="none" r="1.5" stroke="red" stroke-width="0.2" /><circle cx="172.5" cy="85.0" fill="none" r="1.5" stroke="red" stroke-width="0.2" /><circle cx="152.5" cy="100.0" fill="none" r="2.5" stroke="red" stroke-width="0.2" /><rect fill="none" height="10" stroke="red" stroke-width="0.2" width="15" x="145.0" y="95.0" /><circle cx="152.5" cy="90.0" fill="none" r="1.5" stroke="red" stroke-width="0.2" /><circle cx="147.5" cy="90.0" fill="none" r="1.5" stroke="red" stroke-width="0.2" /><circle cx="167.5" cy="100.0" fill="none" r="2.5" stroke="red" stroke-width="0.2" /><rect fill="none" height="10" stroke="red" stroke-width="0.2" width="15" x="160.0" y="95.0" /><circle cx="167.5" cy="90.0" fill="none" r="1.5" stroke="red" stroke-width="0.2" /><circle cx="172.5" cy="90.0" fill="none" r="1.5" stroke="red" stroke-width="0.2" /></g><g inkscape:groupmode="layer" inkscape:label="Led" sodipodi:insensitive="1"><circle cx="7.5" cy="27.5" fill="yellow" r="0.5" stroke="red" stroke-width="0.2" /><circle cx="7.5" cy="7.5" fill="yellow" r="0.5" stroke="red" stroke-width="0.2" /><circle cx="32.5" cy="27.5" fill="yellow" r="0.5" stroke="red" stroke-width="0.2" /><circle cx="32.5" cy="7.5" fill="yellow" r="0.5" stroke="red" stroke-width="0.2" /><circle cx="7.5" cy="47.5" fill="yellow" r="0.5" stroke="red" stroke-width="0.2" /><circle cx="32.5" cy="47.5" fill="yellow" r="0.5" stroke="red" stroke-width="0.2" /><circle cx="7.5" cy="52.5" fill="yellow" r="0.5" stroke="red" stroke-width="0.2" /><circle cx="32.5" cy="52.5" fill="yellow" r="0.5" stroke="red" stroke-width="0.2" /><circle cx="7.5" cy="72.5" fill="yellow" r="0.5" stroke="red" stroke-width="0.2" /><circle cx="27.5" cy="72.5" fill="yellow" r="0.5" stroke="red" stroke-width="0.2" /><circle cx="7.5" cy="97.5" fill="yellow" r="0.5" stroke="red" stroke-width="0.2" /><circle cx="27.5" cy="97.5" fill="yellow" r="0.5" stroke="red" stroke-width="0.2" /><circle cx="52.5" cy="117.5" fill="yellow" r="0.5" stroke="red" stroke-width="0.2" /><circle cx="47.5" cy="117.5" fill="yellow" r="0.5" stroke="red" stroke-width="0.2" /><circle cx="52.5" cy="72.5" fill="yellow" r="0.5" stroke="red" stroke-width="0.2" /><circle cx="47.5" cy="72.5" fill="yellow" r="0.5" stroke="red" stroke-width="0.2" /><circle cx="72.5" cy="7.5" fill="yellow" r="0.5" stroke="red" stroke-width="0.2" /><circle cx="102.5" cy="7.5" fill="yellow" r="0.5" stroke="red" stroke-width="0.2" /><circle cx="72.5" cy="47.5" fill="yellow" r="0.5" stroke="red" stroke-width="0.2" /><circle cx="102.5" cy="47.5" fill="yellow" r="0.5" stroke="red" stroke-width="0.2" /><circle cx="117.5" cy="7.5" fill="yellow" r="0.5" stroke="red" stroke-width="0.2" /><circle cx="162.5" cy="7.5" fill="yellow" r="0.5" stroke="red" stroke-width="0.2" /><circle cx="117.5" cy="37.5" fill="yellow" r="0.5" stroke="red" stroke-width="0.2" /><circle cx="162.5" cy="37.5" fill="yellow" r="0.5" stroke="red" stroke-width="0.2" /><circle cx="72.5" cy="97.5" fill="yellow" r="0.5" stroke="red" stroke-width="0.2" /><circle cx="97.5" cy="97.5" fill="yellow" r="0.5" stroke="red" stroke-width="0.2" /><circle cx="72.5" cy="112.5" fill="yellow" r="0.5" stroke="red" stroke-width="0.2" /><circle cx="97.5" cy="112.5" fill="yellow" r="0.5" stroke="red" stroke-width="0.2" /><circle cx="152.5" cy="67.5" fill="yellow" r="0.5" stroke="red" stroke-width="0.2" /><circle cx="167.5" cy="67.5" fill="yellow" r="0.5" stroke="red" stroke-width="0.2" /><circle cx="152.5" cy="92.5" fill="yellow" r="0.5" stroke="red" stroke-width="0.2" /><circle cx="167.5" cy="92.5" fill="yellow" r="0.5" stroke="red" stroke-width="0.2" /><circle cx="25.0" cy="22.5" fill="green" r="1.5" /><circle cx="25.0" cy="27.5" fill="green" r="1.5" /><circle cx="25.0" cy="12.5" fill="green" r="1.5" /><circle cx="25.0" cy="7.5" fill="green" r="1.5" /><circle cx="30.0" cy="22.5" fill="green" r="1.5" /><circle cx="30.0" cy="27.5" fill="green" r="1.5" /><circle cx="30.0" cy="12.5" fill="green" r="1.5" /><circle cx="30.0" cy="7.5" fill="green" r="1.5" /><circle cx="12.5" cy="90.0" fill="green" r="1.5" /><circle cx="7.5" cy="90.0" fill="green" r="1.5" /><circle cx="22.5" cy="90.0" fill="green" r="1.5" /><circle cx="27.5" cy="90.0" fill="green" r="1.5" /><circle cx="12.5" cy="95.0" fill="green" r="1.5" /><circle cx="7.5" cy="95.0" fill="green" r="1.5" /><circle cx="22.5" cy="95.0" fill="green" r="1.5" /><circle cx="27.5" cy="95.0" fill="green" r="1.5" /><circle cx="77.5" cy="25.0" fill="green" r="1.5" /><circle cx="72.5" cy="25.0" fill="green" r="1.5" /><circle cx="97.5" cy="25.0" fill="green" r="1.5" /><circle cx="102.5" cy="25.0" fill="green" r="1.5" /><circle cx="77.5" cy="65.0" fill="green" r="1.5" /><circle cx="72.5" cy="65.0" fill="green" r="1.5" /><circle cx="97.5" cy="65.0" fill="green" r="1.5" /><circle cx="102.5" cy="65.0" fill="green" r="1.5" /><circle cx="135.0" cy="12.5" fill="green" r="1.5" /><circle cx="135.0" cy="7.5" fill="green" r="1.5" /><circle cx="180.0" cy="12.5" fill="green" r="1.5" /><circle cx="180.0" cy="7.5" fill="green" r="1.5" /><circle cx="135.0" cy="32.5" fill="green" r="1.5" /><circle cx="135.0" cy="37.5" fill="green" r="1.5" /><circle cx="180.0" cy="32.5" fill="green" r="1.5" /><circle cx="180.0" cy="37.5" fill="green" r="1.5" /><circle cx="90.0" cy="97.5" fill="green" r="1.5" /><circle cx="90.0" cy="92.5" fill="green" r="1.5" /><circle cx="95.0" cy="97.5" fill="green" r="1.5" /><circle cx="95.0" cy="92.5" fill="green" r="1.5" /><circle cx="90.0" cy="112.5" fill="green" r="1.5" /><circle cx="90.0" cy="117.5" fill="green" r="1.5" /><circle cx="95.0" cy="112.5" fill="green" r="1.5" /><circle cx="95.0" cy="117.5" fill="green" r="1.5" /><circle cx="152.5" cy="85.0" fill="green" r="1.5" /><circle cx="147.5" cy="85.0" fill="green" r="1.5" /><circle cx="167.5" cy="85.0" fill="green" r="1.5" /><circle cx="172.5" cy="85.0" fill="green" r="1.5" /><circle cx="152.5" cy="90.0" fill="green" r="1.5" /><circle cx="147.5" cy="90.0" fill="green" r="1.5" /><circle cx="167.5" cy="90.0" fill="green" r="1.5" /><circle cx="172.5" cy="90.0" fill="green" r="1.5" /></g></svg>