<svg height="20cm" version="1.1" width="20cm" xmlns="http://www.w3.org/2000/svg" viewBox="0,0,200,200"><desc>Created with Snap</desc><defs><pattern x="0" y="0" width="5" height="5" patternUnits="userSpaceOnUse" id="patternSltpqalrk9" viewBox="0 0 5 5"><path d="M 5 0 L 0 0 0 5" style="stroke-width: 0.1;" fill="none" stroke="#0000c8"/></pattern><pattern x="0" y="0" width="20" height="20" patternUnits="userSpaceOnUse" id="patternSltpqalrkb" viewBox="0 0 20 20"><rect x="0" y="0" width="20" height="20" style="" fill="url(&apos;#patternSltpqalrk9&apos;)"/><path d="M 20 0 L 0 0 0 20" style="stroke-width: 0.2;" fill="none" stroke="#0000c8"/></pattern></defs><g id="grid"><rect x="0" y="0" width="200" height="200" style="" fill="#ffffff"/><rect x="0" y="0" width="200" height="200" style="" fill="url(&apos;#patternSltpqalrkb&apos;)"/></g><g id="track"><circle cx="37.5" cy="52.5" r="2" style="" stroke="none" fill="#808080"/><circle cx="52.5" cy="37.5" r="2" style="" stroke="none" fill="#808080"/><polyline points="35.5,52.5,35.5,55,39.5,55,39.5,52.5,35.5,52.5" style="" fill="#808080" stroke="none"/><polyline points="51.08578643762691,36.08578643762691,36.08578643762691,51.08578643762691,38.91421356237309,53.91421356237309,53.91421356237309,38.91421356237309,51.08578643762691,36.08578643762691" style="" fill="#808080" stroke="none"/><polyline points="55,35.5,52.5,35.5,52.5,39.5,55,39.5,55,35.5" style="" fill="#808080" stroke="none"/><circle cx="77.5" cy="52.5" r="2" style="" stroke="none" fill="#808080"/><circle cx="62.5" cy="37.5" r="2" style="" stroke="none" fill="#808080"/><polyline points="75.5,52.5,75.5,55,79.5,55,79.5,52.5,75.5,52.5" style="" fill="#808080" stroke="none"/><polyline points="61.08578643762691,38.91421356237309,76.08578643762691,53.91421356237309,78.91421356237309,51.08578643762691,63.91421356237309,36.08578643762691,61.08578643762691,38.91421356237309" style="" fill="#808080" stroke="none"/><polyline points="60,35.5,62.5,35.5,62.5,39.5,60,39.5,60,35.5" style="" fill="#808080" stroke="none"/><circle cx="37.5" cy="62.5" r="2" style="" stroke="none" fill="#808080"/><circle cx="52.5" cy="77.5" r="2" style="" stroke="none" fill="#808080"/><polyline points="35.5,62.5,35.5,60,39.5,60,39.5,62.5,35.5,62.5" style="" fill="#808080" stroke="none"/><polyline points="53.91421356237309,76.08578643762691,38.91421356237309,61.08578643762691,36.08578643762691,63.91421356237309,51.08578643762691,78.91421356237309,53.91421356237309,76.08578643762691" style="" fill="#808080" stroke="none"/><polyline points="55,75.5,52.5,75.5,52.5,79.5,55,79.5,55,75.5" style="" fill="#808080" stroke="none"/><circle cx="77.5" cy="62.5" r="2" style="" stroke="none" fill="#808080"/><circle cx="62.5" cy="77.5" r="2" style="" stroke="none" fill="#808080"/><polyline points="75.5,62.5,75.5,60,79.5,60,79.5,62.5,75.5,62.5" style="" fill="#808080" stroke="none"/><polyline points="63.91421356237309,78.91421356237309,78.91421356237309,63.91421356237309,76.08578643762691,61.08578643762691,61.08578643762691,76.08578643762691,63.91421356237309,78.91421356237309" style="" fill="#808080" stroke="none"/><polyline points="60,75.5,62.5,75.5,62.5,79.5,60,79.5,60,75.5" style="" fill="#808080" stroke="none"/><circle cx="27.5" cy="42.5" r="2" style="" stroke="none" fill="#808080"/><circle cx="42.5" cy="27.5" r="2" style="" stroke="none" fill="#808080"/><polyline points="25.5,42.5,25.5,55,29.5,55,29.5,42.5,25.5,42.5" style="" fill="#808080" stroke="none"/><polyline points="41.08578643762691,26.085786437626904,26.085786437626904,41.08578643762691,28.914213562373096,43.91421356237309,43.91421356237309,28.914213562373096,41.08578643762691,26.085786437626904" style="" fill="#808080" stroke="none"/><polyline points="55,25.5,42.5,25.5,42.5,29.5,55,29.5,55,25.5" style="" fill="#808080" stroke="none"/><circle cx="87.5" cy="42.5" r="2" style="" stroke="none" fill="#808080"/><circle cx="72.5" cy="27.5" r="2" style="" stroke="none" fill="#808080"/><polyline points="85.5,42.5,85.5,55,89.5,55,89.5,42.5,85.5,42.5" style="" fill="#808080" stroke="none"/><polyline points="71.08578643762691,28.914213562373096,86.08578643762691,43.91421356237309,88.91421356237309,41.08578643762691,73.91421356237309,26.085786437626904,71.08578643762691,28.914213562373096" style="" fill="#808080" stroke="none"/><polyline points="60,25.5,72.5,25.5,72.5,29.5,60,29.5,60,25.5" style="" fill="#808080" stroke="none"/><circle cx="27.5" cy="72.5" r="2" style="" stroke="none" fill="#808080"/><circle cx="42.5" cy="87.5" r="2" style="" stroke="none" fill="#808080"/><polyline points="25.5,72.5,25.5,60,29.5,60,29.5,72.5,25.5,72.5" style="" fill="#808080" stroke="none"/><polyline points="43.91421356237309,86.08578643762691,28.914213562373096,71.08578643762691,26.085786437626904,73.91421356237309,41.08578643762691,88.91421356237309,43.91421356237309,86.08578643762691" style="" fill="#808080" stroke="none"/><polyline points="55,85.5,42.5,85.5,42.5,89.5,55,89.5,55,85.5" style="" fill="#808080" stroke="none"/><circle cx="87.5" cy="72.5" r="2" style="" stroke="none" fill="#808080"/><circle cx="72.5" cy="87.5" r="2" style="" stroke="none" fill="#808080"/><polyline points="85.5,72.5,85.5,60,89.5,60,89.5,72.5,85.5,72.5" style="" fill="#808080" stroke="none"/><polyline points="73.91421356237309,88.91421356237309,88.91421356237309,73.91421356237309,86.08578643762691,71.08578643762691,71.08578643762691,86.08578643762691,73.91421356237309,88.91421356237309" style="" fill="#808080" stroke="none"/><polyline points="60,85.5,72.5,85.5,72.5,89.5,60,89.5,60,85.5" style="" fill="#808080" stroke="none"/><circle cx="17.5" cy="32.5" r="2" style="" stroke="none" fill="#808080"/><circle cx="32.5" cy="17.5" r="2" style="" stroke="none" fill="#808080"/><polyline points="15.5,32.5,15.5,55,19.5,55,19.5,32.5,15.5,32.5" style="" fill="#808080" stroke="none"/><polyline points="31.085786437626904,16.085786437626904,16.085786437626904,31.085786437626904,18.914213562373096,33.91421356237309,33.91421356237309,18.914213562373096,31.085786437626904,16.085786437626904" style="" fill="#808080" stroke="none"/><polyline points="55,15.5,32.5,15.5,32.5,19.5,55,19.5,55,15.5" style="" fill="#808080" stroke="none"/><circle cx="97.5" cy="32.5" r="2" style="" stroke="none" fill="#808080"/><circle cx="82.5" cy="17.5" r="2" style="" stroke="none" fill="#808080"/><polyline points="95.5,32.5,95.5,55,99.5,55,99.5,32.5,95.5,32.5" style="" fill="#808080" stroke="none"/><polyline points="81.08578643762691,18.914213562373096,96.08578643762691,33.91421356237309,98.91421356237309,31.085786437626904,83.91421356237309,16.085786437626904,81.08578643762691,18.914213562373096" style="" fill="#808080" stroke="none"/><polyline points="60,15.5,82.5,15.5,82.5,19.5,60,19.5,60,15.5" style="" fill="#808080" stroke="none"/><circle cx="17.5" cy="82.5" r="2" style="" stroke="none" fill="#808080"/><circle cx="32.5" cy="97.5" r="2" style="" stroke="none" fill="#808080"/><polyline points="15.5,82.5,15.5,60,19.5,60,19.5,82.5,15.5,82.5" style="" fill="#808080" stroke="none"/><polyline points="33.91421356237309,96.08578643762691,18.914213562373096,81.08578643762691,16.085786437626904,83.91421356237309,31.085786437626904,98.91421356237309,33.91421356237309,96.08578643762691" style="" fill="#808080" stroke="none"/><polyline points="55,95.5,32.5,95.5,32.5,99.5,55,99.5,55,95.5" style="" fill="#808080" stroke="none"/><circle cx="97.5" cy="82.5" r="2" style="" stroke="none" fill="#808080"/><circle cx="82.5" cy="97.5" r="2" style="" stroke="none" fill="#808080"/><polyline points="95.5,82.5,95.5,60,99.5,60,99.5,82.5,95.5,82.5" style="" fill="#808080" stroke="none"/><polyline points="83.91421356237309,98.91421356237309,98.91421356237309,83.91421356237309,96.08578643762691,81.08578643762691,81.08578643762691,96.08578643762691,83.91421356237309,98.91421356237309" style="" fill="#808080" stroke="none"/><polyline points="60,95.5,82.5,95.5,82.5,99.5,60,99.5,60,95.5" style="" fill="#808080" stroke="none"/><circle cx="7.5" cy="22.5" r="2" style="" stroke="none" fill="#808080"/><circle cx="22.5" cy="7.5" r="2" style="" stroke="none" fill="#808080"/><polyline points="5.5,22.5,5.5,55,9.5,55,9.5,22.5,5.5,22.5" style="" fill="#808080" stroke="none"/><polyline points="21.085786437626904,6.085786437626905,6.085786437626905,21.085786437626904,8.914213562373096,23.914213562373096,23.914213562373096,8.914213562373096,21.085786437626904,6.085786437626905" style="" fill="#808080" stroke="none"/><polyline points="55,5.5,22.5,5.5,22.5,9.5,55,9.5,55,5.5" style="" fill="#808080" stroke="none"/><circle cx="107.5" cy="22.5" r="2" style="" stroke="none" fill="#808080"/><circle cx="92.5" cy="7.5" r="2" style="" stroke="none" fill="#808080"/><polyline points="105.5,22.5,105.5,55,109.5,55,109.5,22.5,105.5,22.5" style="" fill="#808080" stroke="none"/><polyline points="91.08578643762691,8.914213562373096,106.08578643762691,23.914213562373096,108.91421356237309,21.085786437626904,93.91421356237309,6.085786437626905,91.08578643762691,8.914213562373096" style="" fill="#808080" stroke="none"/><polyline points="60,5.5,92.5,5.5,92.5,9.5,60,9.5,60,5.5" style="" fill="#808080" stroke="none"/><circle cx="7.5" cy="92.5" r="2" style="" stroke="none" fill="#808080"/><circle cx="22.5" cy="107.5" r="2" style="" stroke="none" fill="#808080"/><polyline points="5.5,92.5,5.5,60,9.5,60,9.5,92.5,5.5,92.5" style="" fill="#808080" stroke="none"/><polyline points="23.914213562373096,106.08578643762691,8.914213562373096,91.08578643762691,6.085786437626905,93.91421356237309,21.085786437626904,108.91421356237309,23.914213562373096,106.08578643762691" style="" fill="#808080" stroke="none"/><polyline points="55,105.5,22.5,105.5,22.5,109.5,55,109.5,55,105.5" style="" fill="#808080" stroke="none"/><circle cx="107.5" cy="92.5" r="2" style="" stroke="none" fill="#808080"/><circle cx="92.5" cy="107.5" r="2" style="" stroke="none" fill="#808080"/><polyline points="105.5,92.5,105.5,60,109.5,60,109.5,92.5,105.5,92.5" style="" fill="#808080" stroke="none"/><polyline points="93.91421356237309,108.91421356237309,108.91421356237309,93.91421356237309,106.08578643762691,91.08578643762691,91.08578643762691,106.08578643762691,93.91421356237309,108.91421356237309" style="" fill="#808080" stroke="none"/><polyline points="60,105.5,92.5,105.5,92.5,109.5,60,109.5,60,105.5" style="" fill="#808080" stroke="none"/></g><g id="cut"/><g id="led"><circle cx="52.5" cy="52.5" r="0.5" style="stroke-width: 0.2;" stroke="#ff0000" fill="#ffff00"/><circle cx="62.5" cy="52.5" r="0.5" style="stroke-width: 0.2;" stroke="#ff0000" fill="#ffff00"/><circle cx="52.5" cy="62.5" r="0.5" style="stroke-width: 0.2;" stroke="#ff0000" fill="#ffff00"/><circle cx="62.5" cy="62.5" r="0.5" style="stroke-width: 0.2;" stroke="#ff0000" fill="#ffff00"/><circle cx="52.5" cy="52.5" r="0.5" style="stroke-width: 0.2;" stroke="#ff0000" fill="#ffff00"/><circle cx="62.5" cy="52.5" r="0.5" style="stroke-width: 0.2;" stroke="#ff0000" fill="#ffff00"/><circle cx="52.5" cy="62.5" r="0.5" style="stroke-width: 0.2;" stroke="#ff0000" fill="#ffff00"/><circle cx="62.5" cy="62.5" r="0.5" style="stroke-width: 0.2;" stroke="#ff0000" fill="#ffff00"/><circle cx="52.5" cy="52.5" r="0.5" style="stroke-width: 0.2;" stroke="#ff0000" fill="#ffff00"/><circle cx="62.5" cy="52.5" r="0.5" style="stroke-width: 0.2;" stroke="#ff0000" fill="#ffff00"/><circle cx="52.5" cy="62.5" r="0.5" style="stroke-width: 0.2;" stroke="#ff0000" fill="#ffff00"/><circle cx="62.5" cy="62.5" r="0.5" style="stroke-width: 0.2;" stroke="#ff0000" fill="#ffff00"/><circle cx="52.5" cy="52.5" r="0.5" style="stroke-width: 0.2;" stroke="#ff0000" fill="#ffff00"/><circle cx="62.5" cy="52.5" r="0.5" style="stroke-width: 0.2;" stroke="#ff0000" fill="#ffff00"/><circle cx="52.5" cy="62.5" r="0.5" style="stroke-width: 0.2;" stroke="#ff0000" fill="#ffff00"/><circle cx="62.5" cy="62.5" r="0.5" style="stroke-width: 0.2;" stroke="#ff0000" fill="#ffff00"/></g><g id="outs"/></svg>