<svg height="12cm" version="1.1" width="20.5cm" xmlns="http://www.w3.org/2000/svg" viewBox="0,0,205,120"><desc>Created with Snap</desc><defs><pattern x="0" y="0" width="5" height="5" patternUnits="userSpaceOnUse" id="patternSltpqalrk3b" viewBox="0 0 5 5"><path d="M 5 0 L 0 0 0 5" style="stroke-width: 0.1;" fill="none" stroke="#0000c8"/></pattern><pattern x="0" y="0" width="20" height="20" patternUnits="userSpaceOnUse" id="patternSltpqalrk3d" viewBox="0 0 20 20"><rect x="0" y="0" width="20" height="20" style="" fill="url(&apos;#patternSltpqalrk3b&apos;)"/><path d="M 20 0 L 0 0 0 20" style="stroke-width: 0.2;" fill="none" stroke="#0000c8"/></pattern></defs><g id="grid"><rect x="0" y="0" width="205" height="120" style="" fill="#ffffff"/><rect x="0" y="0" width="205" height="120" style="" fill="url(&apos;#patternSltpqalrk3d&apos;)"/></g><g id="track"><circle cx="127.5" cy="52.5" r="1.5" style="stroke-width: 0.2;" stroke="#ffffff" fill="#00ff00"/><polyline points="24.105572809000083,20.711145618000167,14.105572809000083,25.711145618000167,15.894427190999917,29.288854381999833,25.894427190999917,24.288854381999833,24.105572809000083,20.711145618000167" style="" fill="#000000" stroke="none"/><polyline points="25,25.5,5,25.5,5,29.5,25,29.5,25,25.5" fill="undefined" style="" stroke="none"/><circle cx="15" cy="27.5" r="3" style="" fill="#ffffff"/><circle cx="25" cy="27.5" r="1.5" style="stroke-width: 0.2;" stroke="#ffffff" fill="#00ff00"/><circle cx="25" cy="22.5" r="1.5" style="stroke-width: 0.2;" stroke="#ffffff" fill="#ffff00"/><polyline points="25.894427190999917,10.711145618000169,15.894427190999917,5.7111456180001685,14.105572809000083,9.288854381999831,24.105572809000083,14.288854381999831,25.894427190999917,10.711145618000169" style="" fill="#000000" stroke="none"/><polyline points="25,5.5,5,5.5,5,9.5,25,9.5,25,5.5" fill="undefined" style="" stroke="none"/><circle cx="15" cy="7.5" r="3" style="" fill="#ffffff"/><circle cx="25" cy="7.5" r="1.5" style="stroke-width: 0.2;" stroke="#ffffff" fill="#00ff00"/><circle cx="25" cy="12.5" r="1.5" style="stroke-width: 0.2;" stroke="#ffffff" fill="#ffff00"/><polyline points="29.105572809000083,24.288854381999833,39.10557280900009,29.288854381999833,40.89442719099991,25.711145618000167,30.894427190999917,20.711145618000167,29.105572809000083,24.288854381999833" style="" fill="#000000" stroke="none"/><polyline points="30,25.5,50,25.5,50,29.5,30,29.5,30,25.5" fill="undefined" style="" stroke="none"/><circle cx="40" cy="27.5" r="3" style="" fill="#ffffff"/><circle cx="30" cy="27.5" r="1.5" style="stroke-width: 0.2;" stroke="#ffffff" fill="#00ff00"/><circle cx="30" cy="22.5" r="1.5" style="stroke-width: 0.2;" stroke="#ffffff" fill="#ffff00"/><polyline points="30.894427190999917,14.288854381999831,40.89442719099991,9.288854381999831,39.10557280900009,5.7111456180001685,29.105572809000083,10.711145618000169,30.894427190999917,14.288854381999831" style="" fill="#000000" stroke="none"/><polyline points="30,5.5,50,5.5,50,9.5,30,9.5,30,5.5" fill="undefined" style="" stroke="none"/><circle cx="40" cy="7.5" r="3" style="" fill="#ffffff"/><circle cx="30" cy="7.5" r="1.5" style="stroke-width: 0.2;" stroke="#ffffff" fill="#00ff00"/><circle cx="30" cy="12.5" r="1.5" style="stroke-width: 0.2;" stroke="#ffffff" fill="#ffff00"/><circle cx="15" cy="42.5" r="2" style="" stroke="none" fill="#000000"/><polyline points="25,40.5,15,40.5,15,44.5,25,44.5,25,40.5" style="" fill="#000000" stroke="none"/><polyline points="14.105572809000083,40.71114561800017,4.105572809000084,45.71114561800017,5.894427190999916,49.28885438199983,15.894427190999917,44.28885438199983,14.105572809000083,40.71114561800017" style="" fill="#000000" stroke="none"/><circle cx="40" cy="42.5" r="2" style="" stroke="none" fill="#000000"/><polyline points="30,40.5,40,40.5,40,44.5,30,44.5,30,40.5" style="" fill="#000000" stroke="none"/><polyline points="39.10557280900009,44.28885438199983,49.10557280900009,49.28885438199983,50.89442719099991,45.71114561800017,40.89442719099991,40.71114561800017,39.10557280900009,44.28885438199983" style="" fill="#000000" stroke="none"/><circle cx="15" cy="57.5" r="2" style="" stroke="none" fill="#000000"/><polyline points="25,55.5,15,55.5,15,59.5,25,59.5,25,55.5" style="" fill="#000000" stroke="none"/><polyline points="15.894427190999917,55.71114561800017,5.894427190999916,50.71114561800017,4.105572809000084,54.28885438199983,14.105572809000083,59.28885438199983,15.894427190999917,55.71114561800017" style="" fill="#000000" stroke="none"/><circle cx="40" cy="57.5" r="2" style="" stroke="none" fill="#000000"/><polyline points="30,55.5,40,55.5,40,59.5,30,59.5,30,55.5" style="" fill="#000000" stroke="none"/><polyline points="40.89442719099991,59.28885438199983,50.89442719099991,54.28885438199983,49.10557280900009,50.71114561800017,39.10557280900009,55.71114561800017,40.89442719099991,59.28885438199983" style="" fill="#000000" stroke="none"/><polyline points="14.288854381999831,89.10557280900008,9.288854381999831,79.10557280900008,5.7111456180001685,80.89442719099992,10.711145618000169,90.89442719099992,14.288854381999831,89.10557280900008" style="" fill="#000000" stroke="none"/><polyline points="5.5,90,5.5,70,9.5,70,9.5,90,5.5,90" fill="undefined" style="" stroke="none"/><circle cx="7.5" cy="80" r="3" style="" fill="#ffffff"/><circle cx="7.5" cy="90" r="1.5" style="stroke-width: 0.2;" stroke="#ffffff" fill="#00ff00"/><circle cx="12.5" cy="90" r="1.5" style="stroke-width: 0.2;" stroke="#ffffff" fill="#ffff00"/><polyline points="24.288854381999833,90.89442719099992,29.288854381999833,80.89442719099992,25.711145618000167,79.10557280900008,20.711145618000167,89.10557280900008,24.288854381999833,90.89442719099992" style="" fill="#000000" stroke="none"/><polyline points="25.5,90,25.5,70,29.5,70,29.5,90,25.5,90" fill="undefined" style="" stroke="none"/><circle cx="27.5" cy="80" r="3" style="" fill="#ffffff"/><circle cx="27.5" cy="90" r="1.5" style="stroke-width: 0.2;" stroke="#ffffff" fill="#00ff00"/><circle cx="22.5" cy="90" r="1.5" style="stroke-width: 0.2;" stroke="#ffffff" fill="#ffff00"/><polyline points="10.711145618000169,94.10557280900008,5.7111456180001685,104.10557280900008,9.288854381999831,105.89442719099992,14.288854381999831,95.89442719099992,10.711145618000169,94.10557280900008" style="" fill="#000000" stroke="none"/><polyline points="5.5,95,5.5,115,9.5,115,9.5,95,5.5,95" fill="undefined" style="" stroke="none"/><circle cx="7.5" cy="105" r="3" style="" fill="#ffffff"/><circle cx="7.5" cy="95" r="1.5" style="stroke-width: 0.2;" stroke="#ffffff" fill="#00ff00"/><circle cx="12.5" cy="95" r="1.5" style="stroke-width: 0.2;" stroke="#ffffff" fill="#ffff00"/><polyline points="20.711145618000167,95.89442719099992,25.711145618000167,105.89442719099992,29.288854381999833,104.10557280900008,24.288854381999833,94.10557280900008,20.711145618000167,95.89442719099992" style="" fill="#000000" stroke="none"/><polyline points="25.5,95,25.5,115,29.5,115,29.5,95,25.5,95" fill="undefined" style="" stroke="none"/><circle cx="27.5" cy="105" r="3" style="" fill="#ffffff"/><circle cx="27.5" cy="95" r="1.5" style="stroke-width: 0.2;" stroke="#ffffff" fill="#00ff00"/><circle cx="22.5" cy="95" r="1.5" style="stroke-width: 0.2;" stroke="#ffffff" fill="#ffff00"/><circle cx="57.5" cy="105" r="2" style="" stroke="none" fill="#000000"/><polyline points="55.5,95,55.5,105,59.5,105,59.5,95,55.5,95" style="" fill="#000000" stroke="none"/><polyline points="55.71114561800017,104.10557280900008,50.71114561800017,114.10557280900008,54.28885438199983,115.89442719099992,59.28885438199983,105.89442719099992,55.71114561800017,104.10557280900008" style="" fill="#000000" stroke="none"/><circle cx="42.5" cy="105" r="2" style="" stroke="none" fill="#000000"/><polyline points="40.5,95,40.5,105,44.5,105,44.5,95,40.5,95" style="" fill="#000000" stroke="none"/><polyline points="40.71114561800017,105.89442719099992,45.71114561800017,115.89442719099992,49.28885438199983,114.10557280900008,44.28885438199983,104.10557280900008,40.71114561800017,105.89442719099992" style="" fill="#000000" stroke="none"/><circle cx="57.5" cy="80" r="2" style="" stroke="none" fill="#000000"/><polyline points="55.5,90,55.5,80,59.5,80,59.5,90,55.5,90" style="" fill="#000000" stroke="none"/><polyline points="59.28885438199983,79.10557280900008,54.28885438199983,69.10557280900008,50.71114561800017,70.89442719099992,55.71114561800017,80.89442719099992,59.28885438199983,79.10557280900008" style="" fill="#000000" stroke="none"/><circle cx="42.5" cy="80" r="2" style="" stroke="none" fill="#000000"/><polyline points="40.5,90,40.5,80,44.5,80,44.5,90,40.5,90" style="" fill="#000000" stroke="none"/><polyline points="44.28885438199983,80.89442719099992,49.28885438199983,70.89442719099992,45.71114561800017,69.10557280900008,40.71114561800017,79.10557280900008,44.28885438199983,80.89442719099992" style="" fill="#000000" stroke="none"/><polyline points="79.28885438199983,24.105572809000083,74.28885438199983,14.105572809000083,70.71114561800017,15.894427190999917,75.71114561800017,25.894427190999917,79.28885438199983,24.105572809000083" style="" fill="#000000" stroke="none"/><polyline points="70.5,25,70.5,5,74.5,5,74.5,25,70.5,25" fill="undefined" style="" stroke="none"/><circle cx="72.5" cy="15" r="3" style="" fill="#ffffff"/><circle cx="72.5" cy="25" r="1.5" style="stroke-width: 0.2;" stroke="#ffffff" fill="#00ff00"/><circle cx="77.5" cy="25" r="1.5" style="stroke-width: 0.2;" stroke="#ffffff" fill="#ffff00"/><circle cx="82.5" cy="35" r="2" style="" stroke="none" fill="#000000"/><polyline points="80.5,45,80.5,35,84.5,35,84.5,45,80.5,45" style="" fill="#000000" stroke="none"/><polyline points="84.28885438199983,34.10557280900009,79.28885438199983,24.105572809000083,75.71114561800017,25.894427190999917,80.71114561800017,35.89442719099991,84.28885438199983,34.10557280900009" style="" fill="#000000" stroke="none"/><polyline points="70.5,45,70.5,25,74.5,25,74.5,45,70.5,45" fill="undefined" style="" stroke="none"/><polyline points="99.28885438199983,25.894427190999917,104.28885438199983,15.894427190999917,100.71114561800017,14.105572809000083,95.71114561800017,24.105572809000083,99.28885438199983,25.894427190999917" style="" fill="#000000" stroke="none"/><polyline points="100.5,25,100.5,5,104.5,5,104.5,25,100.5,25" fill="undefined" style="" stroke="none"/><circle cx="102.5" cy="15" r="3" style="" fill="#ffffff"/><circle cx="102.5" cy="25" r="1.5" style="stroke-width: 0.2;" stroke="#ffffff" fill="#00ff00"/><circle cx="97.5" cy="25" r="1.5" style="stroke-width: 0.2;" stroke="#ffffff" fill="#ffff00"/><circle cx="92.5" cy="35" r="2" style="" stroke="none" fill="#000000"/><polyline points="90.5,45,90.5,35,94.5,35,94.5,45,90.5,45" style="" fill="#000000" stroke="none"/><polyline points="94.28885438199983,35.89442719099991,99.28885438199983,25.894427190999917,95.71114561800017,24.105572809000083,90.71114561800017,34.10557280900009,94.28885438199983,35.89442719099991" style="" fill="#000000" stroke="none"/><polyline points="100.5,45,100.5,25,104.5,25,104.5,45,100.5,45" fill="undefined" style="" stroke="none"/><polyline points="75.71114561800017,64.10557280900008,70.71114561800017,74.10557280900008,74.28885438199983,75.89442719099992,79.28885438199983,65.89442719099992,75.71114561800017,64.10557280900008" style="" fill="#000000" stroke="none"/><polyline points="70.5,65,70.5,85,74.5,85,74.5,65,70.5,65" fill="undefined" style="" stroke="none"/><circle cx="72.5" cy="75" r="3" style="" fill="#ffffff"/><circle cx="72.5" cy="65" r="1.5" style="stroke-width: 0.2;" stroke="#ffffff" fill="#00ff00"/><circle cx="77.5" cy="65" r="1.5" style="stroke-width: 0.2;" stroke="#ffffff" fill="#ffff00"/><circle cx="82.5" cy="55" r="2" style="" stroke="none" fill="#000000"/><polyline points="80.5,45,80.5,55,84.5,55,84.5,45,80.5,45" style="" fill="#000000" stroke="none"/><polyline points="80.71114561800017,54.10557280900009,75.71114561800017,64.10557280900008,79.28885438199983,65.89442719099992,84.28885438199983,55.89442719099991,80.71114561800017,54.10557280900009" style="" fill="#000000" stroke="none"/><polyline points="70.5,65,70.5,45,74.5,45,74.5,65,70.5,65" fill="undefined" style="" stroke="none"/><polyline points="95.71114561800017,65.89442719099992,100.71114561800017,75.89442719099992,104.28885438199983,74.10557280900008,99.28885438199983,64.10557280900008,95.71114561800017,65.89442719099992" style="" fill="#000000" stroke="none"/><polyline points="100.5,65,100.5,85,104.5,85,104.5,65,100.5,65" fill="undefined" style="" stroke="none"/><circle cx="102.5" cy="75" r="3" style="" fill="#ffffff"/><circle cx="102.5" cy="65" r="1.5" style="stroke-width: 0.2;" stroke="#ffffff" fill="#00ff00"/><circle cx="97.5" cy="65" r="1.5" style="stroke-width: 0.2;" stroke="#ffffff" fill="#ffff00"/><circle cx="92.5" cy="55" r="2" style="" stroke="none" fill="#000000"/><polyline points="90.5,45,90.5,55,94.5,55,94.5,45,90.5,45" style="" fill="#000000" stroke="none"/><polyline points="90.71114561800017,55.89442719099991,95.71114561800017,65.89442719099992,99.28885438199983,64.10557280900008,94.28885438199983,54.10557280900009,90.71114561800017,55.89442719099991" style="" fill="#000000" stroke="none"/><polyline points="100.5,65,100.5,45,104.5,45,104.5,65,100.5,65" fill="undefined" style="" stroke="none"/><polyline points="135.89442719099992,10.711145618000169,125.89442719099992,5.7111456180001685,124.10557280900008,9.288854381999831,134.10557280900008,14.288854381999831,135.89442719099992,10.711145618000169" style="" fill="#000000" stroke="none"/><polyline points="135,5.5,115,5.5,115,9.5,135,9.5,135,5.5" fill="undefined" style="" stroke="none"/><circle cx="125" cy="7.5" r="3" style="" fill="#ffffff"/><circle cx="135" cy="7.5" r="1.5" style="stroke-width: 0.2;" stroke="#ffffff" fill="#00ff00"/><circle cx="135" cy="12.5" r="1.5" style="stroke-width: 0.2;" stroke="#ffffff" fill="#ffff00"/><circle cx="145" cy="17.5" r="2" style="" stroke="none" fill="#000000"/><polyline points="155,15.5,145,15.5,145,19.5,155,19.5,155,15.5" style="" fill="#000000" stroke="none"/><polyline points="145.89442719099992,15.711145618000169,135.89442719099992,10.711145618000169,134.10557280900008,14.288854381999831,144.10557280900008,19.288854381999833,145.89442719099992,15.711145618000169" style="" fill="#000000" stroke="none"/><polyline points="155,5.5,135,5.5,135,9.5,155,9.5,155,5.5" fill="undefined" style="" stroke="none"/><polyline points="180.89442719099992,14.288854381999831,190.89442719099992,9.288854381999831,189.10557280900008,5.7111456180001685,179.10557280900008,10.711145618000169,180.89442719099992,14.288854381999831" style="" fill="#000000" stroke="none"/><polyline points="180,5.5,200,5.5,200,9.5,180,9.5,180,5.5" fill="undefined" style="" stroke="none"/><circle cx="190" cy="7.5" r="3" style="" fill="#ffffff"/><circle cx="180" cy="7.5" r="1.5" style="stroke-width: 0.2;" stroke="#ffffff" fill="#00ff00"/><circle cx="180" cy="12.5" r="1.5" style="stroke-width: 0.2;" stroke="#ffffff" fill="#ffff00"/><circle cx="170" cy="17.5" r="2" style="" stroke="none" fill="#000000"/><polyline points="160,15.5,170,15.5,170,19.5,160,19.5,160,15.5" style="" fill="#000000" stroke="none"/><polyline points="170.89442719099992,19.288854381999833,180.89442719099992,14.288854381999831,179.10557280900008,10.711145618000169,169.10557280900008,15.711145618000169,170.89442719099992,19.288854381999833" style="" fill="#000000" stroke="none"/><polyline points="180,5.5,160,5.5,160,9.5,180,9.5,180,5.5" fill="undefined" style="" stroke="none"/><polyline points="134.10557280900008,30.711145618000167,124.10557280900008,35.71114561800017,125.89442719099992,39.28885438199983,135.89442719099992,34.28885438199983,134.10557280900008,30.711145618000167" style="" fill="#000000" stroke="none"/><polyline points="135,35.5,115,35.5,115,39.5,135,39.5,135,35.5" fill="undefined" style="" stroke="none"/><circle cx="125" cy="37.5" r="3" style="" fill="#ffffff"/><circle cx="135" cy="37.5" r="1.5" style="stroke-width: 0.2;" stroke="#ffffff" fill="#00ff00"/><circle cx="135" cy="32.5" r="1.5" style="stroke-width: 0.2;" stroke="#ffffff" fill="#ffff00"/><circle cx="145" cy="27.5" r="2" style="" stroke="none" fill="#000000"/><polyline points="155,25.5,145,25.5,145,29.5,155,29.5,155,25.5" style="" fill="#000000" stroke="none"/><polyline points="144.10557280900008,25.711145618000167,134.10557280900008,30.711145618000167,135.89442719099992,34.28885438199983,145.89442719099992,29.288854381999833,144.10557280900008,25.711145618000167" style="" fill="#000000" stroke="none"/><polyline points="155,35.5,135,35.5,135,39.5,155,39.5,155,35.5" fill="undefined" style="" stroke="none"/><polyline points="179.10557280900008,34.28885438199983,189.10557280900008,39.28885438199983,190.89442719099992,35.71114561800017,180.89442719099992,30.711145618000167,179.10557280900008,34.28885438199983" style="" fill="#000000" stroke="none"/><polyline points="180,35.5,200,35.5,200,39.5,180,39.5,180,35.5" fill="undefined" style="" stroke="none"/><circle cx="190" cy="37.5" r="3" style="" fill="#ffffff"/><circle cx="180" cy="37.5" r="1.5" style="stroke-width: 0.2;" stroke="#ffffff" fill="#00ff00"/><circle cx="180" cy="32.5" r="1.5" style="stroke-width: 0.2;" stroke="#ffffff" fill="#ffff00"/><circle cx="170" cy="27.5" r="2" style="" stroke="none" fill="#000000"/><polyline points="160,25.5,170,25.5,170,29.5,160,29.5,160,25.5" style="" fill="#000000" stroke="none"/><polyline points="169.10557280900008,29.288854381999833,179.10557280900008,34.28885438199983,180.89442719099992,30.711145618000167,170.89442719099992,25.711145618000167,169.10557280900008,29.288854381999833" style="" fill="#000000" stroke="none"/><polyline points="180,35.5,160,35.5,160,39.5,180,39.5,180,35.5" fill="undefined" style="" stroke="none"/></g><g id="cut"><circle cx="127.5" cy="52.5" r="1.5" style="stroke-width: 0.2;" fill="none" stroke="#ff0000"/><circle cx="127.5" cy="52.5" r="2" style="stroke-width: 0.2;" fill="none" stroke="#0000ff"/><circle cx="15" cy="27.5" r="3" style="stroke-width: 0.2;" stroke="#ff0000" fill="none"/><circle cx="15" cy="27.5" r="6" style="stroke-width: 0.2;" stroke="#0000ff" fill="none"/><rect x="10" y="20" width="10" height="15" style="stroke-width: 0.2;" stroke="#0000ff" fill="none"/><circle cx="25" cy="27.5" r="1.5" style="stroke-width: 0.2;" fill="none" stroke="#ff0000"/><circle cx="25" cy="27.5" r="2" style="stroke-width: 0.2;" fill="none" stroke="#0000ff"/><circle cx="25" cy="22.5" r="1.5" style="stroke-width: 0.2;" fill="none" stroke="#ff0000"/><circle cx="25" cy="22.5" r="2" style="stroke-width: 0.2;" fill="none" stroke="#0000ff"/><circle cx="15" cy="7.5" r="3" style="stroke-width: 0.2;" stroke="#ff0000" fill="none"/><circle cx="15" cy="7.5" r="6" style="stroke-width: 0.2;" stroke="#0000ff" fill="none"/><rect x="10" y="0" width="10" height="15" style="stroke-width: 0.2;" stroke="#0000ff" fill="none"/><circle cx="25" cy="7.5" r="1.5" style="stroke-width: 0.2;" fill="none" stroke="#ff0000"/><circle cx="25" cy="7.5" r="2" style="stroke-width: 0.2;" fill="none" stroke="#0000ff"/><circle cx="25" cy="12.5" r="1.5" style="stroke-width: 0.2;" fill="none" stroke="#ff0000"/><circle cx="25" cy="12.5" r="2" style="stroke-width: 0.2;" fill="none" stroke="#0000ff"/><circle cx="40" cy="27.5" r="3" style="stroke-width: 0.2;" stroke="#ff0000" fill="none"/><circle cx="40" cy="27.5" r="6" style="stroke-width: 0.2;" stroke="#0000ff" fill="none"/><rect x="35" y="20" width="10" height="15" style="stroke-width: 0.2;" stroke="#0000ff" fill="none"/><circle cx="30" cy="27.5" r="1.5" style="stroke-width: 0.2;" fill="none" stroke="#ff0000"/><circle cx="30" cy="27.5" r="2" style="stroke-width: 0.2;" fill="none" stroke="#0000ff"/><circle cx="30" cy="22.5" r="1.5" style="stroke-width: 0.2;" fill="none" stroke="#ff0000"/><circle cx="30" cy="22.5" r="2" style="stroke-width: 0.2;" fill="none" stroke="#0000ff"/><circle cx="40" cy="7.5" r="3" style="stroke-width: 0.2;" stroke="#ff0000" fill="none"/><circle cx="40" cy="7.5" r="6" style="stroke-width: 0.2;" stroke="#0000ff" fill="none"/><rect x="35" y="0" width="10" height="15" style="stroke-width: 0.2;" stroke="#0000ff" fill="none"/><circle cx="30" cy="7.5" r="1.5" style="stroke-width: 0.2;" fill="none" stroke="#ff0000"/><circle cx="30" cy="7.5" r="2" style="stroke-width: 0.2;" fill="none" stroke="#0000ff"/><circle cx="30" cy="12.5" r="1.5" style="stroke-width: 0.2;" fill="none" stroke="#ff0000"/><circle cx="30" cy="12.5" r="2" style="stroke-width: 0.2;" fill="none" stroke="#0000ff"/><circle cx="7.5" cy="80" r="3" style="stroke-width: 0.2;" stroke="#ff0000" fill="none"/><circle cx="7.5" cy="80" r="6" style="stroke-width: 0.2;" stroke="#0000ff" fill="none"/><rect x="0" y="75" width="15" height="10" style="stroke-width: 0.2;" stroke="#0000ff" fill="none"/><circle cx="7.5" cy="90" r="1.5" style="stroke-width: 0.2;" fill="none" stroke="#ff0000"/><circle cx="7.5" cy="90" r="2" style="stroke-width: 0.2;" fill="none" stroke="#0000ff"/><circle cx="12.5" cy="90" r="1.5" style="stroke-width: 0.2;" fill="none" stroke="#ff0000"/><circle cx="12.5" cy="90" r="2" style="stroke-width: 0.2;" fill="none" stroke="#0000ff"/><circle cx="27.5" cy="80" r="3" style="stroke-width: 0.2;" stroke="#ff0000" fill="none"/><circle cx="27.5" cy="80" r="6" style="stroke-width: 0.2;" stroke="#0000ff" fill="none"/><rect x="20" y="75" width="15" height="10" style="stroke-width: 0.2;" stroke="#0000ff" fill="none"/><circle cx="27.5" cy="90" r="1.5" style="stroke-width: 0.2;" fill="none" stroke="#ff0000"/><circle cx="27.5" cy="90" r="2" style="stroke-width: 0.2;" fill="none" stroke="#0000ff"/><circle cx="22.5" cy="90" r="1.5" style="stroke-width: 0.2;" fill="none" stroke="#ff0000"/><circle cx="22.5" cy="90" r="2" style="stroke-width: 0.2;" fill="none" stroke="#0000ff"/><circle cx="7.5" cy="105" r="3" style="stroke-width: 0.2;" stroke="#ff0000" fill="none"/><circle cx="7.5" cy="105" r="6" style="stroke-width: 0.2;" stroke="#0000ff" fill="none"/><rect x="0" y="100" width="15" height="10" style="stroke-width: 0.2;" stroke="#0000ff" fill="none"/><circle cx="7.5" cy="95" r="1.5" style="stroke-width: 0.2;" fill="none" stroke="#ff0000"/><circle cx="7.5" cy="95" r="2" style="stroke-width: 0.2;" fill="none" stroke="#0000ff"/><circle cx="12.5" cy="95" r="1.5" style="stroke-width: 0.2;" fill="none" stroke="#ff0000"/><circle cx="12.5" cy="95" r="2" style="stroke-width: 0.2;" fill="none" stroke="#0000ff"/><circle cx="27.5" cy="105" r="3" style="stroke-width: 0.2;" stroke="#ff0000" fill="none"/><circle cx="27.5" cy="105" r="6" style="stroke-width: 0.2;" stroke="#0000ff" fill="none"/><rect x="20" y="100" width="15" height="10" style="stroke-width: 0.2;" stroke="#0000ff" fill="none"/><circle cx="27.5" cy="95" r="1.5" style="stroke-width: 0.2;" fill="none" stroke="#ff0000"/><circle cx="27.5" cy="95" r="2" style="stroke-width: 0.2;" fill="none" stroke="#0000ff"/><circle cx="22.5" cy="95" r="1.5" style="stroke-width: 0.2;" fill="none" stroke="#ff0000"/><circle cx="22.5" cy="95" r="2" style="stroke-width: 0.2;" fill="none" stroke="#0000ff"/><circle cx="72.5" cy="15" r="3" style="stroke-width: 0.2;" stroke="#ff0000" fill="none"/><circle cx="72.5" cy="15" r="6" style="stroke-width: 0.2;" stroke="#0000ff" fill="none"/><rect x="65" y="10" width="15" height="10" style="stroke-width: 0.2;" stroke="#0000ff" fill="none"/><circle cx="72.5" cy="25" r="1.5" style="stroke-width: 0.2;" fill="none" stroke="#ff0000"/><circle cx="72.5" cy="25" r="2" style="stroke-width: 0.2;" fill="none" stroke="#0000ff"/><circle cx="77.5" cy="25" r="1.5" style="stroke-width: 0.2;" fill="none" stroke="#ff0000"/><circle cx="77.5" cy="25" r="2" style="stroke-width: 0.2;" fill="none" stroke="#0000ff"/><circle cx="102.5" cy="15" r="3" style="stroke-width: 0.2;" stroke="#ff0000" fill="none"/><circle cx="102.5" cy="15" r="6" style="stroke-width: 0.2;" stroke="#0000ff" fill="none"/><rect x="95" y="10" width="15" height="10" style="stroke-width: 0.2;" stroke="#0000ff" fill="none"/><circle cx="102.5" cy="25" r="1.5" style="stroke-width: 0.2;" fill="none" stroke="#ff0000"/><circle cx="102.5" cy="25" r="2" style="stroke-width: 0.2;" fill="none" stroke="#0000ff"/><circle cx="97.5" cy="25" r="1.5" style="stroke-width: 0.2;" fill="none" stroke="#ff0000"/><circle cx="97.5" cy="25" r="2" style="stroke-width: 0.2;" fill="none" stroke="#0000ff"/><circle cx="72.5" cy="75" r="3" style="stroke-width: 0.2;" stroke="#ff0000" fill="none"/><circle cx="72.5" cy="75" r="6" style="stroke-width: 0.2;" stroke="#0000ff" fill="none"/><rect x="65" y="70" width="15" height="10" style="stroke-width: 0.2;" stroke="#0000ff" fill="none"/><circle cx="72.5" cy="65" r="1.5" style="stroke-width: 0.2;" fill="none" stroke="#ff0000"/><circle cx="72.5" cy="65" r="2" style="stroke-width: 0.2;" fill="none" stroke="#0000ff"/><circle cx="77.5" cy="65" r="1.5" style="stroke-width: 0.2;" fill="none" stroke="#ff0000"/><circle cx="77.5" cy="65" r="2" style="stroke-width: 0.2;" fill="none" stroke="#0000ff"/><circle cx="102.5" cy="75" r="3" style="stroke-width: 0.2;" stroke="#ff0000" fill="none"/><circle cx="102.5" cy="75" r="6" style="stroke-width: 0.2;" stroke="#0000ff" fill="none"/><rect x="95" y="70" width="15" height="10" style="stroke-width: 0.2;" stroke="#0000ff" fill="none"/><circle cx="102.5" cy="65" r="1.5" style="stroke-width: 0.2;" fill="none" stroke="#ff0000"/><circle cx="102.5" cy="65" r="2" style="stroke-width: 0.2;" fill="none" stroke="#0000ff"/><circle cx="97.5" cy="65" r="1.5" style="stroke-width: 0.2;" fill="none" stroke="#ff0000"/><circle cx="97.5" cy="65" r="2" style="stroke-width: 0.2;" fill="none" stroke="#0000ff"/><circle cx="125" cy="7.5" r="3" style="stroke-width: 0.2;" stroke="#ff0000" fill="none"/><circle cx="125" cy="7.5" r="6" style="stroke-width: 0.2;" stroke="#0000ff" fill="none"/><rect x="120" y="0" width="10" height="15" style="stroke-width: 0.2;" stroke="#0000ff" fill="none"/><circle cx="135" cy="7.5" r="1.5" style="stroke-width: 0.2;" fill="none" stroke="#ff0000"/><circle cx="135" cy="7.5" r="2" style="stroke-width: 0.2;" fill="none" stroke="#0000ff"/><circle cx="135" cy="12.5" r="1.5" style="stroke-width: 0.2;" fill="none" stroke="#ff0000"/><circle cx="135" cy="12.5" r="2" style="stroke-width: 0.2;" fill="none" stroke="#0000ff"/><circle cx="190" cy="7.5" r="3" style="stroke-width: 0.2;" stroke="#ff0000" fill="none"/><circle cx="190" cy="7.5" r="6" style="stroke-width: 0.2;" stroke="#0000ff" fill="none"/><rect x="185" y="0" width="10" height="15" style="stroke-width: 0.2;" stroke="#0000ff" fill="none"/><circle cx="180" cy="7.5" r="1.5" style="stroke-width: 0.2;" fill="none" stroke="#ff0000"/><circle cx="180" cy="7.5" r="2" style="stroke-width: 0.2;" fill="none" stroke="#0000ff"/><circle cx="180" cy="12.5" r="1.5" style="stroke-width: 0.2;" fill="none" stroke="#ff0000"/><circle cx="180" cy="12.5" r="2" style="stroke-width: 0.2;" fill="none" stroke="#0000ff"/><circle cx="125" cy="37.5" r="3" style="stroke-width: 0.2;" stroke="#ff0000" fill="none"/><circle cx="125" cy="37.5" r="6" style="stroke-width: 0.2;" stroke="#0000ff" fill="none"/><rect x="120" y="30" width="10" height="15" style="stroke-width: 0.2;" stroke="#0000ff" fill="none"/><circle cx="135" cy="37.5" r="1.5" style="stroke-width: 0.2;" fill="none" stroke="#ff0000"/><circle cx="135" cy="37.5" r="2" style="stroke-width: 0.2;" fill="none" stroke="#0000ff"/><circle cx="135" cy="32.5" r="1.5" style="stroke-width: 0.2;" fill="none" stroke="#ff0000"/><circle cx="135" cy="32.5" r="2" style="stroke-width: 0.2;" fill="none" stroke="#0000ff"/><circle cx="190" cy="37.5" r="3" style="stroke-width: 0.2;" stroke="#ff0000" fill="none"/><circle cx="190" cy="37.5" r="6" style="stroke-width: 0.2;" stroke="#0000ff" fill="none"/><rect x="185" y="30" width="10" height="15" style="stroke-width: 0.2;" stroke="#0000ff" fill="none"/><circle cx="180" cy="37.5" r="1.5" style="stroke-width: 0.2;" fill="none" stroke="#ff0000"/><circle cx="180" cy="37.5" r="2" style="stroke-width: 0.2;" fill="none" stroke="#0000ff"/><circle cx="180" cy="32.5" r="1.5" style="stroke-width: 0.2;" fill="none" stroke="#ff0000"/><circle cx="180" cy="32.5" r="2" style="stroke-width: 0.2;" fill="none" stroke="#0000ff"/></g><g id="led"><circle cx="127.5" cy="52.5" r="1.5" style="" stroke="none" fill="#00ff00"/><circle cx="127.5" cy="52.5" r="0.5" style="stroke-width: 0.2;" stroke="#ff0000" fill="#ffff00"/><circle cx="25" cy="27.5" r="1.5" style="" stroke="none" fill="#00ff00"/><circle cx="25" cy="22.5" r="1.5" style="" stroke="none" fill="#ffff00"/><circle cx="7.5" cy="27.5" r="0.5" style="stroke-width: 0.2;" stroke="#ff0000" fill="#ffff00"/><circle cx="25" cy="7.5" r="1.5" style="" stroke="none" fill="#00ff00"/><circle cx="25" cy="12.5" r="1.5" style="" stroke="none" fill="#ffff00"/><circle cx="7.5" cy="7.5" r="0.5" style="stroke-width: 0.2;" stroke="#ff0000" fill="#ffff00"/><circle cx="30" cy="27.5" r="1.5" style="" stroke="none" fill="#00ff00"/><circle cx="30" cy="22.5" r="1.5" style="" stroke="none" fill="#ffff00"/><circle cx="32.5" cy="27.5" r="0.5" style="stroke-width: 0.2;" stroke="#ff0000" fill="#ffff00"/><circle cx="30" cy="7.5" r="1.5" style="" stroke="none" fill="#00ff00"/><circle cx="30" cy="12.5" r="1.5" style="" stroke="none" fill="#ffff00"/><circle cx="32.5" cy="7.5" r="0.5" style="stroke-width: 0.2;" stroke="#ff0000" fill="#ffff00"/><circle cx="7.5" cy="47.5" r="0.5" style="stroke-width: 0.2;" stroke="#ff0000" fill="#ffff00"/><circle cx="32.5" cy="47.5" r="0.5" style="stroke-width: 0.2;" stroke="#ff0000" fill="#ffff00"/><circle cx="7.5" cy="52.5" r="0.5" style="stroke-width: 0.2;" stroke="#ff0000" fill="#ffff00"/><circle cx="32.5" cy="52.5" r="0.5" style="stroke-width: 0.2;" stroke="#ff0000" fill="#ffff00"/><circle cx="7.5" cy="90" r="1.5" style="" stroke="none" fill="#00ff00"/><circle cx="12.5" cy="90" r="1.5" style="" stroke="none" fill="#ffff00"/><circle cx="7.5" cy="72.5" r="0.5" style="stroke-width: 0.2;" stroke="#ff0000" fill="#ffff00"/><circle cx="27.5" cy="90" r="1.5" style="" stroke="none" fill="#00ff00"/><circle cx="22.5" cy="90" r="1.5" style="" stroke="none" fill="#ffff00"/><circle cx="27.5" cy="72.5" r="0.5" style="stroke-width: 0.2;" stroke="#ff0000" fill="#ffff00"/><circle cx="7.5" cy="95" r="1.5" style="" stroke="none" fill="#00ff00"/><circle cx="12.5" cy="95" r="1.5" style="" stroke="none" fill="#ffff00"/><circle cx="7.5" cy="97.5" r="0.5" style="stroke-width: 0.2;" stroke="#ff0000" fill="#ffff00"/><circle cx="27.5" cy="95" r="1.5" style="" stroke="none" fill="#00ff00"/><circle cx="22.5" cy="95" r="1.5" style="" stroke="none" fill="#ffff00"/><circle cx="27.5" cy="97.5" r="0.5" style="stroke-width: 0.2;" stroke="#ff0000" fill="#ffff00"/><circle cx="52.5" cy="117.5" r="0.5" style="stroke-width: 0.2;" stroke="#ff0000" fill="#ffff00"/><circle cx="47.5" cy="117.5" r="0.5" style="stroke-width: 0.2;" stroke="#ff0000" fill="#ffff00"/><circle cx="52.5" cy="72.5" r="0.5" style="stroke-width: 0.2;" stroke="#ff0000" fill="#ffff00"/><circle cx="47.5" cy="72.5" r="0.5" style="stroke-width: 0.2;" stroke="#ff0000" fill="#ffff00"/><circle cx="72.5" cy="25" r="1.5" style="" stroke="none" fill="#00ff00"/><circle cx="77.5" cy="25" r="1.5" style="" stroke="none" fill="#ffff00"/><circle cx="72.5" cy="7.5" r="0.5" style="stroke-width: 0.2;" stroke="#ff0000" fill="#ffff00"/><circle cx="102.5" cy="25" r="1.5" style="" stroke="none" fill="#00ff00"/><circle cx="97.5" cy="25" r="1.5" style="" stroke="none" fill="#ffff00"/><circle cx="102.5" cy="7.5" r="0.5" style="stroke-width: 0.2;" stroke="#ff0000" fill="#ffff00"/><circle cx="72.5" cy="65" r="1.5" style="" stroke="none" fill="#00ff00"/><circle cx="77.5" cy="65" r="1.5" style="" stroke="none" fill="#ffff00"/><circle cx="72.5" cy="47.5" r="0.5" style="stroke-width: 0.2;" stroke="#ff0000" fill="#ffff00"/><circle cx="102.5" cy="65" r="1.5" style="" stroke="none" fill="#00ff00"/><circle cx="97.5" cy="65" r="1.5" style="" stroke="none" fill="#ffff00"/><circle cx="102.5" cy="47.5" r="0.5" style="stroke-width: 0.2;" stroke="#ff0000" fill="#ffff00"/><circle cx="135" cy="7.5" r="1.5" style="" stroke="none" fill="#00ff00"/><circle cx="135" cy="12.5" r="1.5" style="" stroke="none" fill="#ffff00"/><circle cx="117.5" cy="7.5" r="0.5" style="stroke-width: 0.2;" stroke="#ff0000" fill="#ffff00"/><circle cx="180" cy="7.5" r="1.5" style="" stroke="none" fill="#00ff00"/><circle cx="180" cy="12.5" r="1.5" style="" stroke="none" fill="#ffff00"/><circle cx="162.5" cy="7.5" r="0.5" style="stroke-width: 0.2;" stroke="#ff0000" fill="#ffff00"/><circle cx="135" cy="37.5" r="1.5" style="" stroke="none" fill="#00ff00"/><circle cx="135" cy="32.5" r="1.5" style="" stroke="none" fill="#ffff00"/><circle cx="117.5" cy="37.5" r="0.5" style="stroke-width: 0.2;" stroke="#ff0000" fill="#ffff00"/><circle cx="180" cy="37.5" r="1.5" style="" stroke="none" fill="#00ff00"/><circle cx="180" cy="32.5" r="1.5" style="" stroke="none" fill="#ffff00"/><circle cx="162.5" cy="37.5" r="0.5" style="stroke-width: 0.2;" stroke="#ff0000" fill="#ffff00"/></g><g id="outs"/></svg>